<?xml version="1.0" standalone="no"?>
<!DOCTYPE svg PUBLIC "-//W3C//DTD SVG 1.1//EN" "http://www.w3.org/Graphics/SVG/1.1/DTD/svg11.dtd" >
<svg>
<metadata>
Created by FontForge 20090622 at Thu Apr 14 14:45:39 2016
 By deploy user
Copyright (C) 2006, 2007 Hoefler &#38; Frere-Jones. http://www.typography.com
</metadata>
<defs>
<font id="GothamRounded-LightItalic" horiz-adv-x="654" >
  <font-face 
    font-family="Gotham Rounded Light"
    font-weight="300"
    font-style="italic"
    font-stretch="normal"
    units-per-em="1000"
    panose-1="0 0 0 0 0 0 0 0 0 0"
    ascent="800"
    descent="-200"
    x-height="510"
    cap-height="704"
    bbox="-129 -224 1203 1017"
    underline-thickness="50"
    underline-position="-50"
    slope="-15"
    unicode-range="U+0020-U+FB04"
  />
<missing-glyph horiz-adv-x="500" 
d="M0 -200v1000h500v-1000h-500zM71 750l179 -390l179 390h-358zM50 -76l172 376l-172 376v-752zM450 676l-172 -376l172 -376v752zM250 240l-179 -390h358z" />
    <glyph glyph-name="f_f" unicode="ff" horiz-adv-x="724" 
d="M229 465l-120 -446q-6 -23 -27 -23q-11 0 -17 8t-3 20l118 441h-48q-10 0 -16.5 6.5t-6.5 16.5q0 9 7 15.5t16 6.5h60l20 74q39 146 163 146q44 0 82 -15q20 -8 20 -25q0 -11 -9.5 -18t-22.5 -1q-37 15 -72 15q-86 0 -115 -113l-17 -63h158q10 0 16.5 -6.5t6.5 -16.5
q0 -9 -7 -15.5t-16 -6.5h-170zM591 465l-120 -446q-6 -23 -27 -23q-11 0 -17 8t-3 20l118 441h-48q-10 0 -16.5 6.5t-6.5 16.5q0 9 7 15.5t16 6.5h60l20 74q39 146 163 146q44 0 82 -15q20 -8 20 -25q0 -11 -9.5 -18t-22.5 -1q-37 15 -72 15q-86 0 -115 -113l-17 -63h158
q10 0 16.5 -6.5t6.5 -16.5q0 -9 -7 -15.5t-16 -6.5h-170z" />
    <glyph glyph-name="fi" unicode="fi" horiz-adv-x="612" 
d="M229 465l-120 -446q-6 -23 -27 -23q-11 0 -17 8t-3 20l118 441h-48q-10 0 -16.5 6.5t-6.5 16.5q0 9 7 15.5t16 6.5h60l20 74q39 146 163 146q44 0 82 -15q20 -8 20 -25q0 -11 -9.5 -18t-22.5 -1q-37 15 -72 15q-86 0 -115 -113l-17 -63h158q10 0 16.5 -6.5t6.5 -16.5
q0 -9 -7 -15.5t-16 -6.5h-170zM627 661q-6 -23 -34 -23q-14 0 -21.5 8t-4.5 20l7 26q6 23 34 23q14 0 21.5 -8t4.5 -20zM573 486l-125 -467q-6 -23 -27 -23q-11 0 -17 8t-3 20l125 467q6 23 27 23q11 0 17 -8t3 -20z" />
    <glyph glyph-name="fl" unicode="fl" horiz-adv-x="612" 
d="M229 465l-120 -446q-6 -23 -27 -23q-11 0 -17 8t-3 20l118 441h-48q-10 0 -16.5 6.5t-6.5 16.5q0 9 7 15.5t16 6.5h60l20 74q39 146 163 146q44 0 82 -15q20 -8 20 -25q0 -11 -9.5 -18t-22.5 -1q-37 15 -72 15q-86 0 -115 -113l-17 -63h158q10 0 16.5 -6.5t6.5 -16.5
q0 -9 -7 -15.5t-16 -6.5h-170zM632 706l-184 -687q-6 -23 -27 -23q-11 0 -17 8t-3 20l184 687q6 23 27 23q11 0 17 -8t3 -20z" />
    <glyph glyph-name="f_f_i" unicode="ffi" horiz-adv-x="974" 
d="M229 465l-120 -446q-6 -23 -27 -23q-11 0 -17 8t-3 20l118 441h-48q-10 0 -16.5 6.5t-6.5 16.5q0 9 7 15.5t16 6.5h60l20 74q39 146 163 146q44 0 82 -15q20 -8 20 -25q0 -11 -9.5 -18t-22.5 -1q-37 15 -72 15q-86 0 -115 -113l-17 -63h158q10 0 16.5 -6.5t6.5 -16.5
q0 -9 -7 -15.5t-16 -6.5h-170zM591 465l-120 -446q-6 -23 -27 -23q-11 0 -17 8t-3 20l118 441h-48q-10 0 -16.5 6.5t-6.5 16.5q0 9 7 15.5t16 6.5h60l20 74q39 146 163 146q44 0 82 -15q20 -8 20 -25q0 -11 -9.5 -18t-22.5 -1q-37 15 -72 15q-86 0 -115 -113l-17 -63h158
q10 0 16.5 -6.5t6.5 -16.5q0 -9 -7 -15.5t-16 -6.5h-170zM989 661q-6 -23 -34 -23q-14 0 -21.5 8t-4.5 20l7 26q6 23 34 23q14 0 21.5 -8t4.5 -20zM935 486l-125 -467q-6 -23 -27 -23q-11 0 -17 8t-3 20l125 467q6 23 27 23q11 0 17 -8t3 -20z" />
    <glyph glyph-name="f_f_l" unicode="ffl" horiz-adv-x="974" 
d="M229 465l-120 -446q-6 -23 -27 -23q-11 0 -17 8t-3 20l118 441h-48q-10 0 -16.5 6.5t-6.5 16.5q0 9 7 15.5t16 6.5h60l20 74q39 146 163 146q44 0 82 -15q20 -8 20 -25q0 -11 -9.5 -18t-22.5 -1q-37 15 -72 15q-86 0 -115 -113l-17 -63h158q10 0 16.5 -6.5t6.5 -16.5
q0 -9 -7 -15.5t-16 -6.5h-170zM591 465l-120 -446q-6 -23 -27 -23q-11 0 -17 8t-3 20l118 441h-48q-10 0 -16.5 6.5t-6.5 16.5q0 9 7 15.5t16 6.5h60l20 74q39 146 163 146q44 0 82 -15q20 -8 20 -25q0 -11 -9.5 -18t-22.5 -1q-37 15 -72 15q-86 0 -115 -113l-17 -63h158
q10 0 16.5 -6.5t6.5 -16.5q0 -9 -7 -15.5t-16 -6.5h-170zM994 706l-184 -687q-6 -23 -27 -23q-11 0 -17 8t-3 20l184 687q6 23 27 23q11 0 17 -8t3 -20z" />
    <glyph glyph-name=".notdef" horiz-adv-x="500" 
d="M0 -200v1000h500v-1000h-500zM71 750l179 -390l179 390h-358zM50 -76l172 376l-172 376v-752zM450 676l-172 -376l172 -376v752zM250 240l-179 -390h358z" />
    <glyph glyph-name=".null" horiz-adv-x="0" 
 />
    <glyph glyph-name="nonmarkingreturn" horiz-adv-x="333" 
 />
    <glyph glyph-name="space" unicode=" " horiz-adv-x="300" 
 />
    <glyph glyph-name="exclam" unicode="!" horiz-adv-x="251" 
d="M268 675l-145 -482q-4 -13 -15 -13q-17 0 -12 20l114 481q5 22 29 22h8q12 0 18.5 -7.5t2.5 -20.5zM105 58l-10 -38q-6 -24 -36 -24q-14 0 -22.5 8.5t-5.5 21.5l10 37q8 26 36 26q14 0 22.5 -9t5.5 -22z" />
    <glyph glyph-name="quotedbl" unicode="&#x22;" horiz-adv-x="410" 
d="M135 455q-7 -13 -17 -13q-18 0 -11 20l80 219q7 21 33 21h6q15 0 20 -9t-3 -25zM315 455q-7 -13 -17 -13q-18 0 -11 20l80 219q7 21 33 21h6q15 0 20 -9t-3 -25z" />
    <glyph glyph-name="numbersign" unicode="#" horiz-adv-x="678" 
d="M221 234h206l83 236h-207zM375 677l-56 -160h207l58 166q8 21 27 21q13 0 18 -8t1 -19l-56 -160h95q10 0 17 -6.5t7 -16.5t-7 -17t-17 -7h-111l-83 -236h107q10 0 17 -6.5t7 -16.5t-7 -17t-17 -7h-123l-59 -170q-8 -21 -27 -21q-13 0 -18 7.5t-1 19.5l57 164h-207
l-59 -170q-7 -21 -27 -21q-12 0 -17.5 7.5t-1.5 19.5l57 164h-95q-10 0 -17 6.5t-7 16.5t7 17t17 7h111l83 236h-107q-10 0 -17 6.5t-7 16.5t7 17t17 7h123l58 166q7 21 27 21q12 0 17.5 -8t1.5 -19z" />
    <glyph glyph-name="dollar" unicode="$" horiz-adv-x="618" 
d="M196 -75l22 80q-123 20 -204 101q-11 11 -11 23q0 10 7 17t18 7q10 0 19 -9q74 -77 188 -93l77 288q-98 37 -138.5 75.5t-40.5 98.5q0 80 66.5 133.5t165.5 53.5q16 0 44 -2l11 41q6 23 27 23q11 0 17.5 -8t3.5 -20l-12 -43q90 -18 158 -76q11 -9 11 -22q0 -11 -7 -18
t-17 -7t-20 8q-57 52 -142 70l-73 -272q92 -33 132.5 -74t40.5 -102q0 -86 -71 -142t-184 -56h-19l-21 -80q-6 -23 -27 -23q-11 0 -17.5 8t-3.5 20zM278 47q90 -3 149 38t59 108q0 42 -30 72.5t-103 59.5zM325 389l71 262q-87 12 -148.5 -28t-61.5 -105q0 -44 31.5 -72.5
t107.5 -56.5z" />
    <glyph glyph-name="percent" unicode="%" horiz-adv-x="821" 
d="M230 346q-60 0 -98.5 41.5t-38.5 101.5q0 86 56 152.5t135 66.5q60 0 98.5 -41.5t38.5 -101.5q0 -86 -56 -152.5t-135 -66.5zM588 -7q-60 0 -98.5 41.5t-38.5 101.5q0 86 56 152.5t135 66.5q60 0 98.5 -41.5t38.5 -101.5q0 -86 -56 -152.5t-135 -66.5zM234 389
q56 0 97 53.5t41 117.5q0 48 -24 76.5t-68 28.5q-56 0 -97 -53.5t-41 -117.5q0 -48 24 -76.5t68 -28.5zM592 36q56 0 97 53.5t41 117.5q0 48 -24 76.5t-68 28.5q-56 0 -97 -53.5t-41 -117.5q0 -48 24 -76.5t68 -28.5zM772 664l-635 -652q-16 -16 -27 -16q-8 0 -14 5.5
t-6 14.5q0 10 11 21l635 652q16 16 27 16q8 0 14 -5.5t6 -14.5q0 -10 -11 -21z" />
    <glyph glyph-name="ampersand" unicode="&#x26;" horiz-adv-x="690" 
d="M326 411q200 52 200 154q0 46 -31.5 74.5t-83.5 28.5q-53 0 -92 -38.5t-39 -92.5q0 -56 46 -126zM237 36q116 0 223 105l-159 225q-109 -26 -163 -78t-54 -117q0 -62 41.5 -98.5t111.5 -36.5zM558 6l-71 101q-61 -60 -120 -88.5t-136 -28.5q-86 0 -143 47t-57 128
q0 85 62.5 146.5t182.5 91.5q-47 76 -47 133q0 75 54.5 125.5t129.5 50.5q74 0 119 -40t45 -105q0 -131 -226 -192l142 -201q52 58 104 146q12 19 25 19q9 0 15 -6t6 -15t-6 -18q-60 -97 -116 -160l76 -108q8 -11 8 -20q0 -22 -23 -22q-13 0 -24 16z" />
    <glyph glyph-name="quotesingle" unicode="'" horiz-adv-x="230" 
d="M135 455q-7 -13 -17 -13q-18 0 -11 20l80 219q7 21 33 21h6q15 0 20 -9t-3 -25z" />
    <glyph glyph-name="parenleft" unicode="(" horiz-adv-x="430" 
d="M291 -101q8 -9 8 -17t-6 -13.5t-14 -5.5q-10 0 -18 8q-162 155 -162 347q0 152 97 283.5t280 209.5q10 4 16 4q8 0 14 -5.5t6 -13.5q0 -14 -14 -20q-167 -73 -257 -194t-90 -263q0 -102 37.5 -176t102.5 -144z" />
    <glyph glyph-name="parenright" unicode=")" horiz-adv-x="430" 
d="M157 679q-8 9 -8 17t6 13.5t14 5.5q10 0 18 -8q162 -155 162 -347q0 -152 -97 -283.5t-280 -209.5q-10 -4 -16 -4q-8 0 -14 5.5t-6 13.5q0 14 14 20q167 73 257 194t90 263q0 102 -37.5 176t-102.5 144z" />
    <glyph glyph-name="asterisk" unicode="*" horiz-adv-x="430" 
d="M294 531l-20 -106q-3 -18 -20 -18q-11 0 -17 8t-2 18l36 104l-103 -36q-7 -3 -14 -3q-8 0 -13.5 5.5t-5.5 13.5q0 19 20 22l112 21l-86 72q-10 9 -10 19q0 20 18 20q11 0 19 -9l74 -85l20 104q5 21 22 21q11 0 16 -8t1 -19l-36 -104l102 36q7 3 15 3q7 0 12 -6t5 -14
q0 -18 -19 -21l-111 -21l84 -71q12 -11 12 -20t-6 -14.5t-13 -5.5q-10 0 -19 10z" />
    <glyph glyph-name="plus" unicode="+" horiz-adv-x="620" 
d="M355 328l-53 -195q-7 -24 -28 -24q-12 0 -18 9t-3 20l52 190h-191q-10 0 -17 7t-7 17t7 17t17 7h204l52 196q7 23 28 23q12 0 18 -8.5t3 -19.5l-51 -191h191q10 0 17 -6.5t7 -16.5t-7 -17.5t-17 -7.5h-204z" />
    <glyph glyph-name="comma" unicode="," horiz-adv-x="231" 
d="M-30 -79q32 14 48.5 32t22.5 47q-10 1 -16 9t-3 21l9 33q8 26 36 26q14 0 23 -10t5 -23l-12 -45q-14 -51 -40 -77q-23 -24 -64 -37q-8 -3 -13.5 0.5t-5.5 10.5q0 9 10 13z" />
    <glyph glyph-name="hyphen" unicode="-" horiz-adv-x="409" 
d="M326 269h-221q-11 0 -19.5 8.5t-8.5 19.5t8.5 19.5t19.5 8.5h221q11 0 19.5 -8.5t8.5 -19.5t-8.5 -19.5t-19.5 -8.5z" />
    <glyph glyph-name="period" unicode="." horiz-adv-x="231" 
d="M95 58l-10 -36q-8 -26 -36 -26q-14 0 -22.5 9t-5.5 22l10 36q8 26 36 26q14 0 22.5 -9t5.5 -22z" />
    <glyph glyph-name="slash" unicode="/" horiz-adv-x="500" 
d="M-93 -92l680 880q12 15 24 15q9 0 14.5 -6t5.5 -14t-10 -21l-680 -880q-12 -15 -24 -15q-9 0 -14.5 6t-5.5 14t10 21z" />
    <glyph glyph-name="zero" unicode="0" horiz-adv-x="709" 
d="M317 -12q-112 0 -173.5 72.5t-61.5 189.5q0 114 46 220t130 174t184 68q112 0 173.5 -72.5t61.5 -189.5q0 -114 -46 -220t-130 -174t-184 -68zM320 35q79 0 150 61t112 156.5t41 197.5q0 94 -48 154.5t-136 60.5q-79 0 -150 -61t-112 -156.5t-41 -197.5q0 -94 48 -154.5
t136 -60.5z" />
    <glyph glyph-name="one" unicode="1" horiz-adv-x="334" 
d="M327 679l-177 -660q-6 -23 -28 -23q-11 0 -18.5 8.5t-3.5 21.5l167 622l-119 -38q-9 -3 -16 -3q-9 0 -14.5 6.5t-5.5 15.5q0 17 18 23l144 48q19 7 34 7h1q25 0 18 -28z" />
    <glyph glyph-name="two" unicode="2" horiz-adv-x="588" 
d="M454 0h-446q-25 0 -25 21q0 13 12 22l413 321q64 50 93.5 90.5t29.5 87.5q0 53 -40 87t-110 34q-96 0 -186 -86q-13 -11 -23 -11t-16.5 6t-6.5 16q0 12 11 23q53 48 104.5 73.5t118.5 25.5q89 0 145.5 -46.5t56.5 -120.5q0 -58 -35.5 -107t-109.5 -106l-362 -280h376
q10 0 17.5 -7t7.5 -18t-7.5 -18t-17.5 -7z" />
    <glyph glyph-name="three" unicode="3" horiz-adv-x="606" 
d="M21 104q-6 10 -6 21q0 10 7 17t17 7q13 0 22 -15q62 -99 192 -99q93 0 154 49.5t61 126.5q0 66 -52.5 99.5t-143.5 33.5h-15q-24 0 -24 18q0 9 9 17l302 272h-346q-11 0 -18 7t-7 17q0 11 7.5 18t17.5 7h411q21 0 21 -18q0 -13 -13 -24l-301 -272q89 -4 148 -48.5
t59 -122.5q0 -98 -80 -162.5t-193 -64.5q-159 0 -229 116z" />
    <glyph glyph-name="four" unicode="4" horiz-adv-x="645" 
d="M99 216h328l109 406zM466 171l-41 -152q-6 -23 -28 -23q-11 0 -18 8t-3 22l39 145h-365q-28 0 -28 20q0 12 14 26l514 478q16 14 32 14q13 0 18.5 -9t1.5 -21l-124 -463h88q9 0 16 -6.5t7 -15.5q0 -10 -7 -16.5t-16 -6.5h-100z" />
    <glyph glyph-name="five" unicode="5" horiz-adv-x="601" 
d="M33 89q-11 12 -11 26q0 9 7 16t17 7q14 0 24 -13q68 -92 185 -92q99 0 162.5 58t63.5 138q0 70 -47 110t-121 40q-72 0 -145 -35q-19 -9 -34 1q-16 11 -8 37l96 294q8 24 29 24h328q11 0 18 -7t7 -18t-7 -18t-18 -7h-317l-86 -257q23 13 64.5 23t72.5 10q102 0 162 -52.5
t60 -142.5q0 -101 -79 -172t-204 -71q-135 0 -219 101z" />
    <glyph glyph-name="six" unicode="6" horiz-adv-x="640" 
d="M635 637q11 -11 11 -23q0 -10 -7 -17.5t-17 -7.5q-11 0 -20 9q-69 67 -158 67q-99 0 -181 -82q-49 -49 -83 -121.5t-39 -144.5q35 52 90.5 85t127.5 33q102 0 163 -60t61 -144q0 -99 -76 -171t-190 -72q-102 0 -166 64q-68 68 -68 193q0 112 38.5 208t101.5 159
q100 100 224 100q111 0 188 -75zM320 34q90 0 149.5 58t59.5 139q0 62 -45 109t-128 47q-93 0 -153.5 -56.5t-60.5 -129.5q0 -72 46 -118q49 -49 132 -49z" />
    <glyph glyph-name="seven" unicode="7" horiz-adv-x="578" 
d="M611 656l-461 -642q-14 -18 -29 -18q-22 0 -22 20q0 10 10 24l442 610h-374q-11 0 -18 7t-7 18t7 18t18 7h425q21 0 21 -18q0 -9 -12 -26z" />
    <glyph glyph-name="eight" unicode="8" horiz-adv-x="641" 
d="M295 -10q-113 0 -184 53t-71 130q0 81 60 132.5t154 65.5q-46 17 -76.5 56t-30.5 93q0 81 72 135.5t177 54.5q101 0 166.5 -50t65.5 -129q0 -71 -52 -119.5t-129 -62.5q51 -18 87 -60t36 -98q0 -87 -78.5 -144t-196.5 -57zM375 380q93 0 146 44.5t53 103.5t-49.5 97
t-128.5 38q-87 0 -141 -42t-54 -105q0 -58 49 -97t125 -39zM298 37q98 0 158 43.5t60 112.5q0 59 -55.5 101.5t-146.5 42.5q-99 0 -159.5 -46t-60.5 -112q0 -63 56 -102.5t148 -39.5z" />
    <glyph glyph-name="nine" unicode="9" horiz-adv-x="640" 
d="M243 -13q-110 0 -194 81q-11 11 -11 23q0 10 7 17.5t17 7.5q11 0 20 -9q70 -73 164 -73q98 0 180 82q49 48 82.5 119t39.5 144q-83 -123 -220 -123q-102 0 -163 61t-60 147q1 101 78 174t190 73q101 0 165 -64q68 -68 68 -193q0 -112 -38.5 -208t-101.5 -159
q-100 -100 -223 -100zM335 304q90 0 151 59.5t61 136.5q0 69 -46 115q-50 50 -132 50q-90 0 -149.5 -59.5t-60.5 -141.5q-1 -64 44 -112t132 -48z" />
    <glyph glyph-name="colon" unicode=":" horiz-adv-x="241" 
d="M100 58l-10 -36q-8 -26 -36 -26q-14 0 -22.5 9t-5.5 22l10 36q8 26 36 26q14 0 22.5 -9t5.5 -22zM214 483l-10 -36q-8 -26 -36 -26q-14 0 -22.5 9t-5.5 22l10 36q8 26 36 26q14 0 22.5 -9t5.5 -22z" />
    <glyph glyph-name="semicolon" unicode=";" horiz-adv-x="241" 
d="M-25 -79q32 14 48.5 32t22.5 47q-10 1 -16 9t-3 21l9 33q8 26 36 26q14 0 23 -10t5 -23l-12 -45q-14 -51 -40 -77q-23 -24 -64 -37q-8 -3 -13.5 0.5t-5.5 10.5q0 9 10 13zM214 483l-10 -36q-8 -26 -36 -26q-14 0 -22.5 9t-5.5 22l10 36q8 26 36 26q14 0 22.5 -9t5.5 -22z
" />
    <glyph glyph-name="less" unicode="&#x3c;" horiz-adv-x="620" 
d="M111 380l465 212q12 6 23 6q20 0 20 -22q0 -16 -19 -25l-451 -203l332 -199q15 -8 15 -23q0 -10 -6.5 -17t-16.5 -7q-9 0 -19 6l-351 211q-19 12 -19 27v1q0 22 27 33z" />
    <glyph glyph-name="equal" unicode="=" horiz-adv-x="620" 
d="M160 439q-11 0 -18.5 7.5t-7.5 17.5t8 18t18 8h410q10 0 18 -8t8 -18t-7.5 -17.5t-18.5 -7.5h-410zM100 214q-11 0 -18.5 7.5t-7.5 17.5q0 11 8 18.5t18 7.5h410q10 0 18 -7.5t8 -18.5q0 -10 -7.5 -17.5t-18.5 -7.5h-410z" />
    <glyph glyph-name="greater" unicode="&#x3e;" horiz-adv-x="620" 
d="M560 324l-465 -212q-12 -6 -23 -6q-20 0 -20 22q0 16 19 25l451 203l-332 199q-15 8 -15 23q0 10 6.5 17t16.5 7q9 0 19 -6l351 -211q19 -12 19 -27v-1q0 -22 -27 -33z" />
    <glyph glyph-name="question" unicode="?" horiz-adv-x="534" 
d="M144 585q-12 -10 -21 -10q-10 0 -16.5 6.5t-6.5 15.5q0 10 8 18q98 94 225 94q92 0 146.5 -49t54.5 -126q0 -94 -75 -152t-190 -74l-39 -114q-5 -15 -17 -15h-1q-8 0 -12.5 6t-2.5 16l24 126q3 21 24 24q106 11 171 58.5t65 123.5q0 61 -43 95t-109 34q-99 0 -185 -77z
M209 58l-10 -38q-6 -24 -36 -24q-14 0 -22.5 8.5t-5.5 21.5l10 37q8 26 36 26q14 0 22.5 -9t5.5 -22z" />
    <glyph glyph-name="at" unicode="@" horiz-adv-x="980" 
d="M445 118q76 0 141 64.5t65 142.5q0 57 -35 93.5t-93 36.5q-78 0 -133.5 -64t-55.5 -152q0 -56 31 -88.5t80 -32.5zM695 -118q-95 -43 -209 -43q-191 0 -305.5 107.5t-114.5 284.5q0 127 66 238t179.5 177t245.5 66q181 0 286 -100t105 -253q0 -132 -65 -209t-141 -77
q-52 0 -83 26.5t-38 73.5q-79 -102 -186 -102q-67 0 -112 45.5t-45 120.5q0 107 75 186t168 79q60 0 98.5 -30.5t55.5 -77.5l25 82q7 21 25 21q13 0 19.5 -9.5t2.5 -24.5l-70 -226q-16 -54 2 -90.5t68 -36.5q59 0 112.5 66t53.5 183q0 138 -96 229.5t-260 91.5
q-186 0 -321 -134t-135 -315q0 -162 105.5 -261t279.5 -99q107 0 195 40q6 3 12 3q15 0 15 -16q0 -10 -13 -16z" />
    <glyph glyph-name="A" unicode="A" horiz-adv-x="741" 
d="M200 243h369l-75 405zM536 682l125 -646q2 -8 2 -16q0 -9 -7 -16.5t-18 -7.5q-22 0 -27 25l-32 175h-413l-131 -181q-15 -19 -28 -19q-9 0 -15.5 6t-6.5 17q0 9 6 15l473 648q19 25 39 25h2q26 0 31 -25z" />
    <glyph glyph-name="B" unicode="B" horiz-adv-x="717" 
d="M189 377h216q106 0 170 44t64 115q0 57 -42.5 86.5t-118.5 29.5h-215zM101 48h253q109 0 172 42t63 116q0 59 -51 91t-134 32h-228zM351 0h-286q-11 0 -18 8t-4 18l174 648q3 11 11.5 18.5t18.5 7.5h236q96 0 153 -42.5t57 -116.5t-52 -123.5t-133 -65.5q60 -16 97 -52
t37 -94q0 -91 -79 -148.5t-212 -57.5z" />
    <glyph glyph-name="C" unicode="C" horiz-adv-x="738" 
d="M639 92q-112 -105 -261 -105q-120 0 -203 77.5t-83 206.5q0 112 55.5 214t153 164.5t209.5 62.5q82 0 144.5 -34t97.5 -91q7 -12 7 -22q-1 -10 -8 -17t-18 -6q-14 0 -21 11q-34 53 -81.5 82.5t-123.5 29.5q-148 0 -254.5 -120t-106.5 -272q0 -109 66.5 -173.5
t170.5 -64.5q125 0 223 92q9 9 19 9t17 -7t7 -17t-10 -20z" />
    <glyph glyph-name="D" unicode="D" horiz-adv-x="771" 
d="M101 48h171q190 0 310 120q94 94 94 234q0 108 -65 171q-79 79 -233 79h-115zM247 700h134q178 0 272 -94q77 -77 77 -200q0 -162 -109 -271q-64 -64 -156.5 -99.5t-199.5 -35.5h-200q-11 0 -18 8t-4 18l174 648q3 11 11.5 18.5t18.5 7.5z" />
    <glyph glyph-name="E" unicode="E" horiz-adv-x="649" 
d="M520 0h-455q-11 0 -18 8t-4 18l174 648q3 11 11.5 18.5t18.5 7.5h443q10 0 17 -7t7 -17t-7 -17t-17 -7h-427l-74 -275h369q10 0 17 -7t7 -17t-7 -17t-17 -7h-382l-75 -281h419q10 0 17 -7t7 -17t-7 -17t-17 -7z" />
    <glyph glyph-name="F" unicode="F" horiz-adv-x="656" 
d="M247 700h443q10 0 17 -7t7 -17t-7 -17t-17 -7h-427l-77 -287h369q10 0 17 -7t7 -17t-7 -17t-17 -7h-382l-79 -295q-3 -11 -11.5 -18.5t-18.5 -7.5q-11 0 -18 8t-4 18l175 652q3 11 11.5 18.5t18.5 7.5z" />
    <glyph glyph-name="G" unicode="G" horiz-adv-x="786" 
d="M721 335l-72 -252q-6 -22 -25 -33q-110 -63 -228 -63q-132 0 -217 81t-85 214q0 108 55 206.5t154.5 161t217.5 62.5q155 0 238 -104q10 -12 10 -22t-6.5 -17.5t-17.5 -7.5q-13 0 -21 11q-65 93 -208 93q-102 0 -188 -56t-133 -143t-47 -182q0 -116 69 -183t182 -67
q116 0 202 57l64 224h-209q-10 0 -17 7t-7 17t7 17t17 7h242q12 0 19 -9t4 -19z" />
    <glyph glyph-name="H" unicode="H" horiz-adv-x="756" 
d="M764 674l-176 -655q-6 -23 -28 -23q-11 0 -18.5 8.5t-3.5 21.5l81 302h-443l-83 -309q-6 -23 -28 -23q-11 0 -18.5 8.5t-3.5 21.5l176 655q6 23 28 23q11 0 18.5 -8.5t3.5 -21.5l-80 -298h443l82 305q6 23 28 23q11 0 18.5 -8.5t3.5 -21.5z" />
    <glyph glyph-name="I" unicode="I" horiz-adv-x="274" 
d="M276 674l-176 -655q-6 -23 -28 -23q-11 0 -18.5 8.5t-3.5 21.5l176 655q6 23 28 23q11 0 18.5 -8.5t3.5 -21.5z" />
    <glyph glyph-name="J" unicode="J" horiz-adv-x="538" 
d="M567 674l-118 -439q-31 -117 -93 -179q-66 -66 -160 -66q-140 0 -194 136q-3 8 -3 17q0 10 7 17t17 7q18 0 25 -20q39 -110 146 -110q75 0 127 52q50 50 78 153l118 439q6 23 28 23q11 0 18.5 -8.5t3.5 -21.5z" />
    <glyph glyph-name="K" unicode="K" horiz-adv-x="714" 
d="M135 175l-42 -156q-6 -23 -28 -23q-11 0 -18.5 8.5t-3.5 21.5l176 655q6 23 28 23q11 0 18.5 -8.5t3.5 -21.5l-115 -429l554 450q11 9 22 9q10 0 16.5 -6.5t6.5 -16.5q0 -12 -12 -21l-339 -273l190 -347q6 -11 6 -19q0 -11 -7 -18t-18 -7q-17 0 -27 18l-187 343z" />
    <glyph glyph-name="L" unicode="L" horiz-adv-x="600" 
d="M485 0h-420q-11 0 -18 8t-4 18l176 655q6 23 28 23q11 0 18.5 -8.5t3.5 -21.5l-168 -626h384q10 0 17 -7t7 -17t-7 -17t-17 -7z" />
    <glyph glyph-name="M" unicode="M" horiz-adv-x="869" 
d="M852 703h1q14 0 20.5 -9t2.5 -23l-175 -652q-6 -23 -29 -23q-11 0 -18 8t-3 22l156 582l-356 -373q-14 -14 -25 -14q-15 0 -21 15l-156 372l-157 -588q-6 -24 -28 -24q-11 0 -18 8t-3 22l174 648q8 29 29 29h1q19 0 27 -20l163 -397l375 396q20 21 40 21z" />
    <glyph glyph-name="N" unicode="N" horiz-adv-x="786" 
d="M587 87l160 594q6 23 27 23q11 0 18 -8t3 -22l-176 -655q-6 -22 -24 -22h-1q-16 0 -27 21l-313 608l-163 -607q-6 -23 -27 -23q-11 0 -18 8t-3 22l175 651q7 26 30 26h2q20 0 34 -26z" />
    <glyph glyph-name="O" unicode="O" horiz-adv-x="846" 
d="M398 -13q-131 0 -216.5 86.5t-85.5 214.5q0 108 53.5 206t147 158t202.5 60q131 0 216.5 -86.5t85.5 -214.5q0 -108 -53.5 -206t-147 -158t-202.5 -60zM398 34q96 0 177 54t126.5 140.5t45.5 182.5q0 109 -69 181.5t-179 72.5q-96 0 -177 -54t-126.5 -140.5t-45.5 -182.5
q0 -109 69 -181.5t179 -72.5z" />
    <glyph glyph-name="P" unicode="P" horiz-adv-x="663" 
d="M159 262l-66 -243q-6 -23 -28 -23q-11 0 -18.5 8.5t-3.5 21.5l174 648q3 11 11.5 18.5t18.5 7.5h195q130 0 193 -63q48 -48 48 -125q0 -118 -93 -184t-253 -66h-178zM171 309h168q141 0 216.5 52.5t75.5 148.5q0 57 -36 93q-49 49 -154 49h-178z" />
    <glyph glyph-name="Q" unicode="Q" horiz-adv-x="846" 
d="M523 243l100 -117q58 54 91 129.5t33 155.5q0 109 -69 181.5t-179 72.5q-96 0 -177 -54t-126.5 -140.5t-45.5 -182.5q0 -109 69 -181.5t179 -72.5q103 0 190 63l-98 109q-13 15 -13 24q0 25 24 25q12 0 22 -12zM677 -6l-57 67q-103 -74 -222 -74q-131 0 -216.5 86.5
t-85.5 214.5q0 108 53.5 206t147 158t202.5 60q131 0 216.5 -86.5t85.5 -214.5q0 -90 -39 -175t-107 -146l57 -62q12 -14 12 -23q0 -23 -24 -23q-13 0 -23 12z" />
    <glyph glyph-name="R" unicode="R" horiz-adv-x="713" 
d="M166 290l-73 -271q-6 -23 -28 -23q-11 0 -18.5 8.5t-3.5 21.5l174 648q3 11 11.5 18.5t18.5 7.5h228q126 0 188 -62q44 -44 44 -114q0 -84 -62 -146q-68 -68 -206 -83l132 -253q7 -13 7 -22q0 -10 -7.5 -17t-18.5 -7q-17 0 -25 16l-144 278h-217zM178 337h210
q149 0 220 71q47 47 47 113q0 52 -31 83q-48 48 -151 48h-210z" />
    <glyph glyph-name="S" unicode="S" horiz-adv-x="638" 
d="M304 37q86 0 144 43.5t58 109.5q0 46 -34 77t-119 64q-111 43 -155.5 83t-44.5 103q0 81 70 137t181 56q132 0 224 -86q11 -11 11 -22q0 -10 -7.5 -17.5t-17.5 -7.5q-12 0 -22 10q-76 76 -193 76q-87 0 -140 -42t-53 -100q0 -47 38 -77.5t129 -65.5q100 -38 143 -79.5
t43 -104.5q0 -86 -74 -145t-186 -59q-165 0 -263 113q-10 13 -10 22q0 11 7 18t17 7q13 0 22 -12q87 -101 232 -101z" />
    <glyph glyph-name="T" unicode="T" horiz-adv-x="615" 
d="M436 652l-170 -633q-6 -23 -28 -23q-11 0 -18.5 8.5t-3.5 21.5l168 626h-217q-10 0 -17 7t-7 17t7 17t17 7h499q10 0 17 -7t7 -17t-7 -17t-17 -7h-230z" />
    <glyph glyph-name="U" unicode="U" horiz-adv-x="756" 
d="M775 674l-105 -391q-35 -130 -111 -206q-88 -88 -211 -88q-122 0 -187 61t-65 159q0 54 14 108l97 364q6 23 28 23q11 0 18.5 -8.5t3.5 -21.5l-101 -381q-9 -36 -9 -80q0 -79 52 -128t153 -49q99 0 171 72q65 65 98 186l104 387q6 23 28 23q11 0 18.5 -8.5t3.5 -21.5z
" />
    <glyph glyph-name="V" unicode="V" horiz-adv-x="714" 
d="M774 663l-452 -644q-18 -26 -38 -26h-2q-23 0 -27 26l-107 645q-2 10 -2 16q0 10 7.5 17t18.5 7q24 0 27 -25l96 -623l436 629q13 19 29 19q22 0 22 -20q0 -10 -8 -21z" />
    <glyph glyph-name="W" unicode="W" horiz-adv-x="1074" 
d="M1130 665l-407 -647q-6 -10 -9 -13.5t-9.5 -8t-14.5 -4.5h-2q-21 0 -23 26l-40 585l-354 -585q-15 -26 -33 -26h-2q-21 0 -23 26l-60 646q0 1 -0.5 6.5t-0.5 7.5q0 11 8 18.5t19 7.5q25 0 27 -27l51 -600l363 610q10 17 27 17h1q20 0 22 -21l37 -606l377 607q12 20 31 20
q9 0 15 -6t6 -14q0 -10 -6 -19z" />
    <glyph glyph-name="X" unicode="X" horiz-adv-x="692" 
d="M405 353l170 -313q7 -14 7 -22q0 -9 -7 -15.5t-17 -6.5q-16 0 -23 15l-167 312l-313 -312q-15 -15 -27 -15q-10 0 -16 6t-6 15q0 11 10 21l327 324l-164 298q-7 14 -7 22q0 9 7 15.5t17 6.5q16 0 23 -15l161 -297l299 297q15 15 27 15q10 0 16 -6t6 -15q0 -11 -10 -21z
" />
    <glyph glyph-name="Y" unicode="Y" horiz-adv-x="668" 
d="M358 271l-67 -252q-6 -23 -28 -23q-11 0 -18.5 8.5t-3.5 21.5l69 258l-166 377q-4 9 -4 18q0 11 7 18t18 7q17 0 27 -23l153 -357l354 366q14 14 28 14q9 0 16 -6.5t7 -15.5q0 -12 -12 -24z" />
    <glyph glyph-name="Z" unicode="Z" horiz-adv-x="662" 
d="M5 45l620 608h-425q-10 0 -17 6.5t-7 16.5t7 17t17 7h489q20 0 20 -17v-1q0 -13 -14 -27l-620 -608h445q10 0 17 -6.5t7 -16.5t-7 -17t-17 -7h-509q-20 0 -20 17v1q0 13 14 27z" />
    <glyph glyph-name="bracketleft" unicode="[" horiz-adv-x="430" 
d="M491 662h-217l-202 -754h207q7 0 13 -6t6 -13t-6 -13t-13 -6h-231q-14 0 -21 8.5t-3 21.5l208 774q6 26 34 26h225q7 0 13 -6t6 -13t-6 -13t-13 -6z" />
    <glyph glyph-name="backslash" unicode="\" horiz-adv-x="500" 
d="M195 781l210 -879q2 -8 2 -13q0 -9 -6 -15t-15 -6q-18 0 -22 21l-210 879q-2 8 -2 13q0 9 6 15t15 6q18 0 22 -21z" />
    <glyph glyph-name="bracketright" unicode="]" horiz-adv-x="430" 
d="M179 -130h-225q-8 0 -13.5 6t-5.5 13t5.5 13t13.5 6h217l202 754h-207q-8 0 -13.5 6t-5.5 13t5.5 13t13.5 6h231q14 0 21 -8.5t3 -21.5l-208 -774q-7 -26 -34 -26z" />
    <glyph glyph-name="asciicircum" unicode="^" horiz-adv-x="500" 
d="M154 517l175 172q18 18 34 18h4q19 0 27 -18l85 -176q4 -8 4 -12q0 -12 -17 -12q-22 0 -30 16l-77 155l-162 -156q-16 -15 -37 -15q-15 0 -15 12q0 7 9 16z" />
    <glyph glyph-name="underscore" unicode="_" horiz-adv-x="600" 
d="M-107 -160q-9 0 -15.5 6.5t-6.5 15.5t6.5 15.5t15.5 6.5h604q9 0 15.5 -6.5t6.5 -15.5t-6.5 -15.5t-15.5 -6.5h-604z" />
    <glyph glyph-name="grave" unicode="`" horiz-adv-x="500" 
d="M361 604l-61 80q-7 8 -7 16t12.5 15.5t26.5 7.5q21 0 28 -18l36 -92q3 -9 3 -12q0 -9 -13 -9q-16 0 -25 12z" />
    <glyph glyph-name="a" unicode="a" horiz-adv-x="571" 
d="M199 33q75 0 141.5 47.5t86.5 122.5l12 45q-96 24 -193 24q-76 0 -123.5 -37.5t-47.5 -97.5q0 -47 33.5 -75.5t90.5 -28.5zM398 -4q-11 0 -17 8t-3 20l17 64q-84 -100 -205 -100q-69 0 -118 37.5t-49 105.5q0 84 64 134.5t166 50.5q90 0 196 -29l4 14q7 26 7 51
q0 58 -39.5 89t-114.5 31q-66 0 -129 -21q-8 -2 -13 -2q-20 0 -20 22q0 17 19 23q72 24 147 24q93 0 145.5 -42.5t52.5 -116.5q0 -29 -10 -67l-73 -273q-6 -23 -27 -23z" />
    <glyph glyph-name="b" unicode="b" 
d="M312 -13q-79 0 -130 40.5t-73 102.5l-30 -111q-6 -23 -27 -23q-11 0 -17 8t-3 20l184 687q6 23 27 23q11 0 17 -8t3 -20l-80 -296q94 112 212 112q89 0 147 -60.5t58 -154.5q0 -134 -86 -227t-202 -93zM310 33q101 0 169 80t68 188q0 78 -44 126.5t-114 48.5
q-96 0 -175.5 -82t-79.5 -183q0 -75 49.5 -126.5t126.5 -51.5z" />
    <glyph glyph-name="c" unicode="c" horiz-adv-x="563" 
d="M459 62q-86 -74 -187 -74q-89 0 -155.5 60t-66.5 160q0 126 89.5 220t210.5 94q123 0 188 -101q7 -10 7 -20q0 -9 -6.5 -15.5t-15.5 -6.5q-15 0 -24 13q-57 84 -152 84q-97 0 -170.5 -80t-73.5 -185q0 -82 50.5 -129.5t121.5 -47.5q80 0 153 62q8 7 19 7q9 0 15 -6.5
t6 -15.5q0 -10 -9 -19z" />
    <glyph glyph-name="d" unicode="d" 
d="M265 33q96 0 175.5 82t79.5 183q0 75 -49.5 126.5t-126.5 51.5q-101 0 -169 -80t-68 -188q0 -78 44 -126.5t114 -48.5zM471 -4q-11 0 -17 8t-3 20l19 75q-94 -112 -211 -112q-89 0 -147 60.5t-58 154.5q0 134 86 227t202 93q79 0 130 -40.5t73 -102.5l89 332q6 23 27 23
q11 0 17 -8t3 -20l-183 -687q-6 -23 -27 -23z" />
    <glyph glyph-name="e" unicode="e" horiz-adv-x="583" 
d="M114 282h370q4 18 4 42q0 66 -36.5 109.5t-107.5 43.5q-82 0 -144.5 -56t-85.5 -139zM272 34q90 0 161 58q9 7 19 7q9 0 15 -6t6 -15q0 -12 -10 -20q-83 -70 -191 -70q-98 0 -160 60t-62 154q0 123 87 221.5t208 98.5q92 0 142.5 -56t50.5 -139q0 -33 -7 -66
q-5 -23 -30 -23h-396q-2 -22 -2 -34q0 -77 47 -123.5t122 -46.5z" />
    <glyph glyph-name="f" unicode="f" horiz-adv-x="362" 
d="M229 465l-120 -446q-6 -23 -27 -23q-11 0 -17 8t-3 20l118 441h-48q-10 0 -16.5 6.5t-6.5 16.5q0 9 7 15.5t16 6.5h60l20 74q39 146 163 146q44 0 82 -15q20 -8 20 -25q0 -11 -9.5 -18t-22.5 -1q-37 15 -72 15q-86 0 -115 -113l-17 -63h158q10 0 16.5 -6.5t6.5 -16.5
q0 -9 -7 -15.5t-16 -6.5h-170z" />
    <glyph glyph-name="g" unicode="g" 
d="M282 84q95 0 169.5 70.5t74.5 157.5q0 65 -49.5 114t-129.5 49q-93 0 -163.5 -67t-70.5 -169q0 -73 50 -114t119 -41zM548 386l28 105q6 23 27 23q11 0 17 -8t3 -20l-112 -423q-27 -99 -80 -152q-73 -73 -195 -73q-127 0 -226 82q-11 9 -11 23q0 9 6.5 16t16.5 7
q11 0 20 -7q88 -75 196 -75q100 0 157 57q45 45 70 134l18 64q-95 -101 -210 -101q-86 0 -149.5 54.5t-63.5 143.5q0 123 88 204.5t201 81.5q140 0 199 -136z" />
    <glyph glyph-name="h" unicode="h" horiz-adv-x="609" 
d="M534 288l-71 -269q-6 -23 -27 -23q-11 0 -17 8t-3 20l71 268q8 30 8 63q0 57 -35 90t-96 33q-67 0 -129 -54t-84 -136l-72 -269q-6 -23 -27 -23q-11 0 -17 8t-3 20l184 687q6 23 27 23q11 0 17 -8t3 -20l-78 -291q89 107 193 107q76 0 121.5 -44.5t45.5 -117.5
q0 -28 -11 -72z" />
    <glyph glyph-name="i" unicode="i" horiz-adv-x="250" 
d="M265 661q-6 -23 -34 -23q-14 0 -21.5 8t-4.5 20l7 26q6 23 34 23q14 0 21.5 -8t4.5 -20zM211 486l-125 -467q-6 -23 -27 -23q-11 0 -17 8t-3 20l125 467q6 23 27 23q11 0 17 -8t3 -20z" />
    <glyph glyph-name="j" unicode="j" horiz-adv-x="249" 
d="M211 486l-144 -538q-14 -53 -45 -82t-74 -29q-63 0 -63 27q0 12 8 18t21 4q21 -3 31 -3q55 0 74 69l145 539q6 23 27 23q11 0 17 -8t3 -20zM265 661q-6 -23 -34 -23q-14 0 -21.5 8t-4.5 20l7 26q6 23 34 23q14 0 21.5 -8t4.5 -20z" />
    <glyph glyph-name="k" unicode="k" horiz-adv-x="560" 
d="M263 706l-138 -517l391 317q10 8 21 8q21 0 21 -20q0 -12 -11 -20l-239 -192l131 -243q7 -12 7 -19q0 -10 -7 -17t-18 -7q-16 0 -25 17l-129 239l-160 -128l-28 -105q-6 -23 -27 -23q-11 0 -17 8t-3 20l184 687q6 23 27 23q11 0 17 -8t3 -20z" />
    <glyph glyph-name="l" unicode="l" horiz-adv-x="250" 
d="M270 706l-184 -687q-6 -23 -27 -23q-11 0 -17 8t-3 20l184 687q6 23 27 23q11 0 17 -8t3 -20z" />
    <glyph glyph-name="m" unicode="m" horiz-adv-x="951" 
d="M396 24l71 268q8 30 8 63q0 56 -33 89.5t-88 33.5q-62 0 -122 -54.5t-81 -135.5l-72 -269q-6 -23 -27 -23q-11 0 -17 8t-3 20l124 467q6 23 27 23q11 0 17 -8t3 -20l-18 -71q43 53 84.5 80t98.5 27q64 0 102 -36.5t47 -88.5q76 125 214 125q69 0 114 -45.5t45 -116.5
q0 -20 -13 -72l-71 -269q-6 -23 -27 -23q-11 0 -17 8t-3 20l71 268q8 30 8 63q0 56 -33 89.5t-88 33.5q-62 0 -122 -54.5t-81 -135.5l-71 -269q-6 -23 -27 -23q-11 0 -17 8t-3 20z" />
    <glyph glyph-name="n" unicode="n" horiz-adv-x="611" 
d="M183 514q11 0 17 -8t3 -20l-18 -71q89 107 193 107q76 0 121.5 -44.5t45.5 -117.5q0 -28 -11 -72l-71 -269q-6 -23 -27 -23q-11 0 -17 8t-3 20l71 268q8 30 8 63q0 57 -35 90t-96 33q-67 0 -129 -54t-84 -136l-72 -269q-6 -23 -27 -23q-11 0 -17 8t-3 20l124 467
q6 23 27 23z" />
    <glyph glyph-name="o" unicode="o" horiz-adv-x="633" 
d="M278 -12q-101 0 -164 63.5t-63 162.5q0 122 91 215t212 93q101 0 164 -63.5t63 -162.5q0 -124 -92 -216t-211 -92zM283 34q95 0 170 78t75 182q0 85 -49 133.5t-130 48.5q-97 0 -171 -79t-74 -181q0 -85 49 -133.5t130 -48.5z" />
    <glyph glyph-name="p" unicode="p" 
d="M389 476q-96 0 -175.5 -82t-79.5 -183q0 -75 49.5 -126.5t126.5 -51.5q101 0 169 80t68 188q0 78 -44 126.5t-114 48.5zM183 514q11 0 17 -8t3 -20l-20 -76q94 112 212 112q89 0 147 -60.5t58 -154.5q0 -134 -86 -227t-202 -93q-79 0 -130 40.5t-73 102.5l-73 -271
q-6 -23 -27 -23q-11 0 -17 8t-3 20l167 627q6 23 27 23z" />
    <glyph glyph-name="q" unicode="q" 
d="M342 522q80 0 130.5 -40.5t72.5 -101.5l30 111q6 23 27 23q11 0 17 -8t3 -20l-167 -627q-6 -23 -27 -23q-11 0 -17 8t-3 20l63 236q-94 -113 -212 -113q-89 0 -147 60.5t-58 154.5q0 134 86 227t202 93zM344 476q-101 0 -169 -80t-68 -188q0 -78 44 -126.5t114 -48.5
q96 0 175.5 82.5t79.5 183.5q0 75 -49.5 126t-126.5 51z" />
    <glyph glyph-name="r" unicode="r" horiz-adv-x="396" 
d="M203 486l-31 -121q46 69 110 111t123 42q26 0 26 -25q0 -27 -36 -30q-86 -8 -160.5 -75t-104.5 -179l-51 -190q-6 -23 -27 -23q-11 0 -17 8t-3 20l124 467q6 23 27 23q11 0 17 -8t3 -20z" />
    <glyph glyph-name="s" unicode="s" horiz-adv-x="495" 
d="M223 34q51 0 91.5 28.5t40.5 72.5q0 31 -23.5 54t-87.5 47q-76 28 -109.5 58.5t-33.5 78.5q0 62 52.5 105t136.5 43q44 0 91 -16.5t75 -37.5q13 -10 13 -23q0 -10 -6.5 -16.5t-16.5 -6.5q-8 0 -16 5q-72 50 -145 50q-61 0 -96.5 -28t-35.5 -67q0 -31 23 -52t92 -48
q76 -30 107.5 -61t31.5 -77q0 -66 -56 -110t-134 -44q-111 0 -199 72q-12 10 -12 23q0 10 6.5 17t16.5 7q9 0 22 -10q77 -64 172 -64z" />
    <glyph glyph-name="t" unicode="t" horiz-adv-x="396" 
d="M189 510l39 144q6 23 27 23q11 0 17 -8t3 -20l-37 -139h150q10 0 16.5 -6.5t6.5 -16.5q0 -9 -7 -15.5t-16 -6.5h-162l-87 -325q-5 -22 -5 -43q0 -61 83 -61q22 0 41 6q14 4 22.5 -1t8.5 -17q0 -15 -20 -23q-28 -10 -63 -10q-54 0 -88 25.5t-34 75.5q0 23 6 49l87 324h-48
q-10 0 -16.5 6.5t-6.5 16.5q0 9 7 15.5t16 6.5h60z" />
    <glyph glyph-name="u" unicode="u" horiz-adv-x="609" 
d="M426 -4q-11 0 -17 8t-3 20l18 71q-89 -107 -193 -107q-76 0 -121.5 44.5t-45.5 117.5q0 28 11 72l71 269q6 23 27 23q11 0 17 -8t3 -20l-71 -268q-8 -30 -8 -63q0 -57 35 -90t96 -33q67 0 129 54t84 136l72 269q6 23 27 23q11 0 17 -8t3 -20l-124 -467q-6 -23 -27 -23z
" />
    <glyph glyph-name="v" unicode="v" horiz-adv-x="557" 
d="M558 472l-324 -458q-15 -21 -31 -21h-2q-21 0 -25 21l-80 456q-2 10 -2 19q0 11 7 18t18 7q23 0 26 -26l68 -433l302 439q13 20 28 20q10 0 16 -6.5t6 -14.5q0 -11 -7 -21z" />
    <glyph glyph-name="w" unicode="w" horiz-adv-x="845" 
d="M146 21l-44 452q0 1 -0.5 6.5t-0.5 7.5q0 27 26 27q22 0 24 -27l35 -421l263 430q12 18 28 18h1q20 0 22 -22l33 -426l266 429q11 19 26 19q21 0 21 -20q0 -9 -6 -19l-292 -462q-12 -20 -29 -20h-1q-23 0 -26 28l-33 412l-259 -419q-12 -21 -29 -21h-1q-22 0 -24 28z" />
    <glyph glyph-name="x" unicode="x" horiz-adv-x="559" 
d="M183 496l105 -201l211 203q16 16 28 16q9 0 15 -6t6 -15q0 -11 -12 -22l-226 -211l119 -220q7 -14 7 -22q0 -9 -7 -15.5t-17 -6.5q-15 0 -24 18l-111 215l-227 -217q-16 -16 -28 -16q-9 0 -15 6t-6 15q0 11 12 22l242 225l-113 206q-7 14 -7 22q0 9 7 15.5t17 6.5
q15 0 24 -18z" />
    <glyph glyph-name="y" unicode="y" horiz-adv-x="568" 
d="M-46 -98q40 -19 72 -19q40 0 78.5 27.5t84.5 92.5l-96 468q-2 10 -2 18q0 25 24 25q21 0 26 -26l85 -434l296 440q13 20 29 20q22 0 22 -21q0 -10 -6 -19l-338 -492q-54 -78 -103.5 -111.5t-105.5 -33.5q-46 0 -91 24q-14 7 -14 22q0 10 6.5 16.5t16.5 6.5q8 0 16 -4z
" />
    <glyph glyph-name="z" unicode="z" horiz-adv-x="546" 
d="M147 510h380q21 0 21 -18v-1q0 -10 -10 -20l-463 -427h336q9 0 15.5 -6.5t6.5 -15.5t-6.5 -15.5t-15.5 -6.5h-397q-21 0 -21 18v1q0 10 10 20l463 427h-319q-9 0 -15.5 6.5t-6.5 15.5t6.5 15.5t15.5 6.5z" />
    <glyph glyph-name="braceleft" unicode="{" horiz-adv-x="480" 
d="M89 306h12q77 0 112.5 40.5t56.5 143.5q21 106 76.5 159.5t178.5 64.5q22 2 22 -18q0 -17 -20 -19q-99 -8 -145.5 -54t-63.5 -138q-20 -103 -53.5 -146t-99.5 -54q69 -21 69 -83q0 -27 -9 -57q-22 -75 -22 -115q0 -100 107 -135q16 -6 16 -17q0 -9 -7 -14.5t-19 -1.5
q-146 38 -146 164q0 36 23 120q9 32 9 55q0 67 -95 67h-2q-24 0 -24 19t24 19z" />
    <glyph glyph-name="bar" unicode="|" horiz-adv-x="286" 
d="M141 -110v890q0 9 6.5 15.5t15.5 6.5t15.5 -6.5t6.5 -15.5v-890q0 -9 -6.5 -15.5t-15.5 -6.5t-15.5 6.5t-6.5 15.5z" />
    <glyph glyph-name="braceright" unicode="}" horiz-adv-x="480" 
d="M408 268h-12q-77 0 -112.5 -40.5t-56.5 -143.5q-21 -106 -76.5 -159.5t-178.5 -64.5q-22 -2 -22 18q0 17 20 19q99 8 145.5 54t63.5 138q20 103 53.5 146t99.5 54q-69 21 -69 83q0 27 9 57q22 75 22 115q0 100 -107 135q-16 6 -16 17q0 9 7 14.5t19 1.5q146 -38 146 -164
q0 -36 -23 -120q-9 -32 -9 -55q0 -67 95 -67h2q24 0 24 -19t-24 -19z" />
    <glyph glyph-name="asciitilde" unicode="~" horiz-adv-x="460" 
d="M112 242q-21 0 -21 18q0 10 7 21q21 36 41.5 55.5t51.5 19.5q20 0 33.5 -8t33.5 -27q31 -30 48 -30q23 0 52 48q9 15 20 15q21 0 21 -18q0 -10 -7 -21q-21 -36 -41.5 -55.5t-51.5 -19.5q-20 0 -33.5 8t-33.5 27q-31 30 -48 30q-23 0 -52 -48q-9 -15 -20 -15z" />
    <glyph glyph-name="uni00A0" unicode="&#xa0;" horiz-adv-x="300" 
 />
    <glyph glyph-name="exclamdown" unicode="&#xa1;" horiz-adv-x="251" 
d="M34 25l145 482q4 13 15 13q17 0 12 -20l-114 -481q-5 -22 -29 -22h-8q-12 0 -18.5 7.5t-2.5 20.5zM271 674l-10 -37q-8 -26 -36 -26q-14 0 -22.5 9t-5.5 22l10 38q6 24 36 24q14 0 22.5 -8.5t5.5 -21.5z" />
    <glyph glyph-name="cent" unicode="&#xa2;" horiz-adv-x="558" 
d="M499 163q-85 -76 -203 -76q-22 0 -47 5l-31 -78q-10 -24 -28 -24q-12 0 -18 9.5t-1 21.5l33 84q-59 25 -94 78t-35 120q0 130 90 224t215 94q18 0 27 -1l26 66q10 24 27 24q13 0 19 -9t1 -22l-27 -67q80 -19 124 -92q6 -10 6 -17q0 -11 -7 -17.5t-16 -6.5q-14 0 -22 12
q-21 32 -44 49.5t-61 28.5l-170 -433q17 -3 36 -3q90 0 169 64q8 6 17 6t15.5 -7t6.5 -16t-8 -17zM128 304q0 -54 25 -95.5t70 -60.5l168 427h-14q-103 0 -176 -80t-73 -191z" />
    <glyph glyph-name="sterling" unicode="&#xa3;" horiz-adv-x="624" 
d="M454 660q-71 0 -121 -50q-46 -46 -70 -135l-33 -122h271q10 0 17 -7t7 -17t-7 -17t-17 -7h-284l-69 -258h347q10 0 17 -7t7 -17t-7 -16.5t-17 -6.5h-484q-13 0 -13 13q0 11 12 14l86 18l70 260h-59q-10 0 -17 7t-7 17t7 17t17 7h72l35 131q27 102 80 155q68 68 163 68
q107 0 170 -84q10 -15 10 -23q0 -11 -7.5 -18.5t-17.5 -7.5q-14 0 -21 11q-27 38 -58.5 56.5t-78.5 18.5z" />
    <glyph glyph-name="yen" unicode="&#xa5;" horiz-adv-x="700" 
d="M364 324l354 366q14 14 27 14q9 0 15.5 -6t6.5 -16t-11 -23l-340 -346h159q9 0 16 -7t7 -16t-7 -15.5t-16 -6.5h-201l-26 -98h189q9 0 16 -6.5t7 -16.5q0 -9 -7 -15.5t-16 -6.5h-201l-28 -106q-6 -23 -28 -23q-11 0 -18.5 8.5t-3.5 21.5l26 99h-185q-9 0 -16 6.5t-7 15.5
q0 10 7 16.5t16 6.5h197l26 98h-185q-9 0 -16 6.5t-7 15.5t7 16t16 7h177l-153 349q-4 9 -4 18q0 10 7 17t18 7q19 0 29 -23z" />
    <glyph glyph-name="section" unicode="&#xa7;" horiz-adv-x="632" 
d="M392 245q62 0 104 26t42 63q0 29 -30.5 52t-102.5 48q-62 21 -117 21q-62 0 -104 -26t-42 -63q0 -29 30.5 -52t102.5 -48q60 -21 117 -21zM295 35q52 0 87 21.5t35 56.5q0 31 -32 54t-107 49q-100 35 -144 67t-44 79q0 58 56 93t142 35q-77 34 -77 96q0 57 52 90.5
t129 33.5q57 0 113 -20t93 -49q12 -9 12 -22q0 -11 -7 -18.5t-17 -7.5q-9 0 -19 8q-80 64 -182 64q-52 0 -87 -21.5t-35 -56.5q0 -31 32 -54t107 -49q100 -35 144 -67t44 -79q0 -58 -56 -93t-142 -35q77 -34 77 -96q0 -57 -52 -90.5t-129 -33.5q-116 0 -207 69q-12 9 -12 22
q0 11 7 18.5t17 7.5q9 0 19 -8q79 -64 183 -64z" />
    <glyph glyph-name="dieresis" unicode="&#xa8;" horiz-adv-x="500" 
d="M287 616q-8 -27 -37 -27q-15 0 -23.5 9.5t-5.5 23.5l9 33q8 27 37 27q15 0 24 -10t5 -23zM450 616q-8 -27 -37 -27q-15 0 -23.5 9.5t-5.5 23.5l9 33q8 27 37 27q15 0 24 -10t5 -23z" />
    <glyph glyph-name="copyright" unicode="&#xa9;" horiz-adv-x="830" 
d="M439 -12q-151 0 -256 106t-105 255t106 256t257 107t256 -106t105 -255t-106 -256t-257 -107zM439 16q141 0 237 98t96 237t-95 236t-236 97t-237 -98t-96 -237t95 -236t236 -97zM444 166q-77 0 -129.5 55t-52.5 133v2q0 77 53 133t130 56q72 0 129 -50q9 -7 9 -18
q0 -9 -6.5 -15t-15.5 -6q-7 0 -16 7q-49 42 -101 42q-59 0 -98.5 -43.5t-39.5 -104.5v-2q0 -61 40.5 -105t98.5 -44q56 0 105 43q8 6 15 6q19 0 19 -19q0 -9 -8 -17q-58 -53 -132 -53z" />
    <glyph glyph-name="ordfeminine" unicode="&#xaa;" horiz-adv-x="390" 
d="M201 442q38 0 75 27.5t47 64.5l4 14q-50 12 -90 12q-39 0 -64 -20t-25 -51q0 -21 14.5 -34t38.5 -13zM262 667q-34 0 -62 -9q-9 -3 -15 -3q-16 0 -16 18q0 13 15 17q40 14 85 14q53 0 82 -23.5t29 -64.5q0 -13 -6 -39l-39 -146q-5 -19 -22 -19q-22 0 -17 22l9 32
q-51 -56 -114 -56q-36 0 -60.5 20.5t-24.5 54.5q0 48 36.5 77t94.5 29q39 0 97 -15l2 6q4 14 4 27q0 58 -78 58zM78 293q-8 0 -14 6t-6 14t6 14t14 6h214q8 0 14 -6t6 -14t-6 -14t-14 -6h-214z" />
    <glyph glyph-name="guillemotleft" unicode="&#xab;" horiz-adv-x="515" 
d="M54 266l191 184q16 16 27 16q21 0 21 -22q0 -10 -9 -19l-177 -177l75 -166q4 -9 4 -17q0 -9 -6.5 -15.5t-16.5 -6.5q-15 0 -23 17l-88 177q-5 10 -5 15q0 7 7 14zM258 266l191 184q16 16 27 16q21 0 21 -22q0 -10 -9 -19l-177 -177l75 -166q4 -9 4 -17q0 -9 -6.5 -15.5
t-16.5 -6.5q-15 0 -23 17l-88 177q-5 10 -5 15q0 7 7 14z" />
    <glyph glyph-name="registered" unicode="&#xae;" horiz-adv-x="416" 
d="M283 360q-73 0 -123.5 51t-50.5 123v1q0 72 51 123.5t123 51.5q73 0 123.5 -51t50.5 -123v-1q0 -72 -51 -123.5t-123 -51.5zM283 379q65 0 109.5 46t44.5 110v1q0 64 -44.5 109.5t-109.5 45.5t-109.5 -46t-44.5 -110v-1q0 -64 44.5 -109.5t109.5 -45.5zM218 462v150
q0 14 14 14h64q28 0 46.5 -14.5t18.5 -39.5q0 -41 -42 -54l38 -45q5 -6 5 -12q0 -13 -13 -13q-8 0 -14 8l-49 59h-40v-53q0 -14 -14 -14t-14 14zM246 538h47q39 0 39 32q0 31 -39 31h-47v-63z" />
    <glyph glyph-name="macron" unicode="&#xaf;" horiz-adv-x="500" 
d="M487 621h-264q-10 0 -17 7t-7 17t7 17t17 7h264q10 0 17 -7t7 -17t-7 -17t-17 -7z" />
    <glyph glyph-name="degree" unicode="&#xb0;" horiz-adv-x="366" 
d="M214 411q-55 0 -90.5 36t-35.5 90q0 67 49.5 117.5t116.5 50.5q55 0 90.5 -36t35.5 -90q0 -67 -49.5 -117.5t-116.5 -50.5zM219 453q46 0 81 36.5t35 84.5q0 41 -24 65t-62 24q-46 0 -81 -36.5t-35 -84.5q0 -41 24 -65t62 -24z" />
    <glyph glyph-name="plusminus" unicode="&#xb1;" horiz-adv-x="620" 
d="M363 358l-49 -183q-7 -24 -28 -24q-12 0 -18 9t-3 20l48 178h-181q-10 0 -17 7t-7 17t7 17t17 7h194l49 184q7 23 28 23q12 0 18 -8.5t3 -19.5l-48 -179h181q10 0 17 -6.5t7 -16.5t-7 -17.5t-17 -7.5h-194zM37 0h424q10 0 17 7t7 17t-7 17t-17 7h-424q-10 0 -17 -7
t-7 -17t7 -17t17 -7z" />
    <glyph glyph-name="acute" unicode="&#xb4;" horiz-adv-x="500" 
d="M418 683l-103 -78q-17 -13 -38 -13q-14 0 -14 10q0 6 5 11l88 95q17 17 29 17q14 0 29 -8.5t15 -16.5q0 -9 -11 -17z" />
    <glyph glyph-name="paragraph" unicode="&#xb6;" horiz-adv-x="486" 
d="M493 670l-175 -651q-6 -23 -29 -23q-11 0 -18.5 8.5t-3.5 21.5l63 237q-101 6 -164.5 50t-63.5 133q0 119 87 186.5t239 67.5h43q13 0 19.5 -8t2.5 -22z" />
    <glyph glyph-name="periodcentered" unicode="&#xb7;" horiz-adv-x="231" 
d="M163 313l-10 -38q-6 -24 -36 -24q-14 0 -22.5 8.5t-5.5 21.5l10 37q8 26 36 26q14 0 22.5 -9t5.5 -22z" />
    <glyph glyph-name="cedilla" unicode="&#xb8;" horiz-adv-x="500" 
d="M238 10l-107 -141q-10 -12 -21 -12t-19 7t-8 16q0 11 10 22l102 108h43z" />
    <glyph glyph-name="ordmasculine" unicode="&#xba;" horiz-adv-x="390" 
d="M245 407q-58 0 -94 36.5t-36 92.5q0 67 49.5 118t117.5 51q57 0 93.5 -36.5t36.5 -92.5q0 -67 -49.5 -118t-117.5 -51zM248 444q49 0 85 39t36 91q0 42 -25 68t-65 26q-50 0 -86 -39t-36 -91q0 -42 25.5 -68t65.5 -26zM80 293q-8 0 -14 6t-6 14t6 14t14 6h238q8 0 14 -6
t6 -14t-6 -14t-14 -6h-238z" />
    <glyph glyph-name="guillemotright" unicode="&#xbb;" horiz-adv-x="515" 
d="M460 243l-191 -184q-16 -16 -27 -16q-21 0 -21 22q0 10 9 19l177 177l-75 166q-4 9 -4 17q0 9 6.5 15.5t16.5 6.5q15 0 23 -17l88 -177q5 -10 5 -15q0 -7 -7 -14zM256 243l-191 -184q-16 -16 -27 -16q-21 0 -21 22q0 10 9 19l177 177l-75 166q-4 9 -4 17q0 9 6.5 15.5
t16.5 6.5q15 0 23 -17l88 -177q5 -10 5 -15q0 -7 -7 -14z" />
    <glyph glyph-name="questiondown" unicode="&#xbf;" horiz-adv-x="534" 
d="M441 115q12 10 21 10q10 0 16.5 -6.5t6.5 -15.5q0 -10 -8 -18q-98 -94 -225 -94q-92 0 -146.5 49t-54.5 126q0 94 75 152t190 74l39 114q5 15 17 15h1q8 0 12.5 -6t2.5 -16l-24 -126q-3 -21 -24 -24q-106 -11 -171 -58.5t-65 -123.5q0 -61 43 -95t109 -34q99 0 185 77z
M440 637q-8 -26 -36 -26q-14 0 -22.5 9t-5.5 22l10 38q6 24 36 24q14 0 22.5 -8.5t5.5 -21.5z" />
    <glyph glyph-name="Agrave" unicode="&#xc0;" horiz-adv-x="741" 
d="M200 243h369l-75 405zM536 682l125 -646q2 -8 2 -16q0 -9 -7 -16.5t-18 -7.5q-22 0 -27 25l-32 175h-413l-131 -181q-15 -19 -28 -19q-9 0 -15.5 6t-6.5 17q0 9 6 15l473 648q19 25 39 25h2q26 0 31 -25zM491 784l-61 80q-7 8 -7 16t12.5 15.5t26.5 7.5q21 0 28 -18
l36 -92q3 -9 3 -12q0 -9 -13 -9q-16 0 -25 12z" />
    <glyph glyph-name="Aacute" unicode="&#xc1;" horiz-adv-x="741" 
d="M200 243h369l-75 405zM536 682l125 -646q2 -8 2 -16q0 -9 -7 -16.5t-18 -7.5q-22 0 -27 25l-32 175h-413l-131 -181q-15 -19 -28 -19q-9 0 -15.5 6t-6.5 17q0 9 6 15l473 648q19 25 39 25h2q26 0 31 -25zM664 863l-103 -78q-17 -13 -38 -13q-14 0 -14 10q0 6 5 11l88 95
q17 17 29 17q14 0 29 -8.5t15 -16.5q0 -9 -11 -17z" />
    <glyph glyph-name="Acircumflex" unicode="&#xc2;" horiz-adv-x="741" 
d="M200 243h369l-75 405zM536 682l125 -646q2 -8 2 -16q0 -9 -7 -16.5t-18 -7.5q-22 0 -27 25l-32 175h-413l-131 -181q-15 -19 -28 -19q-9 0 -15.5 6t-6.5 17q0 9 6 15l473 648q19 25 39 25h2q26 0 31 -25zM583 882l48 -87q5 -10 5 -13q0 -10 -14 -10q-21 0 -32 14l-44 57
l-82 -58q-19 -13 -33 -13t-14 10q0 6 8 14l94 86q18 18 33 18h6q14 0 25 -18z" />
    <glyph glyph-name="Atilde" unicode="&#xc3;" horiz-adv-x="741" 
d="M200 243h369l-75 405zM536 682l125 -646q2 -8 2 -16q0 -9 -7 -16.5t-18 -7.5q-22 0 -27 25l-32 175h-413l-131 -181q-15 -19 -28 -19q-9 0 -15.5 6t-6.5 17q0 9 6 15l473 648q19 25 39 25h2q26 0 31 -25zM407 770q-21 0 -21 18q0 10 7 21q21 36 41.5 55.5t51.5 19.5
q20 0 33.5 -8t33.5 -27q31 -30 48 -30q23 0 52 48q9 15 20 15q21 0 21 -18q0 -10 -7 -21q-21 -36 -41.5 -55.5t-51.5 -19.5q-20 0 -33.5 8t-33.5 27q-31 30 -48 30q-23 0 -52 -48q-9 -15 -20 -15z" />
    <glyph glyph-name="Adieresis" unicode="&#xc4;" horiz-adv-x="741" 
d="M200 243h369l-75 405zM536 682l125 -646q2 -8 2 -16q0 -9 -7 -16.5t-18 -7.5q-22 0 -27 25l-32 175h-413l-131 -181q-15 -19 -28 -19q-9 0 -15.5 6t-6.5 17q0 9 6 15l473 648q19 25 39 25h2q26 0 31 -25zM483 796q-8 -27 -37 -27q-15 0 -23.5 9.5t-5.5 23.5l9 33
q8 27 37 27q15 0 24 -10t5 -23zM646 796q-8 -27 -37 -27q-15 0 -23.5 9.5t-5.5 23.5l9 33q8 27 37 27q15 0 24 -10t5 -23z" />
    <glyph glyph-name="Aring" unicode="&#xc5;" horiz-adv-x="741" 
d="M7 -4q-9 0 -15.5 6t-6.5 17q0 9 6 15l473 647q-46 22 -46 71q0 42 31.5 72t74.5 30q42 0 69 -23t27 -59t-23.5 -64t-59.5 -36l124 -636q2 -8 2 -16q0 -9 -7 -16.5t-18 -7.5q-22 0 -27 25l-32 175h-413l-131 -181q-15 -19 -28 -19zM200 243h369l-75 405zM514 702
q29 0 49.5 20.5t20.5 49.5q0 22 -15.5 36t-44.5 14t-49.5 -20.5t-20.5 -49.5q0 -22 15.5 -36t44.5 -14z" />
    <glyph glyph-name="AE" unicode="&#xc6;" horiz-adv-x="1068" 
d="M242 243h272l110 410h-27zM597 700h496q10 0 17 -7t7 -17t-7 -17t-17 -7h-417l-74 -275h359q10 0 17 -7t7 -17t-7 -17t-17 -7h-372l-75 -281h409q10 0 17 -7t7 -17t-7 -17t-17 -7h-445q-11 0 -18 8t-4 18l46 170h-301l-156 -180q-17 -20 -32 -20q-21 0 -21 21q0 11 9 21
l556 637q23 25 40 25z" />
    <glyph glyph-name="Ccedilla" unicode="&#xc7;" horiz-adv-x="738" 
d="M639 92q-112 -105 -261 -105h-5l-89 -118q-10 -12 -21 -12t-19 7t-8 16q0 11 10 22l83 89q-103 15 -170 90t-67 190q0 112 55.5 214t153 164.5t209.5 62.5q82 0 144.5 -34t97.5 -91q7 -12 7 -22q-1 -10 -8 -17t-18 -6q-14 0 -21 11q-34 53 -81.5 82.5t-123.5 29.5
q-148 0 -254.5 -120t-106.5 -272q0 -109 66.5 -173.5t170.5 -64.5q125 0 223 92q9 9 19 9t17 -7t7 -17t-10 -20z" />
    <glyph glyph-name="Egrave" unicode="&#xc8;" horiz-adv-x="649" 
d="M520 0h-455q-11 0 -18 8t-4 18l174 648q3 11 11.5 18.5t18.5 7.5h443q10 0 17 -7t7 -17t-7 -17t-17 -7h-427l-74 -275h369q10 0 17 -7t7 -17t-7 -17t-17 -7h-382l-75 -281h419q10 0 17 -7t7 -17t-7 -17t-17 -7zM447 774l-61 80q-7 8 -7 16t12.5 15.5t26.5 7.5
q21 0 28 -18l36 -92q3 -9 3 -12q0 -9 -13 -9q-16 0 -25 12z" />
    <glyph glyph-name="Eacute" unicode="&#xc9;" horiz-adv-x="649" 
d="M520 0h-455q-11 0 -18 8t-4 18l174 648q3 11 11.5 18.5t18.5 7.5h443q10 0 17 -7t7 -17t-7 -17t-17 -7h-427l-74 -275h369q10 0 17 -7t7 -17t-7 -17t-17 -7h-382l-75 -281h419q10 0 17 -7t7 -17t-7 -17t-17 -7zM620 853l-103 -78q-17 -13 -38 -13q-14 0 -14 10q0 6 5 11
l88 95q17 17 29 17q14 0 29 -8.5t15 -16.5q0 -9 -11 -17z" />
    <glyph glyph-name="Ecircumflex" unicode="&#xca;" horiz-adv-x="649" 
d="M520 0h-455q-11 0 -18 8t-4 18l174 648q3 11 11.5 18.5t18.5 7.5h443q10 0 17 -7t7 -17t-7 -17t-17 -7h-427l-74 -275h369q10 0 17 -7t7 -17t-7 -17t-17 -7h-382l-75 -281h419q10 0 17 -7t7 -17t-7 -17t-17 -7zM539 872l48 -87q5 -10 5 -13q0 -10 -14 -10q-21 0 -32 14
l-44 57l-82 -58q-19 -13 -33 -13t-14 10q0 6 8 14l94 86q18 18 33 18h6q14 0 25 -18z" />
    <glyph glyph-name="Edieresis" unicode="&#xcb;" horiz-adv-x="649" 
d="M520 0h-455q-11 0 -18 8t-4 18l174 648q3 11 11.5 18.5t18.5 7.5h443q10 0 17 -7t7 -17t-7 -17t-17 -7h-427l-74 -275h369q10 0 17 -7t7 -17t-7 -17t-17 -7h-382l-75 -281h419q10 0 17 -7t7 -17t-7 -17t-17 -7zM439 786q-8 -27 -37 -27q-15 0 -23.5 9.5t-5.5 23.5l9 33
q8 27 37 27q15 0 24 -10t5 -23zM602 786q-8 -27 -37 -27q-15 0 -23.5 9.5t-5.5 23.5l9 33q8 27 37 27q15 0 24 -10t5 -23z" />
    <glyph glyph-name="Igrave" unicode="&#xcc;" horiz-adv-x="274" 
d="M276 674l-176 -655q-6 -23 -28 -23q-11 0 -18.5 8.5t-3.5 21.5l176 655q6 23 28 23q11 0 18.5 -8.5t3.5 -21.5zM239 774l-61 80q-7 8 -7 16t12.5 15.5t26.5 7.5q21 0 28 -18l36 -92q3 -9 3 -12q0 -9 -13 -9q-16 0 -25 12z" />
    <glyph glyph-name="Iacute" unicode="&#xcd;" horiz-adv-x="274" 
d="M276 674l-176 -655q-6 -23 -28 -23q-11 0 -18.5 8.5t-3.5 21.5l176 655q6 23 28 23q11 0 18.5 -8.5t3.5 -21.5zM412 853l-103 -78q-17 -13 -38 -13q-14 0 -14 10q0 6 5 11l88 95q17 17 29 17q14 0 29 -8.5t15 -16.5q0 -9 -11 -17z" />
    <glyph glyph-name="Icircumflex" unicode="&#xce;" horiz-adv-x="274" 
d="M276 674l-176 -655q-6 -23 -28 -23q-11 0 -18.5 8.5t-3.5 21.5l176 655q6 23 28 23q11 0 18.5 -8.5t3.5 -21.5zM331 872l48 -87q5 -10 5 -13q0 -10 -14 -10q-21 0 -32 14l-44 57l-82 -58q-19 -13 -33 -13t-14 10q0 6 8 14l94 86q18 18 33 18h6q14 0 25 -18z" />
    <glyph glyph-name="Idieresis" unicode="&#xcf;" horiz-adv-x="274" 
d="M276 674l-176 -655q-6 -23 -28 -23q-11 0 -18.5 8.5t-3.5 21.5l176 655q6 23 28 23q11 0 18.5 -8.5t3.5 -21.5zM232 786q-8 -27 -37 -27q-15 0 -23.5 9.5t-5.5 23.5l9 33q8 27 37 27q15 0 24 -10t5 -23zM395 786q-8 -27 -37 -27q-15 0 -23.5 9.5t-5.5 23.5l9 33
q8 27 37 27q15 0 24 -10t5 -23z" />
    <glyph glyph-name="Eth" unicode="&#xd0;" horiz-adv-x="801" 
d="M277 700h134q178 0 272 -94q77 -77 77 -200q0 -162 -109 -271q-64 -64 -156.5 -99.5t-199.5 -35.5h-200q-11 0 -18 8t-4 18l81 302h-48q-10 0 -17 7t-7 17t7 17t17 7h61l80 298q3 11 11.5 18.5t18.5 7.5zM131 48h171q190 0 310 120q94 94 94 234q0 108 -65 171
q-79 79 -233 79h-115l-74 -276h205q10 0 17 -7t7 -17t-7 -17t-17 -7h-218z" />
    <glyph glyph-name="Ntilde" unicode="&#xd1;" horiz-adv-x="786" 
d="M587 87l160 594q6 23 27 23q11 0 18 -8t3 -22l-176 -655q-6 -22 -24 -22h-1q-16 0 -27 21l-313 608l-163 -607q-6 -23 -27 -23q-11 0 -18 8t-3 22l175 651q7 26 30 26h2q20 0 34 -26zM411 760q-21 0 -21 18q0 10 7 21q21 36 41.5 55.5t51.5 19.5q20 0 33.5 -8t33.5 -27
q31 -30 48 -30q23 0 52 48q9 15 20 15q21 0 21 -18q0 -10 -7 -21q-21 -36 -41.5 -55.5t-51.5 -19.5q-20 0 -33.5 8t-33.5 27q-31 30 -48 30q-23 0 -52 -48q-9 -15 -20 -15z" />
    <glyph glyph-name="Ograve" unicode="&#xd2;" horiz-adv-x="846" 
d="M398 -13q-131 0 -216.5 86.5t-85.5 214.5q0 108 53.5 206t147 158t202.5 60q131 0 216.5 -86.5t85.5 -214.5q0 -108 -53.5 -206t-147 -158t-202.5 -60zM398 34q96 0 177 54t126.5 140.5t45.5 182.5q0 109 -69 181.5t-179 72.5q-96 0 -177 -54t-126.5 -140.5t-45.5 -182.5
q0 -109 69 -181.5t179 -72.5zM514 784l-61 80q-7 8 -7 16t12.5 15.5t26.5 7.5q21 0 28 -18l36 -92q3 -9 3 -12q0 -9 -13 -9q-16 0 -25 12z" />
    <glyph glyph-name="Oacute" unicode="&#xd3;" horiz-adv-x="846" 
d="M398 -13q-131 0 -216.5 86.5t-85.5 214.5q0 108 53.5 206t147 158t202.5 60q131 0 216.5 -86.5t85.5 -214.5q0 -108 -53.5 -206t-147 -158t-202.5 -60zM398 34q96 0 177 54t126.5 140.5t45.5 182.5q0 109 -69 181.5t-179 72.5q-96 0 -177 -54t-126.5 -140.5t-45.5 -182.5
q0 -109 69 -181.5t179 -72.5zM687 863l-103 -78q-17 -13 -38 -13q-14 0 -14 10q0 6 5 11l88 95q17 17 29 17q14 0 29 -8.5t15 -16.5q0 -9 -11 -17z" />
    <glyph glyph-name="Ocircumflex" unicode="&#xd4;" horiz-adv-x="846" 
d="M398 -13q-131 0 -216.5 86.5t-85.5 214.5q0 108 53.5 206t147 158t202.5 60q131 0 216.5 -86.5t85.5 -214.5q0 -108 -53.5 -206t-147 -158t-202.5 -60zM398 34q96 0 177 54t126.5 140.5t45.5 182.5q0 109 -69 181.5t-179 72.5q-96 0 -177 -54t-126.5 -140.5t-45.5 -182.5
q0 -109 69 -181.5t179 -72.5zM605 882l48 -87q5 -10 5 -13q0 -10 -14 -10q-21 0 -32 14l-44 57l-82 -58q-19 -13 -33 -13t-14 10q0 6 8 14l94 86q18 18 33 18h6q14 0 25 -18z" />
    <glyph glyph-name="Otilde" unicode="&#xd5;" horiz-adv-x="846" 
d="M398 -13q-131 0 -216.5 86.5t-85.5 214.5q0 108 53.5 206t147 158t202.5 60q131 0 216.5 -86.5t85.5 -214.5q0 -108 -53.5 -206t-147 -158t-202.5 -60zM398 34q96 0 177 54t126.5 140.5t45.5 182.5q0 109 -69 181.5t-179 72.5q-96 0 -177 -54t-126.5 -140.5t-45.5 -182.5
q0 -109 69 -181.5t179 -72.5zM430 770q-21 0 -21 18q0 10 7 21q21 36 41.5 55.5t51.5 19.5q20 0 33.5 -8t33.5 -27q31 -30 48 -30q23 0 52 48q9 15 20 15q21 0 21 -18q0 -10 -7 -21q-21 -36 -41.5 -55.5t-51.5 -19.5q-20 0 -33.5 8t-33.5 27q-31 30 -48 30q-23 0 -52 -48
q-9 -15 -20 -15z" />
    <glyph glyph-name="Odieresis" unicode="&#xd6;" horiz-adv-x="846" 
d="M398 -13q-131 0 -216.5 86.5t-85.5 214.5q0 108 53.5 206t147 158t202.5 60q131 0 216.5 -86.5t85.5 -214.5q0 -108 -53.5 -206t-147 -158t-202.5 -60zM398 34q96 0 177 54t126.5 140.5t45.5 182.5q0 109 -69 181.5t-179 72.5q-96 0 -177 -54t-126.5 -140.5t-45.5 -182.5
q0 -109 69 -181.5t179 -72.5zM506 796q-8 -27 -37 -27q-15 0 -23.5 9.5t-5.5 23.5l9 33q8 27 37 27q15 0 24 -10t5 -23zM669 796q-8 -27 -37 -27q-15 0 -23.5 9.5t-5.5 23.5l9 33q8 27 37 27q15 0 24 -10t5 -23z" />
    <glyph glyph-name="multiply" unicode="&#xd7;" horiz-adv-x="620" 
d="M369 349l121 -163q7 -10 7 -18q0 -10 -8 -17.5t-18 -7.5q-13 0 -21 11l-120 166l-215 -171q-8 -6 -16 -6q-9 0 -15.5 7t-6.5 17q0 12 11 20l216 169l-121 163q-7 10 -7 18q0 10 8 17.5t18 7.5q13 0 21 -11l120 -166l215 171q8 6 16 6q9 0 15.5 -7t6.5 -17q0 -12 -11 -20z
" />
    <glyph glyph-name="Oslash" unicode="&#xd8;" horiz-adv-x="846" 
d="M150 288q0 -72 30 -129l508 424q-71 82 -189 82q-96 0 -177 -54t-126.5 -140.5t-45.5 -182.5zM398 34q96 0 177 54t126.5 140.5t45.5 182.5q0 76 -34 136l-509 -425q69 -88 194 -88zM166 90l-102 -85q-16 -14 -30 -14q-19 0 -19 19q0 12 11 21l114 95q-44 74 -44 162
q0 108 53.5 206t147 158t202.5 60q140 0 227 -97l95 80q16 14 29 14q20 0 20 -18q0 -13 -11 -22l-106 -89q48 -77 48 -169q0 -108 -53.5 -206t-147 -158t-202.5 -60q-144 0 -232 103z" />
    <glyph glyph-name="Ugrave" unicode="&#xd9;" horiz-adv-x="756" 
d="M775 674l-105 -391q-35 -130 -111 -206q-88 -88 -211 -88q-122 0 -187 61t-65 159q0 54 14 108l97 364q6 23 28 23q11 0 18.5 -8.5t3.5 -21.5l-101 -381q-9 -36 -9 -80q0 -79 52 -128t153 -49q99 0 171 72q65 65 98 186l104 387q6 23 28 23q11 0 18.5 -8.5t3.5 -21.5z
M469 774l-61 80q-7 8 -7 16t12.5 15.5t26.5 7.5q21 0 28 -18l36 -92q3 -9 3 -12q0 -9 -13 -9q-16 0 -25 12z" />
    <glyph glyph-name="Uacute" unicode="&#xda;" horiz-adv-x="756" 
d="M775 674l-105 -391q-35 -130 -111 -206q-88 -88 -211 -88q-122 0 -187 61t-65 159q0 54 14 108l97 364q6 23 28 23q11 0 18.5 -8.5t3.5 -21.5l-101 -381q-9 -36 -9 -80q0 -79 52 -128t153 -49q99 0 171 72q65 65 98 186l104 387q6 23 28 23q11 0 18.5 -8.5t3.5 -21.5z
M642 853l-103 -78q-17 -13 -38 -13q-14 0 -14 10q0 6 5 11l88 95q17 17 29 17q14 0 29 -8.5t15 -16.5q0 -9 -11 -17z" />
    <glyph glyph-name="Ucircumflex" unicode="&#xdb;" horiz-adv-x="756" 
d="M775 674l-105 -391q-35 -130 -111 -206q-88 -88 -211 -88q-122 0 -187 61t-65 159q0 54 14 108l97 364q6 23 28 23q11 0 18.5 -8.5t3.5 -21.5l-101 -381q-9 -36 -9 -80q0 -79 52 -128t153 -49q99 0 171 72q65 65 98 186l104 387q6 23 28 23q11 0 18.5 -8.5t3.5 -21.5z
M561 872l48 -87q5 -10 5 -13q0 -10 -14 -10q-21 0 -32 14l-44 57l-82 -58q-19 -13 -33 -13t-14 10q0 6 8 14l94 86q18 18 33 18h6q14 0 25 -18z" />
    <glyph glyph-name="Udieresis" unicode="&#xdc;" horiz-adv-x="756" 
d="M775 674l-105 -391q-35 -130 -111 -206q-88 -88 -211 -88q-122 0 -187 61t-65 159q0 54 14 108l97 364q6 23 28 23q11 0 18.5 -8.5t3.5 -21.5l-101 -381q-9 -36 -9 -80q0 -79 52 -128t153 -49q99 0 171 72q65 65 98 186l104 387q6 23 28 23q11 0 18.5 -8.5t3.5 -21.5z
M462 786q-8 -27 -37 -27q-15 0 -23.5 9.5t-5.5 23.5l9 33q8 27 37 27q15 0 24 -10t5 -23zM625 786q-8 -27 -37 -27q-15 0 -23.5 9.5t-5.5 23.5l9 33q8 27 37 27q15 0 24 -10t5 -23z" />
    <glyph glyph-name="Yacute" unicode="&#xdd;" horiz-adv-x="668" 
d="M358 271l-67 -252q-6 -23 -28 -23q-11 0 -18.5 8.5t-3.5 21.5l69 258l-166 377q-4 9 -4 18q0 11 7 18t18 7q17 0 27 -23l153 -357l354 366q14 14 28 14q9 0 16 -6.5t7 -15.5q0 -12 -12 -24zM594 853l-103 -78q-17 -13 -38 -13q-14 0 -14 10q0 6 5 11l88 95q17 17 29 17
q14 0 29 -8.5t15 -16.5q0 -9 -11 -17z" />
    <glyph glyph-name="Thorn" unicode="&#xde;" horiz-adv-x="668" 
d="M137 182h168q141 0 216.5 52.5t75.5 148.5q0 57 -36 93q-49 49 -154 49h-178zM408 573q130 0 193 -63q48 -48 48 -125q0 -118 -93 -184t-253 -66h-178l-32 -116q-6 -23 -28 -23q-11 0 -18.5 8.5t-3.5 21.5l176 655q6 23 27 23q11 0 18.5 -8.5t3.5 -21.5l-26 -101h166z
" />
    <glyph glyph-name="germandbls" unicode="&#xdf;" horiz-adv-x="620" 
d="M334 389q212 54 212 185q0 52 -37 84.5t-101 32.5q-73 0 -125.5 -54.5t-78.5 -151.5l-125 -466q-6 -23 -27 -23q-11 0 -17 8t-3 20l127 476q29 109 87 167q70 70 166 70q81 0 134 -45.5t53 -115.5q0 -152 -212 -211q159 -42 159 -164q0 -89 -87 -146t-215 -57
q-22 0 -22 22q0 20 22 22q125 6 187 50t62 110q0 99 -155 135q-24 5 -24 26t20 26z" />
    <glyph glyph-name="agrave" unicode="&#xe0;" horiz-adv-x="571" 
d="M199 33q75 0 141.5 47.5t86.5 122.5l12 45q-96 24 -193 24q-76 0 -123.5 -37.5t-47.5 -97.5q0 -47 33.5 -75.5t90.5 -28.5zM398 -4q-11 0 -17 8t-3 20l17 64q-84 -100 -205 -100q-69 0 -118 37.5t-49 105.5q0 84 64 134.5t166 50.5q90 0 196 -29l4 14q7 26 7 51
q0 58 -39.5 89t-114.5 31q-66 0 -129 -21q-8 -2 -13 -2q-20 0 -20 22q0 17 19 23q72 24 147 24q93 0 145.5 -42.5t52.5 -116.5q0 -29 -10 -67l-73 -273q-6 -23 -27 -23zM321 604l-61 80q-7 8 -7 16t12.5 15.5t26.5 7.5q21 0 28 -18l36 -92q3 -9 3 -12q0 -9 -13 -9
q-16 0 -25 12z" />
    <glyph glyph-name="aacute" unicode="&#xe1;" horiz-adv-x="571" 
d="M199 33q75 0 141.5 47.5t86.5 122.5l12 45q-96 24 -193 24q-76 0 -123.5 -37.5t-47.5 -97.5q0 -47 33.5 -75.5t90.5 -28.5zM398 -4q-11 0 -17 8t-3 20l17 64q-84 -100 -205 -100q-69 0 -118 37.5t-49 105.5q0 84 64 134.5t166 50.5q90 0 196 -29l4 14q7 26 7 51
q0 58 -39.5 89t-114.5 31q-66 0 -129 -21q-8 -2 -13 -2q-20 0 -20 22q0 17 19 23q72 24 147 24q93 0 145.5 -42.5t52.5 -116.5q0 -29 -10 -67l-73 -273q-6 -23 -27 -23zM494 683l-103 -78q-17 -13 -38 -13q-14 0 -14 10q0 6 5 11l88 95q17 17 29 17q14 0 29 -8.5t15 -16.5
q0 -9 -11 -17z" />
    <glyph glyph-name="acircumflex" unicode="&#xe2;" horiz-adv-x="571" 
d="M199 33q75 0 141.5 47.5t86.5 122.5l12 45q-96 24 -193 24q-76 0 -123.5 -37.5t-47.5 -97.5q0 -47 33.5 -75.5t90.5 -28.5zM398 -4q-11 0 -17 8t-3 20l17 64q-84 -100 -205 -100q-69 0 -118 37.5t-49 105.5q0 84 64 134.5t166 50.5q90 0 196 -29l4 14q7 26 7 51
q0 58 -39.5 89t-114.5 31q-66 0 -129 -21q-8 -2 -13 -2q-20 0 -20 22q0 17 19 23q72 24 147 24q93 0 145.5 -42.5t52.5 -116.5q0 -29 -10 -67l-73 -273q-6 -23 -27 -23zM413 702l48 -87q5 -10 5 -13q0 -10 -14 -10q-21 0 -32 14l-44 57l-82 -58q-19 -13 -33 -13t-14 10
q0 6 8 14l94 86q18 18 33 18h6q14 0 25 -18z" />
    <glyph glyph-name="atilde" unicode="&#xe3;" horiz-adv-x="571" 
d="M199 33q75 0 141.5 47.5t86.5 122.5l12 45q-96 24 -193 24q-76 0 -123.5 -37.5t-47.5 -97.5q0 -47 33.5 -75.5t90.5 -28.5zM398 -4q-11 0 -17 8t-3 20l17 64q-84 -100 -205 -100q-69 0 -118 37.5t-49 105.5q0 84 64 134.5t166 50.5q90 0 196 -29l4 14q7 26 7 51
q0 58 -39.5 89t-114.5 31q-66 0 -129 -21q-8 -2 -13 -2q-20 0 -20 22q0 17 19 23q72 24 147 24q93 0 145.5 -42.5t52.5 -116.5q0 -29 -10 -67l-73 -273q-6 -23 -27 -23zM237 590q-21 0 -21 18q0 10 7 21q21 36 41.5 55.5t51.5 19.5q20 0 33.5 -8t33.5 -27q31 -30 48 -30
q23 0 52 48q9 15 20 15q21 0 21 -18q0 -10 -7 -21q-21 -36 -41.5 -55.5t-51.5 -19.5q-20 0 -33.5 8t-33.5 27q-31 30 -48 30q-23 0 -52 -48q-9 -15 -20 -15z" />
    <glyph glyph-name="adieresis" unicode="&#xe4;" horiz-adv-x="571" 
d="M199 33q75 0 141.5 47.5t86.5 122.5l12 45q-96 24 -193 24q-76 0 -123.5 -37.5t-47.5 -97.5q0 -47 33.5 -75.5t90.5 -28.5zM398 -4q-11 0 -17 8t-3 20l17 64q-84 -100 -205 -100q-69 0 -118 37.5t-49 105.5q0 84 64 134.5t166 50.5q90 0 196 -29l4 14q7 26 7 51
q0 58 -39.5 89t-114.5 31q-66 0 -129 -21q-8 -2 -13 -2q-20 0 -20 22q0 17 19 23q72 24 147 24q93 0 145.5 -42.5t52.5 -116.5q0 -29 -10 -67l-73 -273q-6 -23 -27 -23zM313 616q-8 -27 -37 -27q-15 0 -23.5 9.5t-5.5 23.5l9 33q8 27 37 27q15 0 24 -10t5 -23zM476 616
q-8 -27 -37 -27q-15 0 -23.5 9.5t-5.5 23.5l9 33q8 27 37 27q15 0 24 -10t5 -23z" />
    <glyph glyph-name="aring" unicode="&#xe5;" horiz-adv-x="571" 
d="M199 33q75 0 141.5 47.5t86.5 122.5l12 45q-96 24 -193 24q-76 0 -123.5 -37.5t-47.5 -97.5q0 -47 33.5 -75.5t90.5 -28.5zM398 -4q-11 0 -17 8t-3 20l17 64q-84 -100 -205 -100q-69 0 -118 37.5t-49 105.5q0 84 64 134.5t166 50.5q90 0 196 -29l4 14q7 26 7 51
q0 58 -39.5 89t-114.5 31q-66 0 -129 -21q-8 -2 -13 -2q-20 0 -20 22q0 17 19 23q72 24 147 24q93 0 145.5 -42.5t52.5 -116.5q0 -29 -10 -67l-73 -273q-6 -23 -27 -23zM373 595q-42 0 -67.5 23t-25.5 59q0 42 33 72t76 30q42 0 67.5 -23t25.5 -59q0 -42 -33 -72t-76 -30z
M374 627q30 0 51 20t21 49q0 23 -15 37t-43 14q-30 0 -51 -20t-21 -49q0 -23 15 -37t43 -14z" />
    <glyph glyph-name="ae" unicode="&#xe6;" horiz-adv-x="965" 
d="M250 272q-76 0 -125.5 -37t-49.5 -93q0 -50 34 -79.5t95 -29.5q123 0 238 125q-4 20 -4 48q0 22 3 43q-81 23 -191 23zM922 327q0 -33 -7 -66q-5 -23 -30 -23h-396q-2 -22 -2 -34q0 -77 47 -123.5t122 -46.5q90 0 161 58q9 7 19 7q9 0 15 -6t6 -15q0 -12 -10 -20
q-81 -70 -190 -70q-74 0 -126 33.5t-76 91.5q-120 -125 -255 -125q-77 0 -127 39t-50 109q0 82 66 131t168 49q97 0 192 -29l4 14q7 26 7 51q0 58 -39.5 89t-114.5 31q-66 0 -129 -21q-8 -2 -13 -2q-20 0 -20 22q0 17 19 23q72 24 147 24q80 0 130.5 -32t63.5 -89
q42 57 100.5 91t124.5 34q92 0 142.5 -56t50.5 -139zM498 282h370q4 18 4 42q0 66 -36.5 109.5t-107.5 43.5q-82 0 -144.5 -56t-85.5 -139z" />
    <glyph glyph-name="ccedilla" unicode="&#xe7;" horiz-adv-x="563" 
d="M459 62q-86 -74 -187 -74h-3l-90 -119q-10 -12 -21 -12t-19 7t-8 16q0 11 10 22l85 91q-75 14 -125.5 71t-50.5 144q0 126 89.5 220t210.5 94q123 0 188 -101q7 -10 7 -20q0 -9 -6.5 -15.5t-15.5 -6.5q-15 0 -24 13q-57 84 -152 84q-97 0 -170.5 -80t-73.5 -185
q0 -82 50.5 -129.5t121.5 -47.5q80 0 153 62q8 7 19 7q9 0 15 -6.5t6 -15.5q0 -10 -9 -19z" />
    <glyph glyph-name="egrave" unicode="&#xe8;" horiz-adv-x="583" 
d="M114 282h370q4 18 4 42q0 66 -36.5 109.5t-107.5 43.5q-82 0 -144.5 -56t-85.5 -139zM272 34q90 0 161 58q9 7 19 7q9 0 15 -6t6 -15q0 -12 -10 -20q-83 -70 -191 -70q-98 0 -160 60t-62 154q0 123 87 221.5t208 98.5q92 0 142.5 -56t50.5 -139q0 -33 -7 -66
q-5 -23 -30 -23h-396q-2 -22 -2 -34q0 -77 47 -123.5t122 -46.5zM343 604l-61 80q-7 8 -7 16t12.5 15.5t26.5 7.5q21 0 28 -18l36 -92q3 -9 3 -12q0 -9 -13 -9q-16 0 -25 12z" />
    <glyph glyph-name="eacute" unicode="&#xe9;" horiz-adv-x="583" 
d="M114 282h370q4 18 4 42q0 66 -36.5 109.5t-107.5 43.5q-82 0 -144.5 -56t-85.5 -139zM272 34q90 0 161 58q9 7 19 7q9 0 15 -6t6 -15q0 -12 -10 -20q-83 -70 -191 -70q-98 0 -160 60t-62 154q0 123 87 221.5t208 98.5q92 0 142.5 -56t50.5 -139q0 -33 -7 -66
q-5 -23 -30 -23h-396q-2 -22 -2 -34q0 -77 47 -123.5t122 -46.5zM516 683l-103 -78q-17 -13 -38 -13q-14 0 -14 10q0 6 5 11l88 95q17 17 29 17q14 0 29 -8.5t15 -16.5q0 -9 -11 -17z" />
    <glyph glyph-name="ecircumflex" unicode="&#xea;" horiz-adv-x="583" 
d="M114 282h370q4 18 4 42q0 66 -36.5 109.5t-107.5 43.5q-82 0 -144.5 -56t-85.5 -139zM272 34q90 0 161 58q9 7 19 7q9 0 15 -6t6 -15q0 -12 -10 -20q-83 -70 -191 -70q-98 0 -160 60t-62 154q0 123 87 221.5t208 98.5q92 0 142.5 -56t50.5 -139q0 -33 -7 -66
q-5 -23 -30 -23h-396q-2 -22 -2 -34q0 -77 47 -123.5t122 -46.5zM434 702l48 -87q5 -10 5 -13q0 -10 -14 -10q-21 0 -32 14l-44 57l-82 -58q-19 -13 -33 -13t-14 10q0 6 8 14l94 86q18 18 33 18h6q15 0 25 -18z" />
    <glyph glyph-name="edieresis" unicode="&#xeb;" horiz-adv-x="583" 
d="M114 282h370q4 18 4 42q0 66 -36.5 109.5t-107.5 43.5q-82 0 -144.5 -56t-85.5 -139zM272 34q90 0 161 58q9 7 19 7q9 0 15 -6t6 -15q0 -12 -10 -20q-83 -70 -191 -70q-98 0 -160 60t-62 154q0 123 87 221.5t208 98.5q92 0 142.5 -56t50.5 -139q0 -33 -7 -66
q-5 -23 -30 -23h-396q-2 -22 -2 -34q0 -77 47 -123.5t122 -46.5zM335 616q-8 -27 -37 -27q-15 0 -23.5 9.5t-5.5 23.5l9 33q8 27 37 27q15 0 24 -10t5 -23zM498 616q-8 -27 -37 -27q-15 0 -23.5 9.5t-5.5 23.5l9 33q8 27 37 27q15 0 24 -10t5 -23z" />
    <glyph glyph-name="igrave" unicode="&#xec;" horiz-adv-x="250" 
d="M211 486l-125 -467q-6 -23 -27 -23q-11 0 -17 8t-3 20l125 467q6 23 27 23q11 0 17 -8t3 -20zM181 604l-61 80q-7 8 -7 16t12.5 15.5t26.5 7.5q21 0 28 -18l36 -92q3 -9 3 -12q0 -9 -13 -9q-16 0 -25 12z" />
    <glyph glyph-name="iacute" unicode="&#xed;" horiz-adv-x="250" 
d="M211 486l-125 -467q-6 -23 -27 -23q-11 0 -17 8t-3 20l125 467q6 23 27 23q11 0 17 -8t3 -20zM354 683l-103 -78q-17 -13 -38 -13q-14 0 -14 10q0 6 5 11l88 95q17 17 29 17q14 0 29 -8.5t15 -16.5q0 -9 -11 -17z" />
    <glyph glyph-name="icircumflex" unicode="&#xee;" horiz-adv-x="250" 
d="M211 486l-125 -467q-6 -23 -27 -23q-11 0 -17 8t-3 20l125 467q6 23 27 23q11 0 17 -8t3 -20zM272 702l48 -87q5 -10 5 -13q0 -10 -14 -10q-21 0 -32 14l-44 57l-82 -58q-19 -13 -33 -13t-14 10q0 6 8 14l94 86q18 18 33 18h6q15 0 25 -18z" />
    <glyph glyph-name="idieresis" unicode="&#xef;" horiz-adv-x="250" 
d="M211 486l-125 -467q-6 -23 -27 -23q-11 0 -17 8t-3 20l125 467q6 23 27 23q11 0 17 -8t3 -20zM174 616q-8 -27 -37 -27q-15 0 -23.5 9.5t-5.5 23.5l9 33q8 27 37 27q15 0 24 -10t5 -23zM337 616q-8 -27 -37 -27q-15 0 -23.5 9.5t-5.5 23.5l9 33q8 27 37 27q15 0 24 -10
t5 -23z" />
    <glyph glyph-name="eth" unicode="&#xf0;" horiz-adv-x="616" 
d="M241 607l140 61l-10 24q-4 10 -4 18q0 9 8 16.5t20 7.5q18 0 26 -21l9 -23l95 42q6 3 14 3q21 0 21 -22q0 -16 -18 -23l-96 -42l74 -184q47 -118 47 -190q0 -112 -85 -198.5t-211 -86.5q-96 0 -160 61.5t-64 151.5q0 116 84.5 199.5t195.5 83.5q92 0 154 -53l-83 195
l-140 -62q-6 -3 -14 -3q-21 0 -21 22q0 16 18 23zM276 35q97 0 167.5 70t70.5 167q0 71 -50.5 120t-135.5 49q-93 0 -160.5 -70.5t-67.5 -165.5q0 -78 49 -124t127 -46z" />
    <glyph glyph-name="ntilde" unicode="&#xf1;" horiz-adv-x="611" 
d="M183 514q11 0 17 -8t3 -20l-18 -71q89 107 193 107q76 0 121.5 -44.5t45.5 -117.5q0 -28 -11 -72l-71 -269q-6 -23 -27 -23q-11 0 -17 8t-3 20l71 268q8 30 8 63q0 57 -35 90t-96 33q-67 0 -129 -54t-84 -136l-72 -269q-6 -23 -27 -23q-11 0 -17 8t-3 20l124 467
q6 23 27 23zM276 590q-21 0 -21 18q0 10 7 21q21 36 41.5 55.5t51.5 19.5q20 0 33.5 -8t33.5 -27q31 -30 48 -30q23 0 52 48q9 15 20 15q21 0 21 -18q0 -10 -7 -21q-21 -36 -41.5 -55.5t-51.5 -19.5q-20 0 -33.5 8t-33.5 27q-31 30 -48 30q-23 0 -52 -48q-9 -15 -20 -15z
" />
    <glyph glyph-name="ograve" unicode="&#xf2;" horiz-adv-x="633" 
d="M278 -12q-101 0 -164 63.5t-63 162.5q0 122 91 215t212 93q101 0 164 -63.5t63 -162.5q0 -124 -92 -216t-211 -92zM283 34q95 0 170 78t75 182q0 85 -49 133.5t-130 48.5q-97 0 -171 -79t-74 -181q0 -85 49 -133.5t130 -48.5zM366 604l-61 80q-7 8 -7 16t12.5 15.5
t26.5 7.5q21 0 28 -18l36 -92q3 -9 3 -12q0 -9 -13 -9q-16 0 -25 12z" />
    <glyph glyph-name="oacute" unicode="&#xf3;" horiz-adv-x="633" 
d="M278 -12q-101 0 -164 63.5t-63 162.5q0 122 91 215t212 93q101 0 164 -63.5t63 -162.5q0 -124 -92 -216t-211 -92zM283 34q95 0 170 78t75 182q0 85 -49 133.5t-130 48.5q-97 0 -171 -79t-74 -181q0 -85 49 -133.5t130 -48.5zM539 683l-103 -78q-17 -13 -38 -13
q-14 0 -14 10q0 6 5 11l88 95q17 17 29 17q14 0 29 -8.5t15 -16.5q0 -9 -11 -17z" />
    <glyph glyph-name="ocircumflex" unicode="&#xf4;" horiz-adv-x="633" 
d="M278 -12q-101 0 -164 63.5t-63 162.5q0 122 91 215t212 93q101 0 164 -63.5t63 -162.5q0 -124 -92 -216t-211 -92zM283 34q95 0 170 78t75 182q0 85 -49 133.5t-130 48.5q-97 0 -171 -79t-74 -181q0 -85 49 -133.5t130 -48.5zM457 702l48 -87q5 -10 5 -13q0 -10 -14 -10
q-21 0 -32 14l-44 57l-82 -58q-19 -13 -33 -13t-14 10q0 6 8 14l94 86q18 18 33 18h6q14 0 25 -18z" />
    <glyph glyph-name="otilde" unicode="&#xf5;" horiz-adv-x="633" 
d="M278 -12q-101 0 -164 63.5t-63 162.5q0 122 91 215t212 93q101 0 164 -63.5t63 -162.5q0 -124 -92 -216t-211 -92zM283 34q95 0 170 78t75 182q0 85 -49 133.5t-130 48.5q-97 0 -171 -79t-74 -181q0 -85 49 -133.5t130 -48.5zM282 590q-21 0 -21 18q0 10 7 21
q21 36 41.5 55.5t51.5 19.5q20 0 33.5 -8t33.5 -27q31 -30 48 -30q23 0 52 48q9 15 20 15q21 0 21 -18q0 -10 -7 -21q-21 -36 -41.5 -55.5t-51.5 -19.5q-20 0 -33.5 8t-33.5 27q-31 30 -48 30q-23 0 -52 -48q-9 -15 -20 -15z" />
    <glyph glyph-name="odieresis" unicode="&#xf6;" horiz-adv-x="633" 
d="M278 -12q-101 0 -164 63.5t-63 162.5q0 122 91 215t212 93q101 0 164 -63.5t63 -162.5q0 -124 -92 -216t-211 -92zM283 34q95 0 170 78t75 182q0 85 -49 133.5t-130 48.5q-97 0 -171 -79t-74 -181q0 -85 49 -133.5t130 -48.5zM358 616q-8 -27 -37 -27q-15 0 -23.5 9.5
t-5.5 23.5l9 33q8 27 37 27q15 0 24 -10t5 -23zM521 616q-8 -27 -37 -27q-15 0 -23.5 9.5t-5.5 23.5l9 33q8 27 37 27q15 0 24 -10t5 -23z" />
    <glyph glyph-name="divide" unicode="&#xf7;" horiz-adv-x="620" 
d="M115 328h444q10 0 17 7t7 17t-7 17t-17 7h-444q-10 0 -17 -7t-7 -17t7 -17t17 -7zM423 527q-10 -31 -44 -31q-17 0 -27.5 11t-6.5 27l8 28q10 31 44 31q17 0 27.5 -11t6.5 -27zM320 142q-10 -31 -44 -31q-17 0 -27.5 11t-6.5 27l8 28q10 31 44 31q17 0 27.5 -11t6.5 -27z
" />
    <glyph glyph-name="oslash" unicode="&#xf8;" horiz-adv-x="633" 
d="M283 34q95 0 170 78t75 182q0 51 -19 92l-363 -298q48 -54 137 -54zM104 216q0 -51 19 -92l363 298q-49 54 -137 54q-97 0 -171 -79t-74 -181zM109 58l-70 -57q-13 -10 -23 -10q-19 0 -19 18q0 12 11 21l75 61q-32 53 -32 123q0 122 91 215t212 93q105 0 169 -69l72 58
q13 10 23 10q19 0 19 -18q0 -12 -11 -21l-77 -63q32 -53 32 -123q0 -124 -92 -216t-211 -92q-104 0 -169 70z" />
    <glyph glyph-name="ugrave" unicode="&#xf9;" horiz-adv-x="609" 
d="M426 -4q-11 0 -17 8t-3 20l18 71q-89 -107 -193 -107q-76 0 -121.5 44.5t-45.5 117.5q0 28 11 72l71 269q6 23 27 23q11 0 17 -8t3 -20l-71 -268q-8 -30 -8 -63q0 -57 35 -90t96 -33q67 0 129 54t84 136l72 269q6 23 27 23q11 0 17 -8t3 -20l-124 -467q-6 -23 -27 -23z
M348 604l-61 80q-7 8 -7 16t12.5 15.5t26.5 7.5q21 0 28 -18l36 -92q3 -9 3 -12q0 -9 -13 -9q-16 0 -25 12z" />
    <glyph glyph-name="uacute" unicode="&#xfa;" horiz-adv-x="609" 
d="M426 -4q-11 0 -17 8t-3 20l18 71q-89 -107 -193 -107q-76 0 -121.5 44.5t-45.5 117.5q0 28 11 72l71 269q6 23 27 23q11 0 17 -8t3 -20l-71 -268q-8 -30 -8 -63q0 -57 35 -90t96 -33q67 0 129 54t84 136l72 269q6 23 27 23q11 0 17 -8t3 -20l-124 -467q-6 -23 -27 -23z
M521 683l-103 -78q-17 -13 -38 -13q-14 0 -14 10q0 6 5 11l88 95q17 17 29 17q14 0 29 -8.5t15 -16.5q0 -9 -11 -17z" />
    <glyph glyph-name="ucircumflex" unicode="&#xfb;" horiz-adv-x="609" 
d="M426 -4q-11 0 -17 8t-3 20l18 71q-89 -107 -193 -107q-76 0 -121.5 44.5t-45.5 117.5q0 28 11 72l71 269q6 23 27 23q11 0 17 -8t3 -20l-71 -268q-8 -30 -8 -63q0 -57 35 -90t96 -33q67 0 129 54t84 136l72 269q6 23 27 23q11 0 17 -8t3 -20l-124 -467q-6 -23 -27 -23z
M440 702l48 -87q5 -10 5 -13q0 -10 -14 -10q-21 0 -32 14l-44 57l-82 -58q-19 -13 -33 -13t-14 10q0 6 8 14l94 86q18 18 33 18h6q15 0 25 -18z" />
    <glyph glyph-name="udieresis" unicode="&#xfc;" horiz-adv-x="609" 
d="M426 -4q-11 0 -17 8t-3 20l18 71q-89 -107 -193 -107q-76 0 -121.5 44.5t-45.5 117.5q0 28 11 72l71 269q6 23 27 23q11 0 17 -8t3 -20l-71 -268q-8 -30 -8 -63q0 -57 35 -90t96 -33q67 0 129 54t84 136l72 269q6 23 27 23q11 0 17 -8t3 -20l-124 -467q-6 -23 -27 -23z
M340 616q-8 -27 -37 -27q-15 0 -23.5 9.5t-5.5 23.5l9 33q8 27 37 27q15 0 24 -10t5 -23zM503 616q-8 -27 -37 -27q-15 0 -23.5 9.5t-5.5 23.5l9 33q8 27 37 27q15 0 24 -10t5 -23z" />
    <glyph glyph-name="yacute" unicode="&#xfd;" horiz-adv-x="568" 
d="M-46 -98q40 -19 72 -19q40 0 78.5 27.5t84.5 92.5l-96 468q-2 10 -2 18q0 25 24 25q21 0 26 -26l85 -434l296 440q13 20 29 20q22 0 22 -21q0 -10 -6 -19l-338 -492q-54 -78 -103.5 -111.5t-105.5 -33.5q-46 0 -91 24q-14 7 -14 22q0 10 6.5 16.5t16.5 6.5q8 0 16 -4z
M484 683l-103 -78q-17 -13 -38 -13q-14 0 -14 10q0 6 5 11l88 95q17 17 29 17q14 0 29 -8.5t15 -16.5q0 -9 -11 -17z" />
    <glyph glyph-name="thorn" unicode="&#xfe;" 
d="M310 33q101 0 169 80t68 188q0 78 -44 126.5t-114 48.5q-96 0 -175.5 -82t-79.5 -183q0 -75 49.5 -126.5t126.5 -51.5zM-11 -136l227 847q6 23 27 23q11 0 17 -8t3 -20l-80 -296q94 112 212 112q89 0 147 -60.5t58 -154.5q0 -134 -86 -227t-202 -93q-79 0 -130 40.5
t-73 102.5l-73 -271q-6 -23 -27 -23q-11 0 -17 8t-3 20z" />
    <glyph glyph-name="ydieresis" unicode="&#xff;" horiz-adv-x="568" 
d="M-46 -98q40 -19 72 -19q40 0 78.5 27.5t84.5 92.5l-96 468q-2 10 -2 18q0 25 24 25q21 0 26 -26l85 -434l296 440q13 20 29 20q22 0 22 -21q0 -10 -6 -19l-338 -492q-54 -78 -103.5 -111.5t-105.5 -33.5q-46 0 -91 24q-14 7 -14 22q0 10 6.5 16.5t16.5 6.5q8 0 16 -4z
M303 616q-8 -27 -37 -27q-15 0 -23.5 9.5t-5.5 23.5l9 33q8 27 37 27q15 0 24 -10t5 -23zM466 616q-8 -27 -37 -27q-15 0 -23.5 9.5t-5.5 23.5l9 33q8 27 37 27q15 0 24 -10t5 -23z" />
    <glyph glyph-name="Amacron" unicode="&#x100;" horiz-adv-x="741" 
d="M200 243h369l-75 405zM536 682l125 -646q2 -8 2 -16q0 -9 -7 -16.5t-18 -7.5q-22 0 -27 25l-32 175h-413l-131 -181q-15 -19 -28 -19q-9 0 -15.5 6t-6.5 17q0 9 6 15l473 648q19 25 39 25h2q26 0 31 -25zM672 801h-264q-10 0 -17 7t-7 17t7 17t17 7h264q10 0 17 -7t7 -17
t-7 -17t-17 -7z" />
    <glyph glyph-name="amacron" unicode="&#x101;" horiz-adv-x="571" 
d="M199 33q75 0 141.5 47.5t86.5 122.5l12 45q-96 24 -193 24q-76 0 -123.5 -37.5t-47.5 -97.5q0 -47 33.5 -75.5t90.5 -28.5zM398 -4q-11 0 -17 8t-3 20l17 64q-84 -100 -205 -100q-69 0 -118 37.5t-49 105.5q0 84 64 134.5t166 50.5q90 0 196 -29l4 14q7 26 7 51
q0 58 -39.5 89t-114.5 31q-66 0 -129 -21q-8 -2 -13 -2q-20 0 -20 22q0 17 19 23q72 24 147 24q93 0 145.5 -42.5t52.5 -116.5q0 -29 -10 -67l-73 -273q-6 -23 -27 -23zM502 621h-264q-10 0 -17 7t-7 17t7 17t17 7h264q10 0 17 -7t7 -17t-7 -17t-17 -7z" />
    <glyph glyph-name="Abreve" unicode="&#x102;" horiz-adv-x="741" 
d="M200 243h369l-75 405zM536 682l125 -646q2 -8 2 -16q0 -9 -7 -16.5t-18 -7.5q-22 0 -27 25l-32 175h-413l-131 -181q-15 -19 -28 -19q-9 0 -15.5 6t-6.5 17q0 9 6 15l473 648q19 25 39 25h2q26 0 31 -25zM528 773q-46 0 -75 23t-29 69q0 36 24 36q17 0 20 -20
q4 -28 18.5 -42.5t52.5 -14.5q62 0 101 59q12 18 25 18q8 0 14 -5.5t6 -12.5t-3 -13q-22 -46 -63.5 -71.5t-90.5 -25.5z" />
    <glyph glyph-name="abreve" unicode="&#x103;" horiz-adv-x="571" 
d="M199 33q75 0 141.5 47.5t86.5 122.5l12 45q-96 24 -193 24q-76 0 -123.5 -37.5t-47.5 -97.5q0 -47 33.5 -75.5t90.5 -28.5zM398 -4q-11 0 -17 8t-3 20l17 64q-84 -100 -205 -100q-69 0 -118 37.5t-49 105.5q0 84 64 134.5t166 50.5q90 0 196 -29l4 14q7 26 7 51
q0 58 -39.5 89t-114.5 31q-66 0 -129 -21q-8 -2 -13 -2q-20 0 -20 22q0 17 19 23q72 24 147 24q93 0 145.5 -42.5t52.5 -116.5q0 -29 -10 -67l-73 -273q-6 -23 -27 -23zM359 593q-46 0 -75 23t-29 69q0 36 24 36q17 0 20 -20q4 -28 18.5 -42.5t52.5 -14.5q62 0 101 59
q12 18 25 18q8 0 14 -5.5t6 -12.5t-3 -13q-22 -46 -63.5 -71.5t-90.5 -25.5z" />
    <glyph glyph-name="Aogonek" unicode="&#x104;" horiz-adv-x="741" 
d="M618 -163q-47 0 -72.5 19t-25.5 46q0 29 24 54.5t69 54.5l-34 185h-413l-131 -181q-15 -19 -28 -19q-9 0 -15.5 6t-6.5 17q0 9 6 15l473 648q19 25 39 25h2q26 0 31 -25l125 -646q2 -8 2 -16q0 -12 -11 -20q-81 -53 -81 -90q0 -14 11.5 -22t40.5 -14q16 -3 16 -18
q0 -19 -21 -19zM200 243h369l-75 405z" />
    <glyph glyph-name="aogonek" unicode="&#x105;" horiz-adv-x="571" 
d="M410 -2q-77 -52 -77 -88q0 -14 11.5 -22t40.5 -14q16 -3 16 -18q0 -19 -21 -19q-47 0 -72.5 19t-25.5 46q0 51 95 111q0 7 1 11l17 64q-84 -100 -205 -100q-69 0 -118 37.5t-49 105.5q0 84 64 134.5t166 50.5q90 0 196 -29l4 14q7 26 7 51q0 58 -39.5 89t-114.5 31
q-66 0 -129 -21q-8 -2 -13 -2q-20 0 -20 22q0 17 19 23q72 24 147 24q93 0 145.5 -42.5t52.5 -116.5q0 -29 -10 -67l-73 -273q-4 -14 -15 -21zM199 33q75 0 141.5 47.5t86.5 122.5l12 45q-96 24 -193 24q-76 0 -123.5 -37.5t-47.5 -97.5q0 -47 33.5 -75.5t90.5 -28.5z" />
    <glyph glyph-name="Cacute" unicode="&#x106;" horiz-adv-x="738" 
d="M639 92q-112 -105 -261 -105q-120 0 -203 77.5t-83 206.5q0 112 55.5 214t153 164.5t209.5 62.5q82 0 144.5 -34t97.5 -91q7 -12 7 -22q-1 -10 -8 -17t-18 -6q-14 0 -21 11q-34 53 -81.5 82.5t-123.5 29.5q-148 0 -254.5 -120t-106.5 -272q0 -109 66.5 -173.5
t170.5 -64.5q125 0 223 92q9 9 19 9t17 -7t7 -17t-10 -20zM665 863l-103 -78q-17 -13 -38 -13q-14 0 -14 10q0 6 5 11l88 95q17 17 29 17q14 0 29 -8.5t15 -16.5q0 -9 -11 -17z" />
    <glyph glyph-name="cacute" unicode="&#x107;" horiz-adv-x="563" 
d="M459 62q-86 -74 -187 -74q-89 0 -155.5 60t-66.5 160q0 126 89.5 220t210.5 94q123 0 188 -101q7 -10 7 -20q0 -9 -6.5 -15.5t-15.5 -6.5q-15 0 -24 13q-57 84 -152 84q-97 0 -170.5 -80t-73.5 -185q0 -82 50.5 -129.5t121.5 -47.5q80 0 153 62q8 7 19 7q9 0 15 -6.5
t6 -15.5q0 -10 -9 -19zM512 683l-103 -78q-17 -13 -38 -13q-14 0 -14 10q0 6 5 11l88 95q17 17 29 17q14 0 29 -8.5t15 -16.5q0 -9 -11 -17z" />
    <glyph glyph-name="Cdotaccent" unicode="&#x10a;" horiz-adv-x="738" 
d="M639 92q-112 -105 -261 -105q-120 0 -203 77.5t-83 206.5q0 112 55.5 214t153 164.5t209.5 62.5q82 0 144.5 -34t97.5 -91q7 -12 7 -22q-1 -10 -8 -17t-18 -6q-14 0 -21 11q-34 53 -81.5 82.5t-123.5 29.5q-148 0 -254.5 -120t-106.5 -272q0 -109 66.5 -173.5
t170.5 -64.5q125 0 223 92q9 9 19 9t17 -7t7 -17t-10 -20zM566 796q-8 -27 -37 -27q-15 0 -23.5 9.5t-5.5 23.5l9 33q8 27 37 27q15 0 24 -10t5 -23z" />
    <glyph glyph-name="cdotaccent" unicode="&#x10b;" horiz-adv-x="563" 
d="M459 62q-86 -74 -187 -74q-89 0 -155.5 60t-66.5 160q0 126 89.5 220t210.5 94q123 0 188 -101q7 -10 7 -20q0 -9 -6.5 -15.5t-15.5 -6.5q-15 0 -24 13q-57 84 -152 84q-97 0 -170.5 -80t-73.5 -185q0 -82 50.5 -129.5t121.5 -47.5q80 0 153 62q8 7 19 7q9 0 15 -6.5
t6 -15.5q0 -10 -9 -19zM413 616q-8 -27 -37 -27q-15 0 -23.5 9.5t-5.5 23.5l9 33q8 27 37 27q15 0 24 -10t5 -23z" />
    <glyph glyph-name="Ccaron" unicode="&#x10c;" horiz-adv-x="738" 
d="M639 92q-112 -105 -261 -105q-120 0 -203 77.5t-83 206.5q0 112 55.5 214t153 164.5t209.5 62.5q82 0 144.5 -34t97.5 -91q7 -12 7 -22q-1 -10 -8 -17t-18 -6q-14 0 -21 11q-34 53 -81.5 82.5t-123.5 29.5q-148 0 -254.5 -120t-106.5 -272q0 -109 66.5 -173.5
t170.5 -64.5q125 0 223 92q9 9 19 9t17 -7t7 -17t-10 -20zM502 790l-48 87q-5 10 -5 13q0 10 14 10q21 0 32 -14l44 -57l82 58q19 13 33 13t14 -10q0 -6 -8 -14l-94 -86q-18 -18 -33 -18h-6q-15 0 -25 18z" />
    <glyph glyph-name="ccaron" unicode="&#x10d;" horiz-adv-x="563" 
d="M459 62q-86 -74 -187 -74q-89 0 -155.5 60t-66.5 160q0 126 89.5 220t210.5 94q123 0 188 -101q7 -10 7 -20q0 -9 -6.5 -15.5t-15.5 -6.5q-15 0 -24 13q-57 84 -152 84q-97 0 -170.5 -80t-73.5 -185q0 -82 50.5 -129.5t121.5 -47.5q80 0 153 62q8 7 19 7q9 0 15 -6.5
t6 -15.5q0 -10 -9 -19zM349 610l-48 87q-5 10 -5 13q0 10 14 10q21 0 32 -14l44 -57l82 58q19 13 33 13t14 -10q0 -6 -8 -14l-94 -86q-18 -18 -33 -18h-6q-14 0 -25 18z" />
    <glyph glyph-name="Dcaron" unicode="&#x10e;" horiz-adv-x="771" 
d="M101 48h171q190 0 310 120q94 94 94 234q0 108 -65 171q-79 79 -233 79h-115zM247 700h134q178 0 272 -94q77 -77 77 -200q0 -162 -109 -271q-64 -64 -156.5 -99.5t-199.5 -35.5h-200q-11 0 -18 8t-4 18l174 648q3 11 11.5 18.5t18.5 7.5zM460 780l-48 87q-5 10 -5 13
q0 10 14 10q21 0 32 -14l44 -57l82 58q19 13 33 13t14 -10q0 -6 -8 -14l-94 -86q-18 -18 -33 -18h-6q-15 0 -25 18z" />
    <glyph glyph-name="dcaron" unicode="&#x10f;" 
d="M265 33q96 0 175.5 82t79.5 183q0 75 -49.5 126.5t-126.5 51.5q-101 0 -169 -80t-68 -188q0 -78 44 -126.5t114 -48.5zM471 -4q-11 0 -17 8t-3 20l19 75q-94 -112 -211 -112q-89 0 -147 60.5t-58 154.5q0 134 86 227t202 93q79 0 130 -40.5t73 -102.5l89 332q6 23 27 23
q11 0 17 -8t3 -20l-183 -687q-6 -23 -27 -23zM726 597l42 111q10 25 35 25h13q14 0 14 -11q0 -8 -9 -22l-64 -106q-10 -17 -22 -17t-12 9q0 4 3 11z" />
    <glyph glyph-name="Dcroat" unicode="&#x110;" horiz-adv-x="801" 
d="M277 700h134q178 0 272 -94q77 -77 77 -200q0 -162 -109 -271q-64 -64 -156.5 -99.5t-199.5 -35.5h-200q-11 0 -18 8t-4 18l81 302h-48q-10 0 -17 7t-7 17t7 17t17 7h61l80 298q3 11 11.5 18.5t18.5 7.5zM131 48h171q190 0 310 120q94 94 94 234q0 108 -65 171
q-79 79 -233 79h-115l-74 -276h205q10 0 17 -7t7 -17t-7 -17t-17 -7h-218z" />
    <glyph glyph-name="dcroat" unicode="&#x111;" 
d="M471 -4q-11 0 -17 8t-3 20l19 75q-94 -112 -211 -112q-89 0 -147 60.5t-58 154.5q0 134 86 227t202 93q79 0 130 -40.5t73 -102.5l64 240h-161q-9 0 -15.5 6.5t-6.5 15.5t6.5 15.5t15.5 6.5h173l13 48q6 23 27 23q11 0 17 -8t3 -20l-12 -43h47q9 0 15.5 -6.5t6.5 -15.5
t-6.5 -15.5t-15.5 -6.5h-58l-160 -600q-6 -23 -27 -23zM265 33q96 0 175.5 82t79.5 183q0 75 -49.5 126.5t-126.5 51.5q-101 0 -169 -80t-68 -188q0 -78 44 -126.5t114 -48.5z" />
    <glyph glyph-name="Emacron" unicode="&#x112;" horiz-adv-x="649" 
d="M520 0h-455q-11 0 -18 8t-4 18l174 648q3 11 11.5 18.5t18.5 7.5h443q10 0 17 -7t7 -17t-7 -17t-17 -7h-427l-74 -275h369q10 0 17 -7t7 -17t-7 -17t-17 -7h-382l-75 -281h419q10 0 17 -7t7 -17t-7 -17t-17 -7zM628 791h-264q-10 0 -17 7t-7 17t7 17t17 7h264q10 0 17 -7
t7 -17t-7 -17t-17 -7z" />
    <glyph glyph-name="emacron" unicode="&#x113;" horiz-adv-x="583" 
d="M114 282h370q4 18 4 42q0 66 -36.5 109.5t-107.5 43.5q-82 0 -144.5 -56t-85.5 -139zM272 34q90 0 161 58q9 7 19 7q9 0 15 -6t6 -15q0 -12 -10 -20q-83 -70 -191 -70q-98 0 -160 60t-62 154q0 123 87 221.5t208 98.5q92 0 142.5 -56t50.5 -139q0 -33 -7 -66
q-5 -23 -30 -23h-396q-2 -22 -2 -34q0 -77 47 -123.5t122 -46.5zM524 621h-264q-10 0 -17 7t-7 17t7 17t17 7h264q10 0 17 -7t7 -17t-7 -17t-17 -7z" />
    <glyph glyph-name="Ebreve" unicode="&#x114;" horiz-adv-x="649" 
d="M520 0h-455q-11 0 -18 8t-4 18l174 648q3 11 11.5 18.5t18.5 7.5h443q10 0 17 -7t7 -17t-7 -17t-17 -7h-427l-74 -275h369q10 0 17 -7t7 -17t-7 -17t-17 -7h-382l-75 -281h419q10 0 17 -7t7 -17t-7 -17t-17 -7zM484 763q-46 0 -75 23t-29 69q0 36 24 36q17 0 20 -20
q4 -28 18.5 -42.5t52.5 -14.5q62 0 101 59q12 18 25 18q8 0 14 -5.5t6 -12.5t-3 -13q-22 -46 -63.5 -71.5t-90.5 -25.5z" />
    <glyph glyph-name="ebreve" unicode="&#x115;" horiz-adv-x="583" 
d="M114 282h370q4 18 4 42q0 66 -36.5 109.5t-107.5 43.5q-82 0 -144.5 -56t-85.5 -139zM272 34q90 0 161 58q9 7 19 7q9 0 15 -6t6 -15q0 -12 -10 -20q-83 -70 -191 -70q-98 0 -160 60t-62 154q0 123 87 221.5t208 98.5q92 0 142.5 -56t50.5 -139q0 -33 -7 -66
q-5 -23 -30 -23h-396q-2 -22 -2 -34q0 -77 47 -123.5t122 -46.5zM380 593q-46 0 -75 23t-29 69q0 36 24 36q17 0 20 -20q4 -28 18.5 -42.5t52.5 -14.5q62 0 101 59q12 18 25 18q8 0 14 -5.5t6 -12.5t-3 -13q-22 -46 -63.5 -71.5t-90.5 -25.5z" />
    <glyph glyph-name="Edotaccent" unicode="&#x116;" horiz-adv-x="649" 
d="M520 0h-455q-11 0 -18 8t-4 18l174 648q3 11 11.5 18.5t18.5 7.5h443q10 0 17 -7t7 -17t-7 -17t-17 -7h-427l-74 -275h369q10 0 17 -7t7 -17t-7 -17t-17 -7h-382l-75 -281h419q10 0 17 -7t7 -17t-7 -17t-17 -7zM521 786q-8 -27 -37 -27q-15 0 -23.5 9.5t-5.5 23.5l9 33
q8 27 37 27q15 0 24 -10t5 -23z" />
    <glyph glyph-name="edotaccent" unicode="&#x117;" horiz-adv-x="583" 
d="M114 282h370q4 18 4 42q0 66 -36.5 109.5t-107.5 43.5q-82 0 -144.5 -56t-85.5 -139zM272 34q90 0 161 58q9 7 19 7q9 0 15 -6t6 -15q0 -12 -10 -20q-83 -70 -191 -70q-98 0 -160 60t-62 154q0 123 87 221.5t208 98.5q92 0 142.5 -56t50.5 -139q0 -33 -7 -66
q-5 -23 -30 -23h-396q-2 -22 -2 -34q0 -77 47 -123.5t122 -46.5zM417 616q-8 -27 -37 -27q-15 0 -23.5 9.5t-5.5 23.5l9 33q8 27 37 27q15 0 24 -10t5 -23z" />
    <glyph glyph-name="Eogonek" unicode="&#x118;" horiz-adv-x="649" 
d="M529 1q-82 -54 -82 -91q0 -14 11.5 -22t40.5 -14q16 -3 16 -18q0 -19 -21 -19q-47 0 -72.5 19t-25.5 46q0 47 75 98h-406q-11 0 -18 8t-4 18l174 648q3 11 11.5 18.5t18.5 7.5h443q10 0 17 -7t7 -17t-7 -17t-17 -7h-427l-74 -275h369q10 0 17 -7t7 -17t-7 -17t-17 -7
h-382l-75 -281h418q25 0 25 -22q0 -14 -15 -25z" />
    <glyph glyph-name="eogonek" unicode="&#x119;" horiz-adv-x="583" 
d="M388 1q-44 -34 -60.5 -53t-16.5 -38q0 -14 11.5 -22t40.5 -14q16 -3 16 -18q0 -19 -21 -19q-47 0 -72.5 19t-25.5 46q0 45 64 90q-34 -4 -52 -4q-98 0 -160 60t-62 154q0 123 87 221.5t208 98.5q92 0 142.5 -56t50.5 -139q0 -33 -7 -66q-5 -23 -30 -23h-396
q-2 -22 -2 -34q0 -77 47 -123.5t122 -46.5q90 0 161 58q9 7 19 7q9 0 15 -6t6 -15q0 -12 -10 -20zM114 282h370q4 18 4 42q0 66 -36.5 109.5t-107.5 43.5q-82 0 -144.5 -56t-85.5 -139z" />
    <glyph glyph-name="Ecaron" unicode="&#x11a;" horiz-adv-x="649" 
d="M520 0h-455q-11 0 -18 8t-4 18l174 648q3 11 11.5 18.5t18.5 7.5h443q10 0 17 -7t7 -17t-7 -17t-17 -7h-427l-74 -275h369q10 0 17 -7t7 -17t-7 -17t-17 -7h-382l-75 -281h419q10 0 17 -7t7 -17t-7 -17t-17 -7zM458 780l-48 87q-5 10 -5 13q0 10 14 10q21 0 32 -14
l44 -57l82 58q19 13 33 13t14 -10q0 -6 -8 -14l-94 -86q-18 -18 -33 -18h-6q-15 0 -25 18z" />
    <glyph glyph-name="ecaron" unicode="&#x11b;" horiz-adv-x="583" 
d="M114 282h370q4 18 4 42q0 66 -36.5 109.5t-107.5 43.5q-82 0 -144.5 -56t-85.5 -139zM272 34q90 0 161 58q9 7 19 7q9 0 15 -6t6 -15q0 -12 -10 -20q-83 -70 -191 -70q-98 0 -160 60t-62 154q0 123 87 221.5t208 98.5q92 0 142.5 -56t50.5 -139q0 -33 -7 -66
q-5 -23 -30 -23h-396q-2 -22 -2 -34q0 -77 47 -123.5t122 -46.5zM353 610l-48 87q-5 10 -5 13q0 10 14 10q21 0 32 -14l44 -57l82 58q19 13 33 13t14 -10q0 -6 -8 -14l-94 -86q-18 -18 -33 -18h-6q-14 0 -25 18z" />
    <glyph glyph-name="Gbreve" unicode="&#x11e;" horiz-adv-x="786" 
d="M721 335l-72 -252q-6 -22 -25 -33q-110 -63 -228 -63q-132 0 -217 81t-85 214q0 108 55 206.5t154.5 161t217.5 62.5q155 0 238 -104q10 -12 10 -22t-6.5 -17.5t-17.5 -7.5q-13 0 -21 11q-65 93 -208 93q-102 0 -188 -56t-133 -143t-47 -182q0 -116 69 -183t182 -67
q116 0 202 57l64 224h-209q-10 0 -17 7t-7 17t7 17t17 7h242q12 0 19 -9t4 -19zM542 773q-46 0 -75 23t-29 69q0 36 24 36q17 0 20 -20q4 -28 18.5 -42.5t52.5 -14.5q62 0 101 59q12 18 25 18q8 0 14 -5.5t6 -12.5t-3 -13q-22 -46 -63.5 -71.5t-90.5 -25.5z" />
    <glyph glyph-name="gbreve" unicode="&#x11f;" 
d="M282 84q95 0 169.5 70.5t74.5 157.5q0 65 -49.5 114t-129.5 49q-93 0 -163.5 -67t-70.5 -169q0 -73 50 -114t119 -41zM548 386l28 105q6 23 27 23q11 0 17 -8t3 -20l-112 -423q-27 -99 -80 -152q-73 -73 -195 -73q-127 0 -226 82q-11 9 -11 23q0 9 6.5 16t16.5 7
q11 0 20 -7q88 -75 196 -75q100 0 157 57q45 45 70 134l18 64q-95 -101 -210 -101q-86 0 -149.5 54.5t-63.5 143.5q0 123 88 204.5t201 81.5q140 0 199 -136zM417 593q-46 0 -75 23t-29 69q0 36 24 36q17 0 20 -20q4 -28 18.5 -42.5t52.5 -14.5q62 0 101 59q12 18 25 18
q8 0 14 -5.5t6 -12.5t-3 -13q-22 -46 -63.5 -71.5t-90.5 -25.5z" />
    <glyph glyph-name="Gdotaccent" unicode="&#x120;" horiz-adv-x="786" 
d="M721 335l-72 -252q-6 -22 -25 -33q-110 -63 -228 -63q-132 0 -217 81t-85 214q0 108 55 206.5t154.5 161t217.5 62.5q155 0 238 -104q10 -12 10 -22t-6.5 -17.5t-17.5 -7.5q-13 0 -21 11q-65 93 -208 93q-102 0 -188 -56t-133 -143t-47 -182q0 -116 69 -183t182 -67
q116 0 202 57l64 224h-209q-10 0 -17 7t-7 17t7 17t17 7h242q12 0 19 -9t4 -19zM579 796q-8 -27 -37 -27q-15 0 -23.5 9.5t-5.5 23.5l9 33q8 27 37 27q15 0 24 -10t5 -23z" />
    <glyph glyph-name="gdotaccent" unicode="&#x121;" 
d="M282 84q95 0 169.5 70.5t74.5 157.5q0 65 -49.5 114t-129.5 49q-93 0 -163.5 -67t-70.5 -169q0 -73 50 -114t119 -41zM548 386l28 105q6 23 27 23q11 0 17 -8t3 -20l-112 -423q-27 -99 -80 -152q-73 -73 -195 -73q-127 0 -226 82q-11 9 -11 23q0 9 6.5 16t16.5 7
q11 0 20 -7q88 -75 196 -75q100 0 157 57q45 45 70 134l18 64q-95 -101 -210 -101q-86 0 -149.5 54.5t-63.5 143.5q0 123 88 204.5t201 81.5q140 0 199 -136zM454 616q-8 -27 -37 -27q-15 0 -23.5 9.5t-5.5 23.5l9 33q8 27 37 27q15 0 24 -10t5 -23z" />
    <glyph glyph-name="Gcommaaccent" unicode="&#x122;" horiz-adv-x="786" 
d="M721 335l-72 -252q-6 -22 -25 -33q-110 -63 -228 -63q-132 0 -217 81t-85 214q0 108 55 206.5t154.5 161t217.5 62.5q155 0 238 -104q10 -12 10 -22t-6.5 -17.5t-17.5 -7.5q-13 0 -21 11q-65 93 -208 93q-102 0 -188 -56t-133 -143t-47 -182q0 -116 69 -183t182 -67
q116 0 202 57l64 224h-209q-10 0 -17 7t-7 17t7 17t17 7h242q12 0 19 -9t4 -19zM298 -147q-24 5 -24 27q0 18 11 34t32 16q32 0 32 -32q0 -21 -11 -47t-27 -42q-33 -33 -81 -33q-12 0 -12 10q0 11 18 15q27 7 41.5 19t20.5 33z" />
    <glyph glyph-name="gcommaaccent" unicode="&#x123;" 
d="M282 84q95 0 169.5 70.5t74.5 157.5q0 65 -49.5 114t-129.5 49q-93 0 -163.5 -67t-70.5 -169q0 -73 50 -114t119 -41zM548 386l28 105q6 23 27 23q11 0 17 -8t3 -20l-112 -423q-27 -99 -80 -152q-73 -73 -195 -73q-127 0 -226 82q-11 9 -11 23q0 9 6.5 16t16.5 7
q11 0 20 -7q88 -75 196 -75q100 0 157 57q45 45 70 134l18 64q-95 -101 -210 -101q-86 0 -149.5 54.5t-63.5 143.5q0 123 88 204.5t201 81.5q140 0 199 -136zM435 666q24 -5 24 -27q0 -18 -11 -34t-32 -16q-32 0 -32 32q0 21 11 47t27 42q33 33 81 33q12 0 12 -10
q0 -11 -18 -15q-27 -7 -41.5 -19t-20.5 -33z" />
    <glyph glyph-name="Hbar" unicode="&#x126;" horiz-adv-x="756" 
d="M764 674l-32 -119h48q10 0 17 -7t7 -16t-7 -16t-17 -7h-61l-131 -490q-6 -23 -28 -23q-11 0 -18.5 8.5t-3.5 21.5l81 302h-443l-83 -309q-6 -23 -28 -23q-11 0 -18.5 8.5t-3.5 21.5l130 483h-48q-10 0 -17 7t-7 16t7 16t17 7h60l34 126q6 23 28 23q11 0 18.5 -8.5
t3.5 -21.5l-32 -119h443l34 126q6 23 28 23q11 0 18.5 -8.5t3.5 -21.5zM189 376h443l36 133h-444z" />
    <glyph glyph-name="hbar" unicode="&#x127;" horiz-adv-x="609" 
d="M534 288l-71 -269q-6 -23 -27 -23q-11 0 -17 8t-3 20l71 268q8 30 8 63q0 57 -35 90t-96 33q-67 0 -129 -54t-84 -136l-72 -269q-6 -23 -27 -23q-11 0 -17 8t-3 20l159 595h-47q-9 0 -15.5 6.5t-6.5 15.5t6.5 15.5t15.5 6.5h59l13 48q6 23 27 23q11 0 17 -8t3 -20
l-12 -43h161q9 0 15.5 -6.5t6.5 -15.5t-6.5 -15.5t-15.5 -6.5h-173l-54 -204q89 107 193 107q76 0 121.5 -44.5t45.5 -117.5q0 -28 -11 -72z" />
    <glyph glyph-name="Imacron" unicode="&#x12a;" horiz-adv-x="274" 
d="M276 674l-176 -655q-6 -23 -28 -23q-11 0 -18.5 8.5t-3.5 21.5l176 655q6 23 28 23q11 0 18.5 -8.5t3.5 -21.5zM420 791h-264q-10 0 -17 7t-7 17t7 17t17 7h264q10 0 17 -7t7 -17t-7 -17t-17 -7z" />
    <glyph glyph-name="imacron" unicode="&#x12b;" horiz-adv-x="250" 
d="M211 486l-125 -467q-6 -23 -27 -23q-11 0 -17 8t-3 20l125 467q6 23 27 23q11 0 17 -8t3 -20zM362 621h-264q-10 0 -17 7t-7 17t7 17t17 7h264q10 0 17 -7t7 -17t-7 -17t-17 -7z" />
    <glyph glyph-name="Ibreve" unicode="&#x12c;" horiz-adv-x="274" 
d="M276 674l-176 -655q-6 -23 -28 -23q-11 0 -18.5 8.5t-3.5 21.5l176 655q6 23 28 23q11 0 18.5 -8.5t3.5 -21.5zM276 763q-46 0 -75 23t-29 69q0 36 24 36q17 0 20 -20q4 -28 18.5 -42.5t52.5 -14.5q62 0 101 59q12 18 25 18q8 0 14 -5.5t6 -12.5t-3 -13
q-22 -46 -63.5 -71.5t-90.5 -25.5z" />
    <glyph glyph-name="ibreve" unicode="&#x12d;" horiz-adv-x="250" 
d="M211 486l-125 -467q-6 -23 -27 -23q-11 0 -17 8t-3 20l125 467q6 23 27 23q11 0 17 -8t3 -20zM218 593q-46 0 -75 23t-29 69q0 36 24 36q17 0 20 -20q4 -28 18.5 -42.5t52.5 -14.5q62 0 101 59q12 18 25 18q8 0 14 -5.5t6 -12.5t-3 -13q-22 -46 -63.5 -71.5t-90.5 -25.5z
" />
    <glyph glyph-name="Iogonek" unicode="&#x12e;" horiz-adv-x="274" 
d="M54 -163q-47 0 -72.5 19t-25.5 46q0 50 94 110q-1 7 0 14l176 655q6 23 28 23q11 0 18.5 -8.5t3.5 -21.5l-176 -655q-4 -13 -17 -22q-76 -53 -76 -87q0 -14 11.5 -22t40.5 -14q16 -3 16 -18q0 -19 -21 -19z" />
    <glyph glyph-name="iogonek" unicode="&#x12f;" horiz-adv-x="250" 
d="M211 486l-125 -467q-4 -14 -15 -21q-77 -52 -77 -88q0 -14 11.5 -22t40.5 -14q16 -3 16 -18q0 -19 -21 -19q-47 0 -72.5 19t-25.5 46q0 51 95 111q0 7 1 11l125 467q6 23 27 23q11 0 17 -8t3 -20zM265 661q-6 -23 -34 -23q-14 0 -21.5 8t-4.5 20l7 26q6 23 34 23
q14 0 21.5 -8t4.5 -20z" />
    <glyph glyph-name="Idotaccent" unicode="&#x130;" horiz-adv-x="274" 
d="M276 674l-176 -655q-6 -23 -28 -23q-11 0 -18.5 8.5t-3.5 21.5l176 655q6 23 28 23q11 0 18.5 -8.5t3.5 -21.5zM314 786q-8 -27 -37 -27q-15 0 -23.5 9.5t-5.5 23.5l9 33q8 27 37 27q15 0 24 -10t5 -23z" />
    <glyph glyph-name="dotlessi" unicode="&#x131;" horiz-adv-x="250" 
d="M211 486l-125 -467q-6 -23 -27 -23q-11 0 -17 8t-3 20l125 467q6 23 27 23q11 0 17 -8t3 -20z" />
    <glyph glyph-name="Kcommaaccent" unicode="&#x136;" horiz-adv-x="714" 
d="M135 175l-42 -156q-6 -23 -28 -23q-11 0 -18.5 8.5t-3.5 21.5l176 655q6 23 28 23q11 0 18.5 -8.5t3.5 -21.5l-115 -429l554 450q11 9 22 9q10 0 16.5 -6.5t6.5 -16.5q0 -12 -12 -21l-339 -273l190 -347q6 -11 6 -19q0 -11 -7 -18t-18 -7q-17 0 -27 18l-187 343z
M266 -142q-24 5 -24 27q0 18 11 34t32 16q32 0 32 -32q0 -21 -11 -47t-27 -42q-33 -33 -81 -33q-12 0 -12 10q0 11 18 15q27 7 41.5 19t20.5 33z" />
    <glyph glyph-name="kcommaaccent" unicode="&#x137;" horiz-adv-x="560" 
d="M263 706l-138 -517l391 317q10 8 21 8q21 0 21 -20q0 -12 -11 -20l-239 -192l131 -243q7 -12 7 -19q0 -10 -7 -17t-18 -7q-16 0 -25 17l-129 239l-160 -128l-28 -105q-6 -23 -27 -23q-11 0 -17 8t-3 20l184 687q6 23 27 23q11 0 17 -8t3 -20zM183 -147q-24 5 -24 27
q0 18 11 34t32 16q32 0 32 -32q0 -21 -11 -47t-27 -42q-33 -33 -81 -33q-12 0 -12 10q0 11 18 15q27 7 41.5 19t20.5 33z" />
    <glyph glyph-name="Lacute" unicode="&#x139;" horiz-adv-x="600" 
d="M485 0h-420q-11 0 -18 8t-4 18l176 655q6 23 28 23q11 0 18.5 -8.5t3.5 -21.5l-168 -626h384q10 0 17 -7t7 -17t-7 -17t-17 -7zM416 853l-103 -78q-17 -13 -38 -13q-14 0 -14 10q0 6 5 11l88 95q17 17 29 17q14 0 29 -8.5t15 -16.5q0 -9 -11 -17z" />
    <glyph glyph-name="lacute" unicode="&#x13a;" horiz-adv-x="250" 
d="M270 706l-184 -687q-6 -23 -27 -23q-11 0 -17 8t-3 20l184 687q6 23 27 23q11 0 17 -8t3 -20zM407 876l-103 -78q-17 -13 -38 -13q-14 0 -14 10q0 6 5 11l88 95q17 17 29 17q14 0 29 -8.5t15 -16.5q0 -9 -11 -17z" />
    <glyph glyph-name="Lcommaaccent" unicode="&#x13b;" horiz-adv-x="600" 
d="M485 0h-420q-11 0 -18 8t-4 18l176 655q6 23 28 23q11 0 18.5 -8.5t3.5 -21.5l-168 -626h384q10 0 17 -7t7 -17t-7 -17t-17 -7zM213 -147q-24 5 -24 27q0 18 11 34t32 16q32 0 32 -32q0 -21 -11 -47t-27 -42q-33 -33 -81 -33q-12 0 -12 10q0 11 18 15q27 7 41.5 19
t20.5 33z" />
    <glyph glyph-name="lcommaaccent" unicode="&#x13c;" horiz-adv-x="250" 
d="M270 706l-184 -687q-6 -23 -27 -23q-11 0 -17 8t-3 20l184 687q6 23 27 23q11 0 17 -8t3 -20zM23 -147q-24 5 -24 27q0 18 11 34t32 16q32 0 32 -32q0 -21 -11 -47t-27 -42q-33 -33 -81 -33q-12 0 -12 10q0 11 18 15q27 7 41.5 19t20.5 33z" />
    <glyph glyph-name="Lcaron" unicode="&#x13d;" horiz-adv-x="600" 
d="M485 0h-420q-11 0 -18 8t-4 18l176 655q6 23 28 23q11 0 18.5 -8.5t3.5 -21.5l-168 -626h384q10 0 17 -7t7 -17t-7 -17t-17 -7zM326 567l42 111q10 25 35 25h13q14 0 14 -11q0 -8 -9 -22l-64 -106q-10 -17 -22 -17t-12 9q0 4 3 11z" />
    <glyph glyph-name="lcaron" unicode="&#x13e;" horiz-adv-x="250" 
d="M270 706l-184 -687q-6 -23 -27 -23q-11 0 -17 8t-3 20l184 687q6 23 27 23q11 0 17 -8t3 -20zM297 597l42 111q10 25 35 25h13q14 0 14 -11q0 -8 -9 -22l-64 -106q-10 -17 -22 -17t-12 9q0 4 3 11z" />
    <glyph glyph-name="Ldot" unicode="&#x13f;" horiz-adv-x="600" 
d="M519 347q-8 -29 -40 -29q-16 0 -25 10.5t-6 24.5l7 25q8 29 40 29q16 0 25.5 -10.5t5.5 -24.5zM485 0h-420q-11 0 -18 8t-4 18l176 655q6 23 28 23q11 0 18.5 -8.5t3.5 -21.5l-168 -626h384q10 0 17 -7t7 -17t-7 -17t-17 -7z" />
    <glyph glyph-name="ldot" unicode="&#x140;" horiz-adv-x="310" 
d="M341 350q-8 -29 -39 -29q-16 0 -25 10.5t-6 24.5l7 25q8 29 40 29q16 0 25 -10.5t5 -24.5zM270 706l-184 -687q-6 -23 -27 -23q-11 0 -17 8t-3 20l184 687q6 23 27 23q11 0 17 -8t3 -20z" />
    <glyph glyph-name="Lslash" unicode="&#x141;" horiz-adv-x="650" 
d="M116 344l67 19l86 318q6 23 28 23q11 0 18.5 -8.5t3.5 -21.5l-79 -295l204 59q12 3 18 3q19 0 19 -20q0 -16 -23 -23l-231 -66l-76 -284h384q10 0 17 -7t7 -17t-7 -17t-17 -7h-420q-11 0 -18 8t-4 18l77 289l-40 -11q-12 -3 -18 -3q-19 0 -19 20q0 16 23 23z" />
    <glyph glyph-name="lslash" unicode="&#x142;" horiz-adv-x="309" 
d="M93 364l72 20l88 327q6 23 27 23q11 0 17 -8t3 -20l-82 -307l43 13q12 3 16 3q20 0 20 -22q0 -16 -17 -21l-75 -22l-89 -331q-6 -23 -27 -23q-11 0 -17 8t-3 20l83 311l-40 -11q-12 -3 -16 -3q-20 0 -20 22q0 16 17 21z" />
    <glyph glyph-name="Nacute" unicode="&#x143;" horiz-adv-x="786" 
d="M587 87l160 594q6 23 27 23q11 0 18 -8t3 -22l-176 -655q-6 -22 -24 -22h-1q-16 0 -27 21l-313 608l-163 -607q-6 -23 -27 -23q-11 0 -18 8t-3 22l175 651q7 26 30 26h2q20 0 34 -26zM668 853l-103 -78q-17 -13 -38 -13q-14 0 -14 10q0 6 5 11l88 95q17 17 29 17
q14 0 29 -8.5t15 -16.5q0 -9 -11 -17z" />
    <glyph glyph-name="nacute" unicode="&#x144;" horiz-adv-x="611" 
d="M183 514q11 0 17 -8t3 -20l-18 -71q89 107 193 107q76 0 121.5 -44.5t45.5 -117.5q0 -28 -11 -72l-71 -269q-6 -23 -27 -23q-11 0 -17 8t-3 20l71 268q8 30 8 63q0 57 -35 90t-96 33q-67 0 -129 -54t-84 -136l-72 -269q-6 -23 -27 -23q-11 0 -17 8t-3 20l124 467
q6 23 27 23zM533 683l-103 -78q-17 -13 -38 -13q-14 0 -14 10q0 6 5 11l88 95q17 17 29 17q14 0 29 -8.5t15 -16.5q0 -9 -11 -17z" />
    <glyph glyph-name="Ncommaaccent" unicode="&#x145;" horiz-adv-x="786" 
d="M587 87l160 594q6 23 27 23q11 0 18 -8t3 -22l-176 -655q-6 -22 -24 -22h-1q-16 0 -27 21l-313 608l-163 -607q-6 -23 -27 -23q-11 0 -18 8t-3 22l175 651q7 26 30 26h2q20 0 34 -26zM292 -142q-24 5 -24 27q0 18 11 34t32 16q32 0 32 -32q0 -21 -11 -47t-27 -42
q-33 -33 -81 -33q-12 0 -12 10q0 11 18 15q27 7 41.5 19t20.5 33z" />
    <glyph glyph-name="ncommaaccent" unicode="&#x146;" horiz-adv-x="611" 
d="M183 514q11 0 17 -8t3 -20l-18 -71q89 107 193 107q76 0 121.5 -44.5t45.5 -117.5q0 -28 -11 -72l-71 -269q-6 -23 -27 -23q-11 0 -17 8t-3 20l71 268q8 30 8 63q0 57 -35 90t-96 33q-67 0 -129 -54t-84 -136l-72 -269q-6 -23 -27 -23q-11 0 -17 8t-3 20l124 467
q6 23 27 23zM202 -147q-24 5 -24 27q0 18 11 34t32 16q32 0 32 -32q0 -21 -11 -47t-27 -42q-33 -33 -81 -33q-12 0 -12 10q0 11 18 15q27 7 41.5 19t20.5 33z" />
    <glyph glyph-name="Ncaron" unicode="&#x147;" horiz-adv-x="786" 
d="M587 87l160 594q6 23 27 23q11 0 18 -8t3 -22l-176 -655q-6 -22 -24 -22h-1q-16 0 -27 21l-313 608l-163 -607q-6 -23 -27 -23q-11 0 -18 8t-3 22l175 651q7 26 30 26h2q20 0 34 -26zM506 780l-48 87q-5 10 -5 13q0 10 14 10q21 0 32 -14l44 -57l82 58q19 13 33 13
t14 -10q0 -6 -8 -14l-94 -86q-18 -18 -33 -18h-6q-15 0 -25 18z" />
    <glyph glyph-name="ncaron" unicode="&#x148;" horiz-adv-x="611" 
d="M183 514q11 0 17 -8t3 -20l-18 -71q89 107 193 107q76 0 121.5 -44.5t45.5 -117.5q0 -28 -11 -72l-71 -269q-6 -23 -27 -23q-11 0 -17 8t-3 20l71 268q8 30 8 63q0 57 -35 90t-96 33q-67 0 -129 -54t-84 -136l-72 -269q-6 -23 -27 -23q-11 0 -17 8t-3 20l124 467
q6 23 27 23zM371 610l-48 87q-5 10 -5 13q0 10 14 10q21 0 32 -14l44 -57l82 58q19 13 33 13t14 -10q0 -6 -8 -14l-94 -86q-18 -18 -33 -18h-6q-14 0 -25 18z" />
    <glyph glyph-name="Omacron" unicode="&#x14c;" horiz-adv-x="846" 
d="M398 -13q-131 0 -216.5 86.5t-85.5 214.5q0 108 53.5 206t147 158t202.5 60q131 0 216.5 -86.5t85.5 -214.5q0 -108 -53.5 -206t-147 -158t-202.5 -60zM398 34q96 0 177 54t126.5 140.5t45.5 182.5q0 109 -69 181.5t-179 72.5q-96 0 -177 -54t-126.5 -140.5t-45.5 -182.5
q0 -109 69 -181.5t179 -72.5zM695 801h-264q-10 0 -17 7t-7 17t7 17t17 7h264q10 0 17 -7t7 -17t-7 -17t-17 -7z" />
    <glyph glyph-name="omacron" unicode="&#x14d;" horiz-adv-x="633" 
d="M278 -12q-101 0 -164 63.5t-63 162.5q0 122 91 215t212 93q101 0 164 -63.5t63 -162.5q0 -124 -92 -216t-211 -92zM283 34q95 0 170 78t75 182q0 85 -49 133.5t-130 48.5q-97 0 -171 -79t-74 -181q0 -85 49 -133.5t130 -48.5zM547 621h-264q-10 0 -17 7t-7 17t7 17t17 7
h264q10 0 17 -7t7 -17t-7 -17t-17 -7z" />
    <glyph glyph-name="Obreve" unicode="&#x14e;" horiz-adv-x="846" 
d="M398 -13q-131 0 -216.5 86.5t-85.5 214.5q0 108 53.5 206t147 158t202.5 60q131 0 216.5 -86.5t85.5 -214.5q0 -108 -53.5 -206t-147 -158t-202.5 -60zM398 34q96 0 177 54t126.5 140.5t45.5 182.5q0 109 -69 181.5t-179 72.5q-96 0 -177 -54t-126.5 -140.5t-45.5 -182.5
q0 -109 69 -181.5t179 -72.5zM551 773q-46 0 -75 23t-29 69q0 36 24 36q17 0 20 -20q4 -28 18.5 -42.5t52.5 -14.5q62 0 101 59q12 18 25 18q8 0 14 -5.5t6 -12.5t-3 -13q-22 -46 -63.5 -71.5t-90.5 -25.5z" />
    <glyph glyph-name="obreve" unicode="&#x14f;" horiz-adv-x="633" 
d="M278 -12q-101 0 -164 63.5t-63 162.5q0 122 91 215t212 93q101 0 164 -63.5t63 -162.5q0 -124 -92 -216t-211 -92zM283 34q95 0 170 78t75 182q0 85 -49 133.5t-130 48.5q-97 0 -171 -79t-74 -181q0 -85 49 -133.5t130 -48.5zM403 593q-46 0 -75 23t-29 69q0 36 24 36
q17 0 20 -20q4 -28 18.5 -42.5t52.5 -14.5q62 0 101 59q12 18 25 18q8 0 14 -5.5t6 -12.5t-3 -13q-22 -46 -63.5 -71.5t-90.5 -25.5z" />
    <glyph glyph-name="Ohungarumlaut" unicode="&#x150;" horiz-adv-x="846" 
d="M398 -13q-131 0 -216.5 86.5t-85.5 214.5q0 108 53.5 206t147 158t202.5 60q131 0 216.5 -86.5t85.5 -214.5q0 -108 -53.5 -206t-147 -158t-202.5 -60zM398 34q96 0 177 54t126.5 140.5t45.5 182.5q0 109 -69 181.5t-179 72.5q-96 0 -177 -54t-126.5 -140.5t-45.5 -182.5
q0 -109 69 -181.5t179 -72.5zM541 905q11 0 18.5 -8t7.5 -16q0 -11 -12 -20l-95 -76q-17 -13 -33 -13q-11 0 -11 9q0 6 6 12l89 95q17 17 30 17zM693 905q11 0 18.5 -8t7.5 -16q0 -11 -12 -20l-95 -76q-17 -13 -33 -13q-11 0 -11 9q0 6 6 12l89 95q17 17 30 17z" />
    <glyph glyph-name="ohungarumlaut" unicode="&#x151;" horiz-adv-x="633" 
d="M278 -12q-101 0 -164 63.5t-63 162.5q0 122 91 215t212 93q101 0 164 -63.5t63 -162.5q0 -124 -92 -216t-211 -92zM283 34q95 0 170 78t75 182q0 85 -49 133.5t-130 48.5q-97 0 -171 -79t-74 -181q0 -85 49 -133.5t130 -48.5zM393 725q11 0 18.5 -8t7.5 -16
q0 -11 -12 -20l-95 -76q-17 -13 -33 -13q-11 0 -11 9q0 6 6 12l89 95q17 17 30 17zM545 725q11 0 18.5 -8t7.5 -16q0 -11 -12 -20l-95 -76q-17 -13 -33 -13q-11 0 -11 9q0 6 6 12l89 95q17 17 30 17z" />
    <glyph glyph-name="OE" unicode="&#x152;" horiz-adv-x="1154" 
d="M444 48h105l162 604h-161q-190 0 -310 -120q-94 -94 -94 -234q0 -106 65 -171q79 -79 233 -79zM1009 0h-568q-178 0 -272 94q-77 77 -77 200q0 162 109 271q64 64 156.5 99.5t199.5 35.5h622q10 0 17 -7t7 -17t-7 -17t-17 -7h-416l-74 -275h358q10 0 17 -7t7 -17t-7 -17
t-17 -7h-371l-75 -281h408q10 0 17 -7t7 -17t-7 -17t-17 -7z" />
    <glyph glyph-name="oe" unicode="&#x153;" horiz-adv-x="1046" 
d="M579 282h370q4 18 4 42q0 66 -36.5 109.5t-107.5 43.5q-82 0 -144.5 -56t-85.5 -139zM283 34q94 0 169.5 77t75.5 178q0 88 -49 137.5t-130 49.5q-97 0 -171 -79t-74 -181q0 -85 49 -133.5t130 -48.5zM737 34q89 0 161 58q9 7 19 7q9 0 15 -6t6 -15q0 -12 -10 -20
q-82 -70 -188 -70q-81 0 -138 42.5t-73 112.5q-41 -68 -106 -111.5t-148 -43.5q-97 0 -160.5 64t-63.5 162q0 122 91 215t212 93q84 0 139 -46t71 -117q88 163 246 163q92 0 142.5 -56t50.5 -139q0 -35 -8 -69q-4 -20 -25 -20h-400q-2 -22 -2 -34q0 -77 47 -123.5t122 -46.5
z" />
    <glyph glyph-name="Racute" unicode="&#x154;" horiz-adv-x="713" 
d="M166 290l-73 -271q-6 -23 -28 -23q-11 0 -18.5 8.5t-3.5 21.5l174 648q3 11 11.5 18.5t18.5 7.5h228q126 0 188 -62q44 -44 44 -114q0 -84 -62 -146q-68 -68 -206 -83l132 -253q7 -13 7 -22q0 -10 -7.5 -17t-18.5 -7q-17 0 -25 16l-144 278h-217zM178 337h210
q149 0 220 71q47 47 47 113q0 52 -31 83q-48 48 -151 48h-210zM595 853l-103 -78q-17 -13 -38 -13q-14 0 -14 10q0 6 5 11l88 95q17 17 29 17q14 0 29 -8.5t15 -16.5q0 -9 -11 -17z" />
    <glyph glyph-name="racute" unicode="&#x155;" horiz-adv-x="396" 
d="M203 486l-31 -121q46 69 110 111t123 42q26 0 26 -25q0 -27 -36 -30q-86 -8 -160.5 -75t-104.5 -179l-51 -190q-6 -23 -27 -23q-11 0 -17 8t-3 20l124 467q6 23 27 23q11 0 17 -8t3 -20zM424 683l-103 -78q-17 -13 -38 -13q-14 0 -14 10q0 6 5 11l88 95q17 17 29 17
q14 0 29 -8.5t15 -16.5q0 -9 -11 -17z" />
    <glyph glyph-name="Rcommaaccent" unicode="&#x156;" horiz-adv-x="713" 
d="M166 290l-73 -271q-6 -23 -28 -23q-11 0 -18.5 8.5t-3.5 21.5l174 648q3 11 11.5 18.5t18.5 7.5h228q126 0 188 -62q44 -44 44 -114q0 -84 -62 -146q-68 -68 -206 -83l132 -253q7 -13 7 -22q0 -10 -7.5 -17t-18.5 -7q-17 0 -25 16l-144 278h-217zM178 337h210
q149 0 220 71q47 47 47 113q0 52 -31 83q-48 48 -151 48h-210zM254 -142q-24 5 -24 27q0 18 11 34t32 16q32 0 32 -32q0 -21 -11 -47t-27 -42q-33 -33 -81 -33q-12 0 -12 10q0 11 18 15q27 7 41.5 19t20.5 33z" />
    <glyph glyph-name="rcommaaccent" unicode="&#x157;" horiz-adv-x="396" 
d="M203 486l-31 -121q46 69 110 111t123 42q26 0 26 -25q0 -27 -36 -30q-86 -8 -160.5 -75t-104.5 -179l-51 -190q-6 -23 -27 -23q-11 0 -17 8t-3 20l124 467q6 23 27 23q11 0 17 -8t3 -20zM22 -147q-24 5 -24 27q0 18 11 34t32 16q32 0 32 -32q0 -21 -11 -47t-27 -42
q-33 -33 -81 -33q-12 0 -12 10q0 11 18 15q27 7 41.5 19t20.5 33z" />
    <glyph glyph-name="Rcaron" unicode="&#x158;" horiz-adv-x="713" 
d="M166 290l-73 -271q-6 -23 -28 -23q-11 0 -18.5 8.5t-3.5 21.5l174 648q3 11 11.5 18.5t18.5 7.5h228q126 0 188 -62q44 -44 44 -114q0 -84 -62 -146q-68 -68 -206 -83l132 -253q7 -13 7 -22q0 -10 -7.5 -17t-18.5 -7q-17 0 -25 16l-144 278h-217zM178 337h210
q149 0 220 71q47 47 47 113q0 52 -31 83q-48 48 -151 48h-210zM433 780l-48 87q-5 10 -5 13q0 10 14 10q21 0 32 -14l44 -57l82 58q19 13 33 13t14 -10q0 -6 -8 -14l-94 -86q-18 -18 -33 -18h-6q-14 0 -25 18z" />
    <glyph glyph-name="rcaron" unicode="&#x159;" horiz-adv-x="396" 
d="M203 486l-31 -121q46 69 110 111t123 42q26 0 26 -25q0 -27 -36 -30q-86 -8 -160.5 -75t-104.5 -179l-51 -190q-6 -23 -27 -23q-11 0 -17 8t-3 20l124 467q6 23 27 23q11 0 17 -8t3 -20zM261 610l-48 87q-5 10 -5 13q0 10 14 10q21 0 32 -14l44 -57l82 58q19 13 33 13
t14 -10q0 -6 -8 -14l-94 -86q-18 -18 -33 -18h-6q-14 0 -25 18z" />
    <glyph glyph-name="Sacute" unicode="&#x15a;" horiz-adv-x="638" 
d="M304 37q86 0 144 43.5t58 109.5q0 46 -34 77t-119 64q-111 43 -155.5 83t-44.5 103q0 81 70 137t181 56q132 0 224 -86q11 -11 11 -22q0 -10 -7.5 -17.5t-17.5 -7.5q-12 0 -22 10q-76 76 -193 76q-87 0 -140 -42t-53 -100q0 -47 38 -77.5t129 -65.5q100 -38 143 -79.5
t43 -104.5q0 -86 -74 -145t-186 -59q-165 0 -263 113q-10 13 -10 22q0 11 7 18t17 7q13 0 22 -12q87 -101 232 -101zM585 863l-103 -78q-17 -13 -38 -13q-14 0 -14 10q0 6 5 11l88 95q17 17 29 17q14 0 29 -8.5t15 -16.5q0 -9 -11 -17z" />
    <glyph glyph-name="sacute" unicode="&#x15b;" horiz-adv-x="495" 
d="M223 34q51 0 91.5 28.5t40.5 72.5q0 31 -23.5 54t-87.5 47q-76 28 -109.5 58.5t-33.5 78.5q0 62 52.5 105t136.5 43q44 0 91 -16.5t75 -37.5q13 -10 13 -23q0 -10 -6.5 -16.5t-16.5 -6.5q-8 0 -16 5q-72 50 -145 50q-61 0 -96.5 -28t-35.5 -67q0 -31 23 -52t92 -48
q76 -30 107.5 -61t31.5 -77q0 -66 -56 -110t-134 -44q-111 0 -199 72q-12 10 -12 23q0 10 6.5 17t16.5 7q9 0 22 -10q77 -64 172 -64zM466 683l-103 -78q-17 -13 -38 -13q-14 0 -14 10q0 6 5 11l88 95q17 17 29 17q14 0 29 -8.5t15 -16.5q0 -9 -11 -17z" />
    <glyph glyph-name="Scedilla" unicode="&#x15e;" horiz-adv-x="638" 
d="M304 37q86 0 144 43.5t58 109.5q0 46 -34 77t-119 64q-111 43 -155.5 83t-44.5 103q0 81 70 137t181 56q132 0 224 -86q11 -11 11 -22q0 -10 -7.5 -17.5t-17.5 -7.5q-12 0 -22 10q-76 76 -193 76q-87 0 -140 -42t-53 -100q0 -47 38 -77.5t129 -65.5q100 -38 143 -79.5
t43 -104.5q0 -86 -74 -145t-186 -59h-11l-92 -121q-10 -12 -21 -12t-19 7t-8 16q0 11 10 22l86 92q-127 15 -208 109q-10 13 -10 22q0 11 7 18t17 7q13 0 22 -12q87 -101 232 -101z" />
    <glyph glyph-name="scedilla" unicode="&#x15f;" horiz-adv-x="495" 
d="M223 34q51 0 91.5 28.5t40.5 72.5q0 31 -23.5 54t-87.5 47q-76 28 -109.5 58.5t-33.5 78.5q0 62 52.5 105t136.5 43q44 0 91 -16.5t75 -37.5q13 -10 13 -23q0 -10 -6.5 -16.5t-16.5 -6.5q-8 0 -16 5q-72 50 -145 50q-61 0 -96.5 -28t-35.5 -67q0 -31 23 -52t92 -48
q76 -30 107.5 -61t31.5 -77q0 -66 -56 -110t-134 -44h-11l-91 -120q-10 -12 -21 -12t-19 7t-8 16q0 11 10 22l86 92q-78 12 -145 67q-12 10 -12 23q0 10 6.5 17t16.5 7q9 0 22 -10q77 -64 172 -64z" />
    <glyph glyph-name="Scaron" unicode="&#x160;" horiz-adv-x="638" 
d="M304 37q86 0 144 43.5t58 109.5q0 46 -34 77t-119 64q-111 43 -155.5 83t-44.5 103q0 81 70 137t181 56q132 0 224 -86q11 -11 11 -22q0 -10 -7.5 -17.5t-17.5 -7.5q-12 0 -22 10q-76 76 -193 76q-87 0 -140 -42t-53 -100q0 -47 38 -77.5t129 -65.5q100 -38 143 -79.5
t43 -104.5q0 -86 -74 -145t-186 -59q-165 0 -263 113q-10 13 -10 22q0 11 7 18t17 7q13 0 22 -12q87 -101 232 -101zM422 790l-48 87q-5 10 -5 13q0 10 14 10q21 0 32 -14l44 -57l82 58q19 13 33 13t14 -10q0 -6 -8 -14l-94 -86q-18 -18 -33 -18h-6q-15 0 -25 18z" />
    <glyph glyph-name="scaron" unicode="&#x161;" horiz-adv-x="495" 
d="M223 34q51 0 91.5 28.5t40.5 72.5q0 31 -23.5 54t-87.5 47q-76 28 -109.5 58.5t-33.5 78.5q0 62 52.5 105t136.5 43q44 0 91 -16.5t75 -37.5q13 -10 13 -23q0 -10 -6.5 -16.5t-16.5 -6.5q-8 0 -16 5q-72 50 -145 50q-61 0 -96.5 -28t-35.5 -67q0 -31 23 -52t92 -48
q76 -30 107.5 -61t31.5 -77q0 -66 -56 -110t-134 -44q-111 0 -199 72q-12 10 -12 23q0 10 6.5 17t16.5 7q9 0 22 -10q77 -64 172 -64zM303 610l-48 87q-5 10 -5 13q0 10 14 10q21 0 32 -14l44 -57l82 58q19 13 33 13t14 -10q0 -6 -8 -14l-94 -86q-18 -18 -33 -18h-6
q-14 0 -25 18z" />
    <glyph glyph-name="Tcommaaccent" unicode="&#x162;" horiz-adv-x="615" 
d="M436 652l-170 -633q-6 -23 -28 -23q-11 0 -18.5 8.5t-3.5 21.5l168 626h-217q-10 0 -17 7t-7 17t7 17t17 7h499q10 0 17 -7t7 -17t-7 -17t-17 -7h-230zM201 -147q-24 5 -24 27q0 18 11 34t32 16q32 0 32 -32q0 -21 -11 -47t-27 -42q-33 -33 -81 -33q-12 0 -12 10
q0 11 18 15q27 7 41.5 19t20.5 33z" />
    <glyph glyph-name="tcommaaccent" unicode="&#x163;" horiz-adv-x="396" 
d="M189 510l39 144q6 23 27 23q11 0 17 -8t3 -20l-37 -139h150q10 0 16.5 -6.5t6.5 -16.5q0 -9 -7 -15.5t-16 -6.5h-162l-87 -325q-5 -22 -5 -43q0 -61 83 -61q22 0 41 6q14 4 22.5 -1t8.5 -17q0 -15 -20 -23q-28 -10 -63 -10q-54 0 -88 25.5t-34 75.5q0 23 6 49l87 324h-48
q-10 0 -16.5 6.5t-6.5 16.5q0 9 7 15.5t16 6.5h60zM126 -147q-24 5 -24 27q0 18 11 34t32 16q32 0 32 -32q0 -21 -11 -47t-27 -42q-33 -33 -81 -33q-12 0 -12 10q0 11 18 15q27 7 41.5 19t20.5 33z" />
    <glyph glyph-name="Tcaron" unicode="&#x164;" horiz-adv-x="615" 
d="M436 652l-170 -633q-6 -23 -28 -23q-11 0 -18.5 8.5t-3.5 21.5l168 626h-217q-10 0 -17 7t-7 17t7 17t17 7h499q10 0 17 -7t7 -17t-7 -17t-17 -7h-230zM416 780l-48 87q-5 10 -5 13q0 10 14 10q21 0 32 -14l44 -57l82 58q19 13 33 13t14 -10q0 -6 -8 -14l-94 -86
q-18 -18 -33 -18h-6q-15 0 -25 18z" />
    <glyph glyph-name="tcaron" unicode="&#x165;" horiz-adv-x="396" 
d="M189 510l39 144q6 23 27 23q11 0 17 -8t3 -20l-37 -139h150q10 0 16.5 -6.5t6.5 -16.5q0 -9 -7 -15.5t-16 -6.5h-162l-87 -325q-5 -22 -5 -43q0 -61 83 -61q22 0 41 6q14 4 22.5 -1t8.5 -17q0 -15 -20 -23q-28 -10 -63 -10q-54 0 -88 25.5t-34 75.5q0 23 6 49l87 324h-48
q-10 0 -16.5 6.5t-6.5 16.5q0 9 7 15.5t16 6.5h60zM354 603l42 111q10 25 35 25h13q14 0 14 -11q0 -8 -9 -22l-64 -106q-10 -17 -22 -17t-12 9q0 4 3 11z" />
    <glyph glyph-name="Umacron" unicode="&#x16a;" horiz-adv-x="756" 
d="M775 674l-105 -391q-35 -130 -111 -206q-88 -88 -211 -88q-122 0 -187 61t-65 159q0 54 14 108l97 364q6 23 28 23q11 0 18.5 -8.5t3.5 -21.5l-101 -381q-9 -36 -9 -80q0 -79 52 -128t153 -49q99 0 171 72q65 65 98 186l104 387q6 23 28 23q11 0 18.5 -8.5t3.5 -21.5z
M650 791h-264q-10 0 -17 7t-7 17t7 17t17 7h264q10 0 17 -7t7 -17t-7 -17t-17 -7z" />
    <glyph glyph-name="umacron" unicode="&#x16b;" horiz-adv-x="609" 
d="M426 -4q-11 0 -17 8t-3 20l18 71q-89 -107 -193 -107q-76 0 -121.5 44.5t-45.5 117.5q0 28 11 72l71 269q6 23 27 23q11 0 17 -8t3 -20l-71 -268q-8 -30 -8 -63q0 -57 35 -90t96 -33q67 0 129 54t84 136l72 269q6 23 27 23q11 0 17 -8t3 -20l-124 -467q-6 -23 -27 -23z
M529 621h-264q-10 0 -17 7t-7 17t7 17t17 7h264q10 0 17 -7t7 -17t-7 -17t-17 -7z" />
    <glyph glyph-name="Ubreve" unicode="&#x16c;" horiz-adv-x="756" 
d="M775 674l-105 -391q-35 -130 -111 -206q-88 -88 -211 -88q-122 0 -187 61t-65 159q0 54 14 108l97 364q6 23 28 23q11 0 18.5 -8.5t3.5 -21.5l-101 -381q-9 -36 -9 -80q0 -79 52 -128t153 -49q99 0 171 72q65 65 98 186l104 387q6 23 28 23q11 0 18.5 -8.5t3.5 -21.5z
M507 763q-46 0 -75 23t-29 69q0 36 24 36q17 0 20 -20q4 -28 18.5 -42.5t52.5 -14.5q62 0 101 59q12 18 25 18q8 0 14 -5.5t6 -12.5t-3 -13q-22 -46 -63.5 -71.5t-90.5 -25.5z" />
    <glyph glyph-name="ubreve" unicode="&#x16d;" horiz-adv-x="609" 
d="M426 -4q-11 0 -17 8t-3 20l18 71q-89 -107 -193 -107q-76 0 -121.5 44.5t-45.5 117.5q0 28 11 72l71 269q6 23 27 23q11 0 17 -8t3 -20l-71 -268q-8 -30 -8 -63q0 -57 35 -90t96 -33q67 0 129 54t84 136l72 269q6 23 27 23q11 0 17 -8t3 -20l-124 -467q-6 -23 -27 -23z
M386 593q-46 0 -75 23t-29 69q0 36 24 36q17 0 20 -20q4 -28 18.5 -42.5t52.5 -14.5q62 0 101 59q12 18 25 18q8 0 14 -5.5t6 -12.5t-3 -13q-22 -46 -63.5 -71.5t-90.5 -25.5z" />
    <glyph glyph-name="Uring" unicode="&#x16e;" horiz-adv-x="756" 
d="M775 674l-105 -391q-35 -130 -111 -206q-88 -88 -211 -88q-122 0 -187 61t-65 159q0 54 14 108l97 364q6 23 28 23q11 0 18.5 -8.5t3.5 -21.5l-101 -381q-9 -36 -9 -80q0 -79 52 -128t153 -49q99 0 171 72q65 65 98 186l104 387q6 23 28 23q11 0 18.5 -8.5t3.5 -21.5z
M518 755q-42 0 -67.5 23t-25.5 59q0 42 33 72t76 30q42 0 67.5 -23t25.5 -59q0 -42 -33 -72t-76 -30zM519 787q30 0 51 20t21 49q0 23 -15 37t-43 14q-30 0 -51 -20t-21 -49q0 -23 15 -37t43 -14z" />
    <glyph glyph-name="uring" unicode="&#x16f;" horiz-adv-x="609" 
d="M426 -4q-11 0 -17 8t-3 20l18 71q-89 -107 -193 -107q-76 0 -121.5 44.5t-45.5 117.5q0 28 11 72l71 269q6 23 27 23q11 0 17 -8t3 -20l-71 -268q-8 -30 -8 -63q0 -57 35 -90t96 -33q67 0 129 54t84 136l72 269q6 23 27 23q11 0 17 -8t3 -20l-124 -467q-6 -23 -27 -23z
M398 590q-42 0 -67.5 23t-25.5 59q0 42 33 72t76 30q42 0 67.5 -23t25.5 -59q0 -42 -33 -72t-76 -30zM399 622q30 0 51 20t21 49q0 23 -15 37t-43 14q-30 0 -51 -20t-21 -49q0 -23 15 -37t43 -14z" />
    <glyph glyph-name="Uhungarumlaut" unicode="&#x170;" horiz-adv-x="756" 
d="M775 674l-105 -391q-35 -130 -111 -206q-88 -88 -211 -88q-122 0 -187 61t-65 159q0 54 14 108l97 364q6 23 28 23q11 0 18.5 -8.5t3.5 -21.5l-101 -381q-9 -36 -9 -80q0 -79 52 -128t153 -49q99 0 171 72q65 65 98 186l104 387q6 23 28 23q11 0 18.5 -8.5t3.5 -21.5z
M496 895q11 0 18.5 -8t7.5 -16q0 -11 -12 -20l-95 -76q-17 -13 -33 -13q-11 0 -11 9q0 6 6 12l89 95q17 17 30 17zM648 895q11 0 18.5 -8t7.5 -16q0 -11 -12 -20l-95 -76q-17 -13 -33 -13q-11 0 -11 9q0 6 6 12l89 95q17 17 30 17z" />
    <glyph glyph-name="uhungarumlaut" unicode="&#x171;" horiz-adv-x="609" 
d="M426 -4q-11 0 -17 8t-3 20l18 71q-89 -107 -193 -107q-76 0 -121.5 44.5t-45.5 117.5q0 28 11 72l71 269q6 23 27 23q11 0 17 -8t3 -20l-71 -268q-8 -30 -8 -63q0 -57 35 -90t96 -33q67 0 129 54t84 136l72 269q6 23 27 23q11 0 17 -8t3 -20l-124 -467q-6 -23 -27 -23z
M375 725q11 0 18.5 -8t7.5 -16q0 -11 -12 -20l-95 -76q-17 -13 -33 -13q-11 0 -11 9q0 6 6 12l89 95q17 17 30 17zM527 725q11 0 18.5 -8t7.5 -16q0 -11 -12 -20l-95 -76q-17 -13 -33 -13q-11 0 -11 9q0 6 6 12l89 95q17 17 30 17z" />
    <glyph glyph-name="Uogonek" unicode="&#x172;" horiz-adv-x="756" 
d="M322 -163q-47 0 -72.5 19t-25.5 46q0 45 66 92q-95 14 -144.5 72t-49.5 143q0 54 14 108l97 364q6 23 28 23q11 0 18.5 -8.5t3.5 -21.5l-101 -381q-9 -36 -9 -80q0 -79 52 -128t153 -49q99 0 171 72q65 65 98 186l104 387q6 23 28 23q11 0 18.5 -8.5t3.5 -21.5l-105 -391
q-35 -130 -111 -206q-88 -88 -211 -88h-9q-64 -45 -64 -79q0 -14 11.5 -22t40.5 -14q16 -3 16 -18q0 -19 -21 -19z" />
    <glyph glyph-name="uogonek" unicode="&#x173;" horiz-adv-x="609" 
d="M577 486l-124 -467q-4 -14 -15 -21q-77 -52 -77 -88q0 -14 11.5 -22t40.5 -14q16 -3 16 -18q0 -19 -21 -19q-47 0 -72.5 19t-25.5 46q0 51 95 111q0 7 1 11l18 71q-89 -107 -193 -107q-76 0 -121.5 44.5t-45.5 117.5q0 28 11 72l71 269q6 23 27 23q11 0 17 -8t3 -20
l-71 -268q-8 -30 -8 -63q0 -57 35 -90t96 -33q67 0 129 54t84 136l72 269q6 23 27 23q11 0 17 -8t3 -20z" />
    <glyph glyph-name="Wcircumflex" unicode="&#x174;" horiz-adv-x="1074" 
d="M1130 665l-407 -647q-6 -10 -9 -13.5t-9.5 -8t-14.5 -4.5h-2q-21 0 -23 26l-40 585l-354 -585q-15 -26 -33 -26h-2q-21 0 -23 26l-60 646q0 1 -0.5 6.5t-0.5 7.5q0 11 8 18.5t19 7.5q25 0 27 -27l51 -600l363 610q10 17 27 17h1q20 0 22 -21l37 -606l377 607q12 20 31 20
q9 0 15 -6t6 -14q0 -10 -6 -19zM720 872l48 -87q5 -10 5 -13q0 -10 -14 -10q-21 0 -32 14l-44 57l-82 -58q-19 -13 -33 -13t-14 10q0 6 8 14l94 86q18 18 33 18h6q15 0 25 -18z" />
    <glyph glyph-name="wcircumflex" unicode="&#x175;" horiz-adv-x="845" 
d="M146 21l-44 452q0 1 -0.5 6.5t-0.5 7.5q0 27 26 27q22 0 24 -27l35 -421l263 430q12 18 28 18h1q20 0 22 -22l33 -426l266 429q11 19 26 19q21 0 21 -20q0 -9 -6 -19l-292 -462q-12 -20 -29 -20h-1q-23 0 -26 28l-33 412l-259 -419q-12 -21 -29 -21h-1q-22 0 -24 28z
M559 702l48 -87q5 -10 5 -13q0 -10 -14 -10q-21 0 -32 14l-44 57l-82 -58q-19 -13 -33 -13t-14 10q0 6 8 14l94 86q18 18 33 18h6q14 0 25 -18z" />
    <glyph glyph-name="Ycircumflex" unicode="&#x176;" horiz-adv-x="668" 
d="M358 271l-67 -252q-6 -23 -28 -23q-11 0 -18.5 8.5t-3.5 21.5l69 258l-166 377q-4 9 -4 18q0 11 7 18t18 7q17 0 27 -23l153 -357l354 366q14 14 28 14q9 0 16 -6.5t7 -15.5q0 -12 -12 -24zM513 872l48 -87q5 -10 5 -13q0 -10 -14 -10q-21 0 -32 14l-44 57l-82 -58
q-19 -13 -33 -13t-14 10q0 6 8 14l94 86q18 18 33 18h6q14 0 25 -18z" />
    <glyph glyph-name="ycircumflex" unicode="&#x177;" horiz-adv-x="568" 
d="M-46 -98q40 -19 72 -19q40 0 78.5 27.5t84.5 92.5l-96 468q-2 10 -2 18q0 25 24 25q21 0 26 -26l85 -434l296 440q13 20 29 20q22 0 22 -21q0 -10 -6 -19l-338 -492q-54 -78 -103.5 -111.5t-105.5 -33.5q-46 0 -91 24q-14 7 -14 22q0 10 6.5 16.5t16.5 6.5q8 0 16 -4z
M402 702l48 -87q5 -10 5 -13q0 -10 -14 -10q-21 0 -32 14l-44 57l-82 -58q-19 -13 -33 -13t-14 10q0 6 8 14l94 86q18 18 33 18h6q15 0 25 -18z" />
    <glyph glyph-name="Ydieresis" unicode="&#x178;" horiz-adv-x="668" 
d="M358 271l-67 -252q-6 -23 -28 -23q-11 0 -18.5 8.5t-3.5 21.5l69 258l-166 377q-4 9 -4 18q0 11 7 18t18 7q17 0 27 -23l153 -357l354 366q14 14 28 14q9 0 16 -6.5t7 -15.5q0 -12 -12 -24zM413 786q-8 -27 -37 -27q-15 0 -23.5 9.5t-5.5 23.5l9 33q8 27 37 27
q15 0 24 -10t5 -23zM576 786q-8 -27 -37 -27q-15 0 -23.5 9.5t-5.5 23.5l9 33q8 27 37 27q15 0 24 -10t5 -23z" />
    <glyph glyph-name="Zacute" unicode="&#x179;" horiz-adv-x="662" 
d="M5 45l620 608h-425q-10 0 -17 6.5t-7 16.5t7 17t17 7h489q20 0 20 -17v-1q0 -13 -14 -27l-620 -608h445q10 0 17 -6.5t7 -16.5t-7 -17t-17 -7h-509q-20 0 -20 17v1q0 13 14 27zM581 853l-103 -78q-17 -13 -38 -13q-14 0 -14 10q0 6 5 11l88 95q17 17 29 17q14 0 29 -8.5
t15 -16.5q0 -9 -11 -17z" />
    <glyph glyph-name="zacute" unicode="&#x17a;" horiz-adv-x="546" 
d="M147 510h380q21 0 21 -18v-1q0 -10 -10 -20l-463 -427h336q9 0 15.5 -6.5t6.5 -15.5t-6.5 -15.5t-15.5 -6.5h-397q-21 0 -21 18v1q0 10 10 20l463 427h-319q-9 0 -15.5 6.5t-6.5 15.5t6.5 15.5t15.5 6.5zM482 683l-103 -78q-17 -13 -38 -13q-14 0 -14 10q0 6 5 11l88 95
q17 17 29 17q14 0 29 -8.5t15 -16.5q0 -9 -11 -17z" />
    <glyph glyph-name="Zdotaccent" unicode="&#x17b;" horiz-adv-x="662" 
d="M5 45l620 608h-425q-10 0 -17 6.5t-7 16.5t7 17t17 7h489q20 0 20 -17v-1q0 -13 -14 -27l-620 -608h445q10 0 17 -6.5t7 -16.5t-7 -17t-17 -7h-509q-20 0 -20 17v1q0 13 14 27zM482 786q-8 -27 -37 -27q-15 0 -23.5 9.5t-5.5 23.5l9 33q8 27 37 27q15 0 24 -10t5 -23z
" />
    <glyph glyph-name="zdotaccent" unicode="&#x17c;" horiz-adv-x="546" 
d="M147 510h380q21 0 21 -18v-1q0 -10 -10 -20l-463 -427h336q9 0 15.5 -6.5t6.5 -15.5t-6.5 -15.5t-15.5 -6.5h-397q-21 0 -21 18v1q0 10 10 20l463 427h-319q-9 0 -15.5 6.5t-6.5 15.5t6.5 15.5t15.5 6.5zM383 616q-8 -27 -37 -27q-15 0 -23.5 9.5t-5.5 23.5l9 33
q8 27 37 27q15 0 24 -10t5 -23z" />
    <glyph glyph-name="Zcaron" unicode="&#x17d;" horiz-adv-x="662" 
d="M5 45l620 608h-425q-10 0 -17 6.5t-7 16.5t7 17t17 7h489q20 0 20 -17v-1q0 -13 -14 -27l-620 -608h445q10 0 17 -6.5t7 -16.5t-7 -17t-17 -7h-509q-20 0 -20 17v1q0 13 14 27zM419 780l-48 87q-5 10 -5 13q0 10 14 10q21 0 32 -14l44 -57l82 58q19 13 33 13t14 -10
q0 -6 -8 -14l-94 -86q-18 -18 -33 -18h-6q-14 0 -25 18z" />
    <glyph glyph-name="zcaron" unicode="&#x17e;" horiz-adv-x="546" 
d="M147 510h380q21 0 21 -18v-1q0 -10 -10 -20l-463 -427h336q9 0 15.5 -6.5t6.5 -15.5t-6.5 -15.5t-15.5 -6.5h-397q-21 0 -21 18v1q0 10 10 20l463 427h-319q-9 0 -15.5 6.5t-6.5 15.5t6.5 15.5t15.5 6.5zM319 610l-48 87q-5 10 -5 13q0 10 14 10q21 0 32 -14l44 -57
l82 58q19 13 33 13t14 -10q0 -6 -8 -14l-94 -86q-18 -18 -33 -18h-6q-14 0 -25 18z" />
    <glyph glyph-name="florin" unicode="&#x192;" horiz-adv-x="526" 
d="M36 -10q-38 0 -38 22t34 22q38 0 65 24t53 83l107 243h-82q-9 0 -16 6.5t-7 15.5q0 10 7 16.5t16 6.5h101l59 134q64 147 178 147q33 0 60 -8q20 -6 20 -22q0 -9 -6 -16t-14 -7q-2 0 -22 4.5t-40 4.5q-80 0 -131 -115l-54 -122h137q9 0 16 -7t7 -16t-7 -15.5t-16 -6.5
h-156l-112 -255q-33 -76 -71.5 -107.5t-87.5 -31.5z" />
    <glyph glyph-name="Aringacute" unicode="&#x1fa;" horiz-adv-x="741" 
d="M7 -4q-9 0 -15.5 6t-6.5 17q0 9 6 15l473 647q-46 22 -46 71q0 42 31.5 72t74.5 30q42 0 69 -23t27 -59t-23.5 -64t-59.5 -36l124 -636q2 -8 2 -16q0 -9 -7 -16.5t-18 -7.5q-22 0 -27 25l-32 175h-413l-131 -181q-15 -19 -28 -19zM200 243h369l-75 405zM514 702
q29 0 49.5 20.5t20.5 49.5q0 22 -15.5 36t-44.5 14t-49.5 -20.5t-20.5 -49.5q0 -22 15.5 -36t44.5 -14zM687 975l-103 -78q-17 -13 -38 -13q-14 0 -14 10q0 6 5 11l88 95q17 17 29 17q14 0 29 -8.5t15 -16.5q0 -9 -11 -17z" />
    <glyph glyph-name="aringacute" unicode="&#x1fb;" horiz-adv-x="571" 
d="M199 33q75 0 141.5 47.5t86.5 122.5l12 45q-96 24 -193 24q-76 0 -123.5 -37.5t-47.5 -97.5q0 -47 33.5 -75.5t90.5 -28.5zM398 -4q-11 0 -17 8t-3 20l17 64q-84 -100 -205 -100q-69 0 -118 37.5t-49 105.5q0 84 64 134.5t166 50.5q90 0 196 -29l4 14q7 26 7 51
q0 58 -39.5 89t-114.5 31q-66 0 -129 -21q-8 -2 -13 -2q-20 0 -20 22q0 17 19 23q72 24 147 24q93 0 145.5 -42.5t52.5 -116.5q0 -29 -10 -67l-73 -273q-6 -23 -27 -23zM373 595q-42 0 -67.5 23t-25.5 59q0 42 33 72t76 30q42 0 67.5 -23t25.5 -59q0 -42 -33 -72t-76 -30z
M374 627q30 0 51 20t21 49q0 23 -15 37t-43 14q-30 0 -51 -20t-21 -49q0 -23 15 -37t43 -14zM541 908l-103 -78q-17 -13 -38 -13q-14 0 -14 10q0 6 5 11l88 95q17 17 29 17q14 0 29 -8.5t15 -16.5q0 -9 -11 -17z" />
    <glyph glyph-name="AEacute" unicode="&#x1fc;" horiz-adv-x="1068" 
d="M242 243h272l110 410h-27zM597 700h496q10 0 17 -7t7 -17t-7 -17t-17 -7h-417l-74 -275h359q10 0 17 -7t7 -17t-7 -17t-17 -7h-372l-75 -281h409q10 0 17 -7t7 -17t-7 -17t-17 -7h-445q-11 0 -18 8t-4 18l46 170h-301l-156 -180q-17 -20 -32 -20q-21 0 -21 21q0 11 9 21
l556 637q23 25 40 25zM893 853l-103 -78q-17 -13 -38 -13q-14 0 -14 10q0 6 5 11l88 95q17 17 29 17q14 0 29 -8.5t15 -16.5q0 -9 -11 -17z" />
    <glyph glyph-name="aeacute" unicode="&#x1fd;" horiz-adv-x="965" 
d="M250 272q-76 0 -125.5 -37t-49.5 -93q0 -50 34 -79.5t95 -29.5q123 0 238 125q-4 20 -4 48q0 22 3 43q-81 23 -191 23zM922 327q0 -33 -7 -66q-5 -23 -30 -23h-396q-2 -22 -2 -34q0 -77 47 -123.5t122 -46.5q90 0 161 58q9 7 19 7q9 0 15 -6t6 -15q0 -12 -10 -20
q-81 -70 -190 -70q-74 0 -126 33.5t-76 91.5q-120 -125 -255 -125q-77 0 -127 39t-50 109q0 82 66 131t168 49q97 0 192 -29l4 14q7 26 7 51q0 58 -39.5 89t-114.5 31q-66 0 -129 -21q-8 -2 -13 -2q-20 0 -20 22q0 17 19 23q72 24 147 24q80 0 130.5 -32t63.5 -89
q42 57 100.5 91t124.5 34q92 0 142.5 -56t50.5 -139zM498 282h370q4 18 4 42q0 66 -36.5 109.5t-107.5 43.5q-82 0 -144.5 -56t-85.5 -139zM687 683l-103 -78q-17 -13 -38 -13q-14 0 -14 10q0 6 5 11l88 95q17 17 29 17q14 0 29 -8.5t15 -16.5q0 -9 -11 -17z" />
    <glyph glyph-name="Oslashacute" unicode="&#x1fe;" horiz-adv-x="846" 
d="M150 288q0 -72 30 -129l508 424q-71 82 -189 82q-96 0 -177 -54t-126.5 -140.5t-45.5 -182.5zM398 34q96 0 177 54t126.5 140.5t45.5 182.5q0 76 -34 136l-509 -425q69 -88 194 -88zM166 90l-102 -85q-16 -14 -30 -14q-19 0 -19 19q0 12 11 21l114 95q-44 74 -44 162
q0 108 53.5 206t147 158t202.5 60q140 0 227 -97l95 80q16 14 29 14q20 0 20 -18q0 -13 -11 -22l-106 -89q48 -77 48 -169q0 -108 -53.5 -206t-147 -158t-202.5 -60q-144 0 -232 103zM687 863l-103 -78q-17 -13 -38 -13q-14 0 -14 10q0 6 5 11l88 95q17 17 29 17
q14 0 29 -8.5t15 -16.5q0 -9 -11 -17z" />
    <glyph glyph-name="oslashacute" unicode="&#x1ff;" horiz-adv-x="633" 
d="M283 34q95 0 170 78t75 182q0 51 -19 92l-363 -298q48 -54 137 -54zM104 216q0 -51 19 -92l363 298q-49 54 -137 54q-97 0 -171 -79t-74 -181zM109 58l-70 -57q-13 -10 -23 -10q-19 0 -19 18q0 12 11 21l75 61q-32 53 -32 123q0 122 91 215t212 93q105 0 169 -69l72 58
q13 10 23 10q19 0 19 -18q0 -12 -11 -21l-77 -63q32 -53 32 -123q0 -124 -92 -216t-211 -92q-104 0 -169 70zM546 683l-103 -78q-17 -13 -38 -13q-14 0 -14 10q0 6 5 11l88 95q17 17 29 17q14 0 29 -8.5t15 -16.5q0 -9 -11 -17z" />
    <glyph glyph-name="Scommaaccent" unicode="&#x218;" horiz-adv-x="638" 
d="M304 37q86 0 144 43.5t58 109.5q0 46 -34 77t-119 64q-111 43 -155.5 83t-44.5 103q0 81 70 137t181 56q132 0 224 -86q11 -11 11 -22q0 -10 -7.5 -17.5t-17.5 -7.5q-12 0 -22 10q-76 76 -193 76q-87 0 -140 -42t-53 -100q0 -47 38 -77.5t129 -65.5q100 -38 143 -79.5
t43 -104.5q0 -86 -74 -145t-186 -59q-165 0 -263 113q-10 13 -10 22q0 11 7 18t17 7q13 0 22 -12q87 -101 232 -101zM205 -147q-24 5 -24 27q0 18 11 34t32 16q32 0 32 -32q0 -21 -11 -47t-27 -42q-33 -33 -81 -33q-12 0 -12 10q0 11 18 15q27 7 41.5 19t20.5 33z" />
    <glyph glyph-name="scommaaccent" unicode="&#x219;" horiz-adv-x="495" 
d="M223 34q51 0 91.5 28.5t40.5 72.5q0 31 -23.5 54t-87.5 47q-76 28 -109.5 58.5t-33.5 78.5q0 62 52.5 105t136.5 43q44 0 91 -16.5t75 -37.5q13 -10 13 -23q0 -10 -6.5 -16.5t-16.5 -6.5q-8 0 -16 5q-72 50 -145 50q-61 0 -96.5 -28t-35.5 -67q0 -31 23 -52t92 -48
q76 -30 107.5 -61t31.5 -77q0 -66 -56 -110t-134 -44q-111 0 -199 72q-12 10 -12 23q0 10 6.5 17t16.5 7q9 0 22 -10q77 -64 172 -64zM134 -147q-24 5 -24 27q0 18 11 34t32 16q32 0 32 -32q0 -21 -11 -47t-27 -42q-33 -33 -81 -33q-12 0 -12 10q0 11 18 15q27 7 41.5 19
t20.5 33z" />
    <glyph glyph-name="schwa" unicode="&#x259;" horiz-adv-x="583" 
d="M469 228h-370q-4 -18 -4 -42q0 -66 36.5 -109.5t107.5 -43.5q82 0 144.5 56t85.5 139zM311 476q-90 0 -161 -58q-9 -7 -19 -7q-9 0 -15 6t-6 15q0 12 10 20q83 70 191 70q98 0 160 -60t62 -154q0 -123 -87 -221.5t-208 -98.5q-92 0 -142.5 56t-50.5 139q0 33 7 66
q5 23 30 23h396q2 22 2 34q0 77 -47 123.5t-122 46.5z" />
    <glyph glyph-name="circumflex" unicode="&#x2c6;" horiz-adv-x="500" 
d="M403 702l48 -87q5 -10 5 -13q0 -10 -14 -10q-21 0 -32 14l-44 57l-82 -58q-19 -13 -33 -13t-14 10q0 6 8 14l94 86q18 18 33 18h6q15 0 25 -18z" />
    <glyph glyph-name="caron" unicode="&#x2c7;" horiz-adv-x="500" 
d="M313 610l-48 87q-5 10 -5 13q0 10 14 10q21 0 32 -14l44 -57l82 58q19 13 33 13t14 -10q0 -6 -8 -14l-94 -86q-18 -18 -33 -18h-6q-14 0 -25 18z" />
    <glyph glyph-name="breve" unicode="&#x2d8;" horiz-adv-x="500" 
d="M339 593q-46 0 -75 23t-29 69q0 36 24 36q17 0 20 -20q4 -28 18.5 -42.5t52.5 -14.5q62 0 101 59q12 18 25 18q8 0 14 -5.5t6 -12.5t-3 -13q-22 -46 -63.5 -71.5t-90.5 -25.5z" />
    <glyph glyph-name="dotaccent" unicode="&#x2d9;" horiz-adv-x="500" 
d="M380 616q-8 -27 -37 -27q-15 0 -23.5 9.5t-5.5 23.5l9 33q8 27 37 27q15 0 24 -10t5 -23z" />
    <glyph glyph-name="ring" unicode="&#x2da;" horiz-adv-x="500" 
d="M356 595q-42 0 -67.5 23t-25.5 59q0 42 33 72t76 30q42 0 67.5 -23t25.5 -59q0 -42 -33 -72t-76 -30zM357 627q30 0 51 20t21 49q0 23 -15 37t-43 14q-30 0 -51 -20t-21 -49q0 -23 15 -37t43 -14z" />
    <glyph glyph-name="ogonek" unicode="&#x2db;" horiz-adv-x="500" 
d="M200 -163q-47 0 -72.5 19t-25.5 46q0 30 26.5 57.5t76.5 58.5l30 -17q-82 -54 -82 -91q0 -14 11.5 -22t40.5 -14q16 -3 16 -18q0 -19 -21 -19z" />
    <glyph glyph-name="tilde" unicode="&#x2dc;" horiz-adv-x="500" 
d="M220 590q-21 0 -21 18q0 10 7 21q21 36 41.5 55.5t51.5 19.5q20 0 33.5 -8t33.5 -27q31 -30 48 -30q23 0 52 48q9 15 20 15q21 0 21 -18q0 -10 -7 -21q-21 -36 -41.5 -55.5t-51.5 -19.5q-20 0 -33.5 8t-33.5 27q-31 30 -48 30q-23 0 -52 -48q-9 -15 -20 -15z" />
    <glyph glyph-name="hungarumlaut" unicode="&#x2dd;" horiz-adv-x="500" 
d="M328 725q11 0 18.5 -8t7.5 -16q0 -11 -12 -20l-95 -76q-17 -13 -33 -13q-11 0 -11 9q0 6 6 12l89 95q17 17 30 17zM480 725q11 0 18.5 -8t7.5 -16q0 -11 -12 -20l-95 -76q-17 -13 -33 -13q-11 0 -11 9q0 6 6 12l89 95q17 17 30 17z" />
    <glyph glyph-name="commaaccent" unicode="&#x326;" horiz-adv-x="500" 
d="M139 -147q-24 5 -24 27q0 18 11 34t32 16q32 0 32 -32q0 -21 -11 -47t-27 -42q-33 -33 -81 -33q-12 0 -12 10q0 11 18 15q27 7 41.5 19t20.5 33z" />
    <glyph glyph-name="Wgrave" unicode="&#x1e80;" horiz-adv-x="1074" 
d="M1130 665l-407 -647q-6 -10 -9 -13.5t-9.5 -8t-14.5 -4.5h-2q-21 0 -23 26l-40 585l-354 -585q-15 -26 -33 -26h-2q-21 0 -23 26l-60 646q0 1 -0.5 6.5t-0.5 7.5q0 11 8 18.5t19 7.5q25 0 27 -27l51 -600l363 610q10 17 27 17h1q20 0 22 -21l37 -606l377 607q12 20 31 20
q9 0 15 -6t6 -14q0 -10 -6 -19zM628 774l-61 80q-7 8 -7 16t12.5 15.5t26.5 7.5q21 0 28 -18l36 -92q3 -9 3 -12q0 -9 -13 -9q-16 0 -25 12z" />
    <glyph glyph-name="wgrave" unicode="&#x1e81;" horiz-adv-x="845" 
d="M146 21l-44 452q0 1 -0.5 6.5t-0.5 7.5q0 27 26 27q22 0 24 -27l35 -421l263 430q12 18 28 18h1q20 0 22 -22l33 -426l266 429q11 19 26 19q21 0 21 -20q0 -9 -6 -19l-292 -462q-12 -20 -29 -20h-1q-23 0 -26 28l-33 412l-259 -419q-12 -21 -29 -21h-1q-22 0 -24 28z
M467 604l-61 80q-7 8 -7 16t12.5 15.5t26.5 7.5q21 0 28 -18l36 -92q3 -9 3 -12q0 -9 -13 -9q-16 0 -25 12z" />
    <glyph glyph-name="Wacute" unicode="&#x1e82;" horiz-adv-x="1074" 
d="M1130 665l-407 -647q-6 -10 -9 -13.5t-9.5 -8t-14.5 -4.5h-2q-21 0 -23 26l-40 585l-354 -585q-15 -26 -33 -26h-2q-21 0 -23 26l-60 646q0 1 -0.5 6.5t-0.5 7.5q0 11 8 18.5t19 7.5q25 0 27 -27l51 -600l363 610q10 17 27 17h1q20 0 22 -21l37 -606l377 607q12 20 31 20
q9 0 15 -6t6 -14q0 -10 -6 -19zM801 853l-103 -78q-17 -13 -38 -13q-14 0 -14 10q0 6 5 11l88 95q17 17 29 17q14 0 29 -8.5t15 -16.5q0 -9 -11 -17z" />
    <glyph glyph-name="wacute" unicode="&#x1e83;" horiz-adv-x="845" 
d="M146 21l-44 452q0 1 -0.5 6.5t-0.5 7.5q0 27 26 27q22 0 24 -27l35 -421l263 430q12 18 28 18h1q20 0 22 -22l33 -426l266 429q11 19 26 19q21 0 21 -20q0 -9 -6 -19l-292 -462q-12 -20 -29 -20h-1q-23 0 -26 28l-33 412l-259 -419q-12 -21 -29 -21h-1q-22 0 -24 28z
M640 683l-103 -78q-17 -13 -38 -13q-14 0 -14 10q0 6 5 11l88 95q17 17 29 17q14 0 29 -8.5t15 -16.5q0 -9 -11 -17z" />
    <glyph glyph-name="Wdieresis" unicode="&#x1e84;" horiz-adv-x="1074" 
d="M1130 665l-407 -647q-6 -10 -9 -13.5t-9.5 -8t-14.5 -4.5h-2q-21 0 -23 26l-40 585l-354 -585q-15 -26 -33 -26h-2q-21 0 -23 26l-60 646q0 1 -0.5 6.5t-0.5 7.5q0 11 8 18.5t19 7.5q25 0 27 -27l51 -600l363 610q10 17 27 17h1q20 0 22 -21l37 -606l377 607q12 20 31 20
q9 0 15 -6t6 -14q0 -10 -6 -19zM620 786q-8 -27 -37 -27q-15 0 -23.5 9.5t-5.5 23.5l9 33q8 27 37 27q15 0 24 -10t5 -23zM783 786q-8 -27 -37 -27q-15 0 -23.5 9.5t-5.5 23.5l9 33q8 27 37 27q15 0 24 -10t5 -23z" />
    <glyph glyph-name="wdieresis" unicode="&#x1e85;" horiz-adv-x="845" 
d="M146 21l-44 452q0 1 -0.5 6.5t-0.5 7.5q0 27 26 27q22 0 24 -27l35 -421l263 430q12 18 28 18h1q20 0 22 -22l33 -426l266 429q11 19 26 19q21 0 21 -20q0 -9 -6 -19l-292 -462q-12 -20 -29 -20h-1q-23 0 -26 28l-33 412l-259 -419q-12 -21 -29 -21h-1q-22 0 -24 28z
M459 616q-8 -27 -37 -27q-15 0 -23.5 9.5t-5.5 23.5l9 33q8 27 37 27q15 0 24 -10t5 -23zM622 616q-8 -27 -37 -27q-15 0 -23.5 9.5t-5.5 23.5l9 33q8 27 37 27q15 0 24 -10t5 -23z" />
    <glyph glyph-name="Ygrave" unicode="&#x1ef2;" horiz-adv-x="668" 
d="M358 271l-67 -252q-6 -23 -28 -23q-11 0 -18.5 8.5t-3.5 21.5l69 258l-166 377q-4 9 -4 18q0 11 7 18t18 7q17 0 27 -23l153 -357l354 366q14 14 28 14q9 0 16 -6.5t7 -15.5q0 -12 -12 -24zM421 774l-61 80q-7 8 -7 16t12.5 15.5t26.5 7.5q21 0 28 -18l36 -92q3 -9 3 -12
q0 -9 -13 -9q-16 0 -25 12z" />
    <glyph glyph-name="ygrave" unicode="&#x1ef3;" horiz-adv-x="568" 
d="M-46 -98q40 -19 72 -19q40 0 78.5 27.5t84.5 92.5l-96 468q-2 10 -2 18q0 25 24 25q21 0 26 -26l85 -434l296 440q13 20 29 20q22 0 22 -21q0 -10 -6 -19l-338 -492q-54 -78 -103.5 -111.5t-105.5 -33.5q-46 0 -91 24q-14 7 -14 22q0 10 6.5 16.5t16.5 6.5q8 0 16 -4z
M311 604l-61 80q-7 8 -7 16t12.5 15.5t26.5 7.5q21 0 28 -18l36 -92q3 -9 3 -12q0 -9 -13 -9q-16 0 -25 12z" />
    <glyph glyph-name="enspace" unicode="&#x2002;" horiz-adv-x="500" 
 />
    <glyph glyph-name="emspace" unicode="&#x2003;" horiz-adv-x="1000" 
 />
    <glyph glyph-name="threeperemspace" unicode="&#x2004;" horiz-adv-x="333" 
 />
    <glyph glyph-name="fourperemspace" unicode="&#x2005;" horiz-adv-x="250" 
 />
    <glyph glyph-name="thinspace" unicode="&#x2009;" horiz-adv-x="133" 
 />
    <glyph glyph-name="hairspace" unicode="&#x200a;" horiz-adv-x="75" 
 />
    <glyph glyph-name="endash" unicode="&#x2013;" horiz-adv-x="528" 
d="M103 271q-11 0 -18.5 7.5t-7.5 18.5t7.5 18.5t18.5 7.5h344q11 0 18.5 -7.5t7.5 -18.5t-7.5 -18.5t-18.5 -7.5h-344z" />
    <glyph glyph-name="emdash" unicode="&#x2014;" horiz-adv-x="898" 
d="M103 271q-11 0 -18.5 7.5t-7.5 18.5t7.5 18.5t18.5 7.5h714q11 0 18.5 -7.5t7.5 -18.5t-7.5 -18.5t-18.5 -7.5h-714z" />
    <glyph glyph-name="quoteleft" unicode="&#x2018;" horiz-adv-x="231" 
d="M280 677q-32 -14 -48.5 -32t-22.5 -47q10 -1 16 -9t3 -21l-9 -33q-8 -26 -36 -26q-14 0 -23 10t-5 23l12 45q14 51 40 77q23 24 64 37q8 3 13.5 -0.5t5.5 -10.5q0 -9 -10 -13z" />
    <glyph glyph-name="quoteright" unicode="&#x2019;" horiz-adv-x="231" 
d="M130 536q32 14 48.5 32t22.5 47q-10 1 -16 9t-3 21l9 33q8 26 36 26q14 0 23 -10t5 -23l-12 -45q-14 -51 -40 -77q-23 -23 -64 -37q-8 -3 -13.5 0.5t-5.5 10.5q0 9 10 13z" />
    <glyph glyph-name="quotesinglbase" unicode="&#x201a;" horiz-adv-x="231" 
d="M-30 -79q32 14 48.5 32t22.5 47q-10 1 -16 9t-3 21l9 33q8 26 36 26q14 0 23 -10t5 -23l-12 -45q-14 -51 -40 -77q-23 -24 -64 -37q-8 -3 -13.5 0.5t-5.5 10.5q0 9 10 13z" />
    <glyph glyph-name="quotedblleft" unicode="&#x201c;" horiz-adv-x="411" 
d="M362 509q-14 0 -23 10t-5 23l12 45q14 51 40 77q24 24 64 37q8 3 13.5 -0.5t5.5 -10.5q0 -9 -10 -13q-32 -14 -48.5 -32t-22.5 -47q10 -1 16 -9t3 -21l-9 -33q-8 -26 -36 -26zM182 509q-14 0 -23 10t-5 23l12 45q14 51 40 77q24 24 64 37q8 3 13.5 -0.5t5.5 -10.5
q0 -9 -10 -13q-32 -14 -48.5 -32t-22.5 -47q10 -1 16 -9t3 -21l-9 -33q-8 -26 -36 -26z" />
    <glyph glyph-name="quotedblright" unicode="&#x201d;" horiz-adv-x="411" 
d="M129 536q32 14 48.5 32t22.5 47q-10 1 -16 9t-3 21l9 33q8 26 36 26q14 0 23 -10t5 -23l-12 -45q-14 -51 -40 -77q-23 -23 -64 -37q-8 -3 -13.5 0.5t-5.5 10.5q0 9 10 13zM309 536q32 14 48.5 32t22.5 47q-10 1 -16 9t-3 21l9 33q8 26 36 26q14 0 23 -10t5 -23l-12 -45
q-14 -51 -40 -77q-23 -23 -64 -37q-8 -3 -13.5 0.5t-5.5 10.5q0 9 10 13z" />
    <glyph glyph-name="quotedblbase" unicode="&#x201e;" horiz-adv-x="412" 
d="M-30 -79q32 14 48.5 32t22.5 47q-10 1 -16 9t-3 21l9 33q8 26 36 26q14 0 23 -10t5 -23l-12 -45q-14 -51 -40 -77q-23 -24 -64 -37q-8 -3 -13.5 0.5t-5.5 10.5q0 9 10 13zM150 -79q32 14 48.5 32t22.5 47q-10 1 -16 9t-3 21l9 33q8 26 36 26q14 0 23 -10t5 -23l-12 -45
q-14 -51 -40 -77q-23 -24 -64 -37q-8 -3 -13.5 0.5t-5.5 10.5q0 9 10 13z" />
    <glyph glyph-name="dagger" unicode="&#x2020;" horiz-adv-x="410" 
d="M323 675l-38 -120l101 6q9 1 16 -6t7 -16t-7 -15.5t-16 -5.5l-111 6l-67 -269q-5 -21 -24 -21q-10 0 -15 7.5t-3 18.5l75 264l-101 -6q-9 -1 -16 5.5t-7 15.5t7 16t16 6l109 -6l28 125q5 24 26 24q12 0 18 -9t2 -20z" />
    <glyph glyph-name="daggerdbl" unicode="&#x2021;" horiz-adv-x="430" 
d="M244 350l-52 -174l102 6q9 1 16 -5.5t7 -15.5t-7 -16t-16 -6l-109 6l-28 -125q-5 -24 -26 -24q-12 0 -18 9t-2 20l38 120l-101 -6q-9 -1 -16 6t-7 16t7 15.5t16 5.5l110 -6l42 174l51 174l-101 -6q-9 -1 -16 5.5t-7 15.5t7 16t16 6l109 -6l28 125q5 24 26 24q12 0 18 -9
t2 -20l-38 -120l101 6q9 1 16 -6t7 -16t-7 -15.5t-16 -5.5l-111 6z" />
    <glyph glyph-name="bullet" unicode="&#x2022;" horiz-adv-x="470" 
d="M232 222q-46 0 -75.5 29.5t-29.5 79.5q0 61 42.5 106t100.5 45q46 0 75.5 -29.5t29.5 -79.5q0 -61 -42.5 -106t-100.5 -45z" />
    <glyph glyph-name="ellipsis" unicode="&#x2026;" horiz-adv-x="683" 
d="M85 20q-6 -24 -36 -24q-14 0 -22.5 8.5t-5.5 21.5l10 37q8 26 36 26q14 0 22.5 -9t5.5 -22zM311 20q-6 -24 -36 -24q-14 0 -22.5 8.5t-5.5 21.5l10 37q8 26 36 26q14 0 22.5 -9t5.5 -22zM537 20q-6 -24 -36 -24q-14 0 -22.5 8.5t-5.5 21.5l10 37q8 26 36 26q14 0 22.5 -9
t5.5 -22z" />
    <glyph glyph-name="perthousand" unicode="&#x2030;" horiz-adv-x="1203" 
d="M230 346q-60 0 -98.5 41.5t-38.5 101.5q0 86 56 152.5t135 66.5q60 0 98.5 -41.5t38.5 -101.5q0 -86 -56 -152.5t-135 -66.5zM588 -7q-60 0 -98.5 41.5t-38.5 101.5q0 86 56 152.5t135 66.5q60 0 98.5 -41.5t38.5 -101.5q0 -86 -56 -152.5t-135 -66.5zM234 389
q56 0 97 53.5t41 117.5q0 48 -24 76.5t-68 28.5q-56 0 -97 -53.5t-41 -117.5q0 -48 24 -76.5t68 -28.5zM592 36q56 0 97 53.5t41 117.5q0 48 -24 76.5t-68 28.5q-56 0 -97 -53.5t-41 -117.5q0 -48 24 -76.5t68 -28.5zM970 -7q-60 0 -98.5 41.5t-38.5 101.5q0 86 56 152.5
t135 66.5q60 0 98.5 -41.5t38.5 -101.5q0 -86 -56 -152.5t-135 -66.5zM974 36q56 0 97 53.5t41 117.5q0 48 -24 76.5t-68 28.5q-56 0 -97 -53.5t-41 -117.5q0 -48 24 -76.5t68 -28.5zM772 664l-635 -652q-16 -16 -27 -16q-8 0 -14 5.5t-6 14.5q0 10 11 21l635 652
q16 16 27 16q8 0 14 -5.5t6 -14.5q0 -10 -11 -21z" />
    <glyph glyph-name="guilsinglleft" unicode="&#x2039;" horiz-adv-x="311" 
d="M54 266l191 184q16 16 27 16q21 0 21 -22q0 -10 -9 -19l-177 -177l75 -166q4 -9 4 -17q0 -9 -6.5 -15.5t-16.5 -6.5q-15 0 -23 17l-88 177q-5 10 -5 15q0 7 7 14z" />
    <glyph glyph-name="guilsinglright" unicode="&#x203a;" horiz-adv-x="311" 
d="M256 243l-191 -184q-16 -16 -27 -16q-21 0 -21 22q0 10 9 19l177 177l-75 166q-4 9 -4 17q0 9 6.5 15.5t16.5 6.5q15 0 23 -17l88 -177q5 -10 5 -15q0 -7 -7 -14z" />
    <glyph glyph-name="fraction" unicode="&#x2044;" horiz-adv-x="550" 
d="M643 721l-656 -805q-14 -18 -28 -18q-21 0 -21 19q0 11 9 22l656 805q14 18 28 18q21 0 21 -19q0 -11 -9 -22z" />
    <glyph glyph-name="Euro" unicode="&#x20ac;" horiz-adv-x="684" 
d="M223 464h274q10 0 17 -7t7 -17t-7 -17t-17 -7h-292q-19 -62 -22 -123h269q10 0 17 -7t7 -17t-7 -17t-17 -7h-269q5 -95 55 -152.5t135 -57.5q105 0 191 87q10 10 22 10q8 0 14.5 -6t6.5 -14q0 -12 -12 -24q-48 -49 -100 -74.5t-123 -25.5q-103 0 -170.5 69.5t-72.5 187.5
h-65q-10 0 -17 7t-7 17t7 17t17 7h66q3 65 21 123h-42q-10 0 -17 7t-7 17t7 17t17 7h59q44 111 130.5 179.5t194.5 68.5q148 0 210 -136q5 -12 5 -20q0 -11 -7 -17.5t-18 -6.5q-15 0 -22 16q-53 117 -177 117q-82 0 -151.5 -55t-109.5 -146z" />
    <glyph glyph-name="published" unicode="&#x2117;" horiz-adv-x="830" 
d="M439 -12q-151 0 -256 106t-105 255t106 256t257 107t256 -106t105 -255t-106 -256t-257 -107zM439 16q141 0 237 98t96 237t-95 236t-236 97t-237 -98t-96 -237t95 -236t236 -97zM321 193v326q0 9 6.5 15.5t15.5 6.5h119q66 0 104.5 -30t38.5 -85v-2q0 -58 -43 -89.5
t-107 -31.5h-90v-110q0 -9 -6.5 -15.5t-15.5 -6.5t-15.5 6.5t-6.5 15.5zM365 344h91q48 0 76 20.5t28 57.5v2q0 76 -101 76h-94v-156z" />
    <glyph glyph-name="servicemark" unicode="&#x2120;" horiz-adv-x="708" 
d="M756 700h1q21 0 15 -24l-78 -273q-5 -15 -19 -15q-8 0 -12.5 6t-1.5 16l64 221l-145 -157q-9 -11 -20 -11t-16 12l-62 156l-66 -228q-5 -15 -19 -15q-8 0 -12.5 6t-1.5 16l78 272q5 18 19 18h1q13 0 19 -16l69 -174l163 178q12 12 24 12zM97 468q7 0 13 -6q40 -44 98 -44
q34 0 56 16.5t22 42.5q0 17 -13.5 29.5t-49.5 26.5q-46 19 -66 36.5t-20 46.5q0 38 32.5 63.5t81.5 25.5q62 0 102 -40q6 -6 6 -13t-4.5 -12t-11.5 -5q-9 0 -17 8q-33 31 -78 31q-33 0 -54 -16.5t-21 -37.5q0 -19 15.5 -31t53.5 -26q41 -16 60.5 -35t19.5 -47
q0 -40 -33.5 -67t-83.5 -27q-73 0 -120 52q-5 7 -5 13q0 7 5 11.5t12 4.5z" />
    <glyph glyph-name="trademark" unicode="&#x2122;" horiz-adv-x="690" 
d="M267 666l-75 -263q-5 -15 -19 -15q-8 0 -12.5 6t-1.5 16l73 256h-83q-7 0 -12 5t-5 12t5 12t12 5h211q7 0 12 -4.5t5 -11.5t-5 -12.5t-12 -5.5h-93zM738 700h1q21 0 15 -24l-78 -273q-5 -15 -19 -15q-8 0 -12.5 6t-1.5 16l64 221l-145 -157q-9 -11 -20 -11t-16 12
l-62 156l-66 -228q-5 -15 -19 -15q-8 0 -12.5 6t-1.5 16l78 272q5 18 19 18h1q13 0 19 -16l69 -174l163 178q12 12 24 12z" />
    <glyph glyph-name="minus" unicode="&#x2212;" horiz-adv-x="620" 
d="M558 327h-442q-10 0 -17.5 7.5t-7.5 17.5t7.5 17.5t17.5 7.5h442q10 0 17.5 -7.5t7.5 -17.5t-7.5 -17.5t-17.5 -7.5z" />
    <glyph glyph-name="Q.alt" horiz-adv-x="846" 
d="M523 243l100 -117q58 54 91 129.5t33 155.5q0 109 -69 181.5t-179 72.5q-96 0 -177 -54t-126.5 -140.5t-45.5 -182.5q0 -109 69 -181.5t179 -72.5q103 0 190 63l-98 109q-13 15 -13 24q0 25 24 25q12 0 22 -12zM677 -6l-57 67q-103 -74 -222 -74q-131 0 -216.5 86.5
t-85.5 214.5q0 108 53.5 206t147 158t202.5 60q131 0 216.5 -86.5t85.5 -214.5q0 -90 -39 -175t-107 -146l57 -62q12 -14 12 -23q0 -23 -24 -23q-13 0 -23 12z" />
    <glyph glyph-name="a.alt" 
d="M265 33q96 0 175.5 82t79.5 183q0 75 -49.5 126.5t-126.5 51.5q-101 0 -169 -80t-68 -188q0 -78 44 -126.5t114 -48.5zM545 379l30 112q6 23 27 23q11 0 17 -8t3 -20l-124 -467q-6 -23 -27 -23q-11 0 -17 8t-3 20l19 75q-94 -112 -211 -112q-89 0 -147 60.5t-58 154.5
q0 134 86 227t202 93q79 0 130 -40.5t73 -102.5z" />
    <glyph glyph-name="aacute.alt" 
d="M265 33q96 0 175.5 82t79.5 183q0 75 -49.5 126.5t-126.5 51.5q-101 0 -169 -80t-68 -188q0 -78 44 -126.5t114 -48.5zM545 379l30 112q6 23 27 23q11 0 17 -8t3 -20l-124 -467q-6 -23 -27 -23q-11 0 -17 8t-3 20l19 75q-94 -112 -211 -112q-89 0 -147 60.5t-58 154.5
q0 134 86 227t202 93q79 0 130 -40.5t73 -102.5zM538 683l-103 -78q-17 -13 -38 -13q-14 0 -14 10q0 6 5 11l88 95q17 17 29 17q14 0 29 -8.5t15 -16.5q0 -9 -11 -17z" />
    <glyph glyph-name="abreve.alt" 
d="M265 33q96 0 175.5 82t79.5 183q0 75 -49.5 126.5t-126.5 51.5q-101 0 -169 -80t-68 -188q0 -78 44 -126.5t114 -48.5zM545 379l30 112q6 23 27 23q11 0 17 -8t3 -20l-124 -467q-6 -23 -27 -23q-11 0 -17 8t-3 20l19 75q-94 -112 -211 -112q-89 0 -147 60.5t-58 154.5
q0 134 86 227t202 93q79 0 130 -40.5t73 -102.5zM402 593q-46 0 -75 23t-29 69q0 36 24 36q17 0 20 -20q4 -28 18.5 -42.5t52.5 -14.5q62 0 101 59q12 18 25 18q8 0 14 -5.5t6 -12.5t-3 -13q-22 -46 -63.5 -71.5t-90.5 -25.5z" />
    <glyph glyph-name="acircumflex.alt" 
d="M265 33q96 0 175.5 82t79.5 183q0 75 -49.5 126.5t-126.5 51.5q-101 0 -169 -80t-68 -188q0 -78 44 -126.5t114 -48.5zM545 379l30 112q6 23 27 23q11 0 17 -8t3 -20l-124 -467q-6 -23 -27 -23q-11 0 -17 8t-3 20l19 75q-94 -112 -211 -112q-89 0 -147 60.5t-58 154.5
q0 134 86 227t202 93q79 0 130 -40.5t73 -102.5zM457 702l48 -87q5 -10 5 -13q0 -10 -14 -10q-21 0 -32 14l-44 57l-82 -58q-19 -13 -33 -13t-14 10q0 6 8 14l94 86q18 18 33 18h6q14 0 25 -18z" />
    <glyph glyph-name="adieresis.alt" 
d="M265 33q96 0 175.5 82t79.5 183q0 75 -49.5 126.5t-126.5 51.5q-101 0 -169 -80t-68 -188q0 -78 44 -126.5t114 -48.5zM545 379l30 112q6 23 27 23q11 0 17 -8t3 -20l-124 -467q-6 -23 -27 -23q-11 0 -17 8t-3 20l19 75q-94 -112 -211 -112q-89 0 -147 60.5t-58 154.5
q0 134 86 227t202 93q79 0 130 -40.5t73 -102.5zM357 616q-8 -27 -37 -27q-15 0 -23.5 9.5t-5.5 23.5l9 33q8 27 37 27q15 0 24 -10t5 -23zM520 616q-8 -27 -37 -27q-15 0 -23.5 9.5t-5.5 23.5l9 33q8 27 37 27q15 0 24 -10t5 -23z" />
    <glyph glyph-name="agrave.alt" 
d="M265 33q96 0 175.5 82t79.5 183q0 75 -49.5 126.5t-126.5 51.5q-101 0 -169 -80t-68 -188q0 -78 44 -126.5t114 -48.5zM545 379l30 112q6 23 27 23q11 0 17 -8t3 -20l-124 -467q-6 -23 -27 -23q-11 0 -17 8t-3 20l19 75q-94 -112 -211 -112q-89 0 -147 60.5t-58 154.5
q0 134 86 227t202 93q79 0 130 -40.5t73 -102.5zM365 604l-61 80q-7 8 -7 16t12.5 15.5t26.5 7.5q21 0 28 -18l36 -92q3 -9 3 -12q0 -9 -13 -9q-16 0 -25 12z" />
    <glyph glyph-name="amacron.alt" 
d="M265 33q96 0 175.5 82t79.5 183q0 75 -49.5 126.5t-126.5 51.5q-101 0 -169 -80t-68 -188q0 -78 44 -126.5t114 -48.5zM545 379l30 112q6 23 27 23q11 0 17 -8t3 -20l-124 -467q-6 -23 -27 -23q-11 0 -17 8t-3 20l19 75q-94 -112 -211 -112q-89 0 -147 60.5t-58 154.5
q0 134 86 227t202 93q79 0 130 -40.5t73 -102.5zM546 621h-264q-10 0 -17 7t-7 17t7 17t17 7h264q10 0 17 -7t7 -17t-7 -17t-17 -7z" />
    <glyph glyph-name="aogonek.alt" 
d="M265 33q96 0 175.5 82t79.5 183q0 75 -49.5 126.5t-126.5 51.5q-101 0 -169 -80t-68 -188q0 -78 44 -126.5t114 -48.5zM545 379l30 112q6 23 27 23q11 0 17 -8t3 -20l-124 -467q-4 -14 -15 -21q-77 -52 -77 -88q0 -14 11.5 -22t40.5 -14q16 -3 16 -18q0 -19 -21 -19
q-47 0 -72.5 19t-25.5 46q0 51 95 111q0 7 1 11l19 75q-94 -112 -211 -112q-89 0 -147 60.5t-58 154.5q0 134 86 227t202 93q79 0 130 -40.5t73 -102.5z" />
    <glyph glyph-name="aring.alt" 
d="M265 33q96 0 175.5 82t79.5 183q0 75 -49.5 126.5t-126.5 51.5q-101 0 -169 -80t-68 -188q0 -78 44 -126.5t114 -48.5zM545 379l30 112q6 23 27 23q11 0 17 -8t3 -20l-124 -467q-6 -23 -27 -23q-11 0 -17 8t-3 20l19 75q-94 -112 -211 -112q-89 0 -147 60.5t-58 154.5
q0 134 86 227t202 93q79 0 130 -40.5t73 -102.5zM417 595q-42 0 -67.5 23t-25.5 59q0 42 33 72t76 30q42 0 67.5 -23t25.5 -59q0 -42 -33 -72t-76 -30zM418 627q30 0 51 20t21 49q0 23 -15 37t-43 14q-30 0 -51 -20t-21 -49q0 -23 15 -37t43 -14z" />
    <glyph glyph-name="aring.alt2" horiz-adv-x="571" 
d="M398 -4q-11 0 -17 8t-3 20l17 64q-84 -100 -205 -100q-69 0 -118 37.5t-49 105.5q0 84 64 134.5t166 50.5q90 0 196 -29l4 14q7 26 7 51q0 58 -39.5 89t-114.5 31q-66 0 -129 -21q-8 -2 -13 -2q-20 0 -20 22q0 17 19 23q59 19 110 23q-17 20 -17 49q0 42 33 72t76 30
q42 0 67.5 -23t25.5 -59q0 -55 -52 -84q102 -37 102 -143q0 -29 -10 -67l-73 -273q-6 -23 -27 -23zM199 33q75 0 141.5 47.5t86.5 122.5l12 45q-96 24 -193 24q-76 0 -123.5 -37.5t-47.5 -97.5q0 -47 33.5 -75.5t90.5 -28.5zM350 516q30 0 51 20t21 49q0 23 -15 37t-43 14
q-30 0 -51 -20t-21 -49q0 -23 15 -37t43 -14z" />
    <glyph glyph-name="aringacute.alt" 
d="M265 33q96 0 175.5 82t79.5 183q0 75 -49.5 126.5t-126.5 51.5q-101 0 -169 -80t-68 -188q0 -78 44 -126.5t114 -48.5zM545 379l30 112q6 23 27 23q11 0 17 -8t3 -20l-124 -467q-6 -23 -27 -23q-11 0 -17 8t-3 20l19 75q-94 -112 -211 -112q-89 0 -147 60.5t-58 154.5
q0 134 86 227t202 93q79 0 130 -40.5t73 -102.5zM417 595q-42 0 -67.5 23t-25.5 59q0 42 33 72t76 30q42 0 67.5 -23t25.5 -59q0 -42 -33 -72t-76 -30zM418 627q30 0 51 20t21 49q0 23 -15 37t-43 14q-30 0 -51 -20t-21 -49q0 -23 15 -37t43 -14zM585 908l-103 -78
q-17 -13 -38 -13q-14 0 -14 10q0 6 5 11l88 95q17 17 29 17q14 0 29 -8.5t15 -16.5q0 -9 -11 -17z" />
    <glyph glyph-name="aringacute.alt2" horiz-adv-x="571" 
d="M398 -4q-11 0 -17 8t-3 20l17 64q-84 -100 -205 -100q-69 0 -118 37.5t-49 105.5q0 84 64 134.5t166 50.5q90 0 196 -29l4 14q7 26 7 51q0 58 -39.5 89t-114.5 31q-66 0 -129 -21q-8 -2 -13 -2q-20 0 -20 22q0 17 19 23q59 19 110 23q-17 20 -17 49q0 42 33 72t76 30
q42 0 67.5 -23t25.5 -59q0 -55 -52 -84q102 -37 102 -143q0 -29 -10 -67l-73 -273q-6 -23 -27 -23zM199 33q75 0 141.5 47.5t86.5 122.5l12 45q-96 24 -193 24q-76 0 -123.5 -37.5t-47.5 -97.5q0 -47 33.5 -75.5t90.5 -28.5zM350 516q30 0 51 20t21 49q0 23 -15 37t-43 14
q-30 0 -51 -20t-21 -49q0 -23 15 -37t43 -14zM517 797l-103 -78q-17 -13 -38 -13q-14 0 -14 10q0 6 5 11l88 95q17 17 29 17q14 0 29 -8.5t15 -16.5q0 -9 -11 -17z" />
    <glyph glyph-name="atilde.alt" 
d="M265 33q96 0 175.5 82t79.5 183q0 75 -49.5 126.5t-126.5 51.5q-101 0 -169 -80t-68 -188q0 -78 44 -126.5t114 -48.5zM545 379l30 112q6 23 27 23q11 0 17 -8t3 -20l-124 -467q-6 -23 -27 -23q-11 0 -17 8t-3 20l19 75q-94 -112 -211 -112q-89 0 -147 60.5t-58 154.5
q0 134 86 227t202 93q79 0 130 -40.5t73 -102.5zM281 590q-21 0 -21 18q0 10 7 21q21 36 41.5 55.5t51.5 19.5q20 0 33.5 -8t33.5 -27q31 -30 48 -30q23 0 52 48q9 15 20 15q21 0 21 -18q0 -10 -7 -21q-21 -36 -41.5 -55.5t-51.5 -19.5q-20 0 -33.5 8t-33.5 27
q-31 30 -48 30q-23 0 -52 -48q-9 -15 -20 -15z" />
    <glyph glyph-name="three.alt" horiz-adv-x="600" 
d="M61 128q70 -93 202 -93q89 0 145.5 44.5t56.5 109.5q0 71 -60 106t-156 35h-5q-10 0 -16.5 6.5t-6.5 16.5t6.5 16.5t16.5 6.5h27q124 0 194.5 42t70.5 116q0 59 -46 94t-118 35q-95 0 -175 -58q-13 -9 -22 -9q-10 0 -16 6.5t-6 16.5q0 13 14 23q93 68 205 68
q92 0 155.5 -46.5t63.5 -126.5q0 -77 -56 -124.5t-155 -63.5q62 -18 101 -57.5t39 -100.5q0 -86 -75.5 -144.5t-184.5 -58.5q-158 0 -241 108q-8 10 -8 20t7.5 17.5t17.5 7.5q15 0 25 -13z" />
    <glyph glyph-name="registered.alt" horiz-adv-x="830" 
d="M439 -12q-151 0 -256 106t-105 255t106 256t257 107t256 -106t105 -255t-106 -256t-257 -107zM439 16q141 0 237 98t96 237t-95 236t-236 97t-237 -98t-96 -237t95 -236t236 -97zM301 194v328q0 9 6 15t15 6h143q70 0 107 -37q28 -28 28 -68v-2q0 -42 -27 -69.5
t-73 -35.5l96 -121q6 -8 6 -16q0 -9 -6.5 -15t-15.5 -6q-11 0 -19 10l-111 141h-106v-130q0 -9 -6.5 -15t-15.5 -6t-15 6t-6 15zM344 364h114q43 0 70 18.5t27 52.5q0 31 -24.5 49t-67.5 18h-119v-138z" />
    <glyph glyph-name="NUL" horiz-adv-x="0" 
 />
    <glyph glyph-name="hfjslug" horiz-adv-x="694" 
d="M644 -200h-208l-8 14h-163l-8 -14h-207v303q14 0 23 9.5t9 22.5t-9.5 22.5t-22.5 9.5v554h100l30 79h334l29 -79h101v-921zM400 563v-172h15v78h38v14h-38v66h43v14h-58zM184 563v-172h15v79h47v-79h15v172h-15v-79h-47v79h-15zM460 394q10 -4 21 -4q31 0 31 36v137h-16
v-137q0 -22 -16 -22q-8 0 -20 5v-15zM371 465l-13 3q-4 -18 -8 -30h-1l-16 31q23 21 23 42q0 31 -27 31q-12 0 -20 -9t-8 -22t14 -39q-23 -18 -23 -47q0 -16 8 -26.5t21 -10.5q19 0 29 24h1l12 -24l12 6l-17 32q6 14 13 39zM523 323v-46h8v12l8 8l15 -20h10l-20 26l18 20
h-10l-20 -24h-1v24h-8zM488 292l10 -15h9l-12 17q10 4 10 14q0 15 -17 15h-20v-46h8v15h12zM426 276q10 0 17 7t7 17q0 9 -7 16.5t-17 7.5t-17 -7.5t-7 -16.5q0 -10 7 -17t17 -7zM370 301l-13 22h-9l18 -29v-17h8v17l18 29h-9zM193 323v-46h34v7h-26v13h23v7h-23v12h26v7
h-34zM132 323v-46h8v32l25 -32h7v46h-8v-32l-25 32h-7zM241 323l14 -47h8l11 34h1l11 -34h8l14 47h-8l-10 -35h-1l-11 35h-7l-11 -35h-1l-10 35h-8zM327 479q-12 22 -12 32q0 19 14 19q13 0 13 -19q0 -15 -15 -32zM342 423q-8 -21 -20 -21q-16 0 -16 25q0 19 16 35zM487 299
h-11v17h11q10 0 10 -8q0 -9 -10 -9zM426 283q-16 0 -16 17q0 6 4.5 11.5t11.5 5.5t11.5 -5.5t4.5 -11.5q0 -17 -16 -17z" />
    <glyph glyph-name="i.dot" horiz-adv-x="250" 
d="M265 661q-6 -23 -34 -23q-14 0 -21.5 8t-4.5 20l7 26q6 23 34 23q14 0 21.5 -8t4.5 -20zM211 486l-125 -467q-6 -23 -27 -23q-11 0 -17 8t-3 20l125 467q6 23 27 23q11 0 17 -8t3 -20z" />
    <glyph glyph-name="caron.alt" horiz-adv-x="500" 
d="M306 597l42 111q10 25 35 25h13q14 0 14 -11q0 -8 -9 -22l-64 -106q-10 -17 -22 -17t-12 9q0 4 3 11z" />
    </font>
</defs>
</svg>
